<svg viewBox="0 0 120 40" xmlns="http://www.w3.org/2000/svg"><g fill="none"><path d="M53.51 21.84c0 4.604-3.594 7.996-8.004 7.996s-8.004-3.392-8.004-7.996c0-4.636 3.594-7.996 8.004-7.996s8.004 3.36 8.004 7.996Zm-3.504 0c0-2.877-2.082-4.845-4.5-4.845-2.417 0-4.5 1.968-4.5 4.845 0 2.848 2.083 4.845 4.5 4.845 2.418 0 4.5-2 4.5-4.845Z" fill="#EA4335"/><path d="M70.778 21.84c0 4.604-3.594 7.996-8.004 7.996s-8.005-3.392-8.005-7.996c0-4.633 3.594-7.996 8.005-7.996 4.41 0 8.004 3.36 8.004 7.996Zm-3.504 0c0-2.877-2.083-4.845-4.5-4.845-2.418 0-4.5 1.968-4.5 4.845 0 2.848 2.082 4.845 4.5 4.845 2.417 0 4.5-2 4.5-4.845Z" fill="#FBBC05"/><path d="M87.326 14.327v14.356c0 5.905-3.475 8.317-7.584 8.317-3.867 0-6.194-2.592-7.072-4.712l3.05-1.273c.544 1.302 1.875 2.838 4.019 2.838 2.63 0 4.26-1.626 4.26-4.687v-1.15h-.123c-.784.97-2.295 1.817-4.202 1.817-3.99 0-7.644-3.483-7.644-7.964 0-4.514 3.655-8.025 7.644-8.025 1.903 0 3.414.847 4.202 1.788h.122V14.33h3.328v-.003Zm-3.08 7.542c0-2.816-1.874-4.874-4.259-4.874-2.417 0-4.443 2.058-4.443 4.874 0 2.787 2.026 4.816 4.443 4.816 2.385 0 4.26-2.03 4.26-4.816Z" fill="#4285F4"/><path fill="#34A853" d="M92.812 5.912v23.434h-3.418V5.912z"/><path d="m106.13 24.472 2.719 1.817c-.878 1.301-2.993 3.544-6.648 3.544-4.533 0-7.918-3.512-7.918-7.997 0-4.755 3.414-7.996 7.526-7.996 4.14 0 6.166 3.302 6.828 5.087l.363.909-10.666 4.427c.816 1.604 2.086 2.422 3.867 2.422 1.784 0 3.022-.88 3.928-2.213Zm-8.372-2.877 7.13-2.967c-.392-.999-1.572-1.695-2.96-1.695-1.781 0-4.26 1.576-4.17 4.662Z" fill="#EA4335"/><path d="M24.566 19.76v-3.393h11.407c.112.592.17 1.291.17 2.048 0 2.545-.695 5.693-2.933 7.935-2.176 2.271-4.957 3.483-8.64 3.483-6.829 0-12.57-5.574-12.57-12.417C12 10.574 17.741 5 24.57 5c3.777 0 6.467 1.485 8.49 3.421l-2.39 2.394c-1.45-1.363-3.413-2.422-6.104-2.422-4.986 0-8.886 4.027-8.886 9.023 0 4.997 3.9 9.024 8.886 9.024 3.234 0 5.076-1.301 6.256-2.484.956-.959 1.586-2.329 1.834-4.2l-8.09.004Z" fill="#4285F4"/></g></svg>