<svg viewBox="0 0 120 40" xmlns="http://www.w3.org/2000/svg"><g fill="none" fill-rule="evenodd"><path d="M2 31h22.213V9H2v22Zm23.447 0h22.212V9H25.447v22Zm45.66 0H48.893V9h22.212v22Zm1.234 0h22.212V9H72.341v22ZM118 31H95.787V9H118v22Z" fill="#FF690F"/><path d="M11.546 19.587V14.5H8.85v11h2.697v-5.086l2.84 5.086h2.978l-3.09-5.5 3.09-5.5h-2.977l-2.84 5.087Zm23 4.33-.482 1.583h-2.88l3.663-11h3.43l3.646 11H38.96l-.482-1.583h-3.93Zm1.965-6.267-1.299 4.106h2.599l-1.3-4.106Zm24.862 7.85h-2.696v-4.85L55.03 14.5h3.213l1.799 3.38 1.765-3.38h3.163l-3.597 6.15v4.85Zm20.068-1.583-.483 1.583h-2.881l3.663-11h3.43l3.647 11h-2.964l-.482-1.583h-3.93Zm1.964-6.267-1.3 4.106h2.6l-1.3-4.106Zm21.929 1.937V14.5h-2.698v11h2.698v-5.086l2.84 5.086h2.977l-3.09-5.5 3.09-5.5h-2.977l-2.84 5.087Z" fill="#FAFAFC"/></g></svg>