<svg xmlns="http://www.w3.org/2000/svg" viewBox="0 0 90 90"><path fill="#FFF" d="M0 0h90v90H0z"/><path d="M21.45 60.092a27.669 27.669 0 0 1-4.602-15.304c0-15.428 12.626-27.978 28.148-27.978s28.148 12.55 28.148 27.978a27.711 27.711 0 0 1-4.601 15.304h7.88A34.413 34.413 0 0 0 80 44.788C80 25.603 64.298 10 45 10c-19.298 0-35 15.607-35 34.788 0 5.489 1.29 10.683 3.576 15.304h7.873Z" fill="#4A4AF4"/><path d="M45.468 28.258c-5.125 0-11.024 2.4-14.228 4.94l2.924 6.117c2.566-2.336 6.72-4.33 10.464-4.33 3.56 0 5.522 1.182 5.522 3.566 0 1.604-1.306 2.508-3.764 2.73-9.235.844-16.411 3.71-16.411 10.755 0 5.589 4.052 8.964 10.72 8.964 4.461 0 7.965-2.464 9.855-5.716v4.805h8.314V39.952c.004-8.315-5.815-11.694-13.396-11.694Zm-2.426 26.286c-2.695 0-4.173-1.146-4.173-3.03 0-3.924 4.825-4.871 11.109-4.871 0 4.108-2.768 7.9-6.936 7.9Z"/></svg>