<svg xmlns="http://www.w3.org/2000/svg" viewBox="0 0 90 90"><path fill="#FFF" d="M0 0h90v90H0z"/><path d="M74.268 42.083 59.707 15c-.772.16-1.568.16-2.34 0L25.203 27.509a6.13 6.13 0 0 0-2.827 3.578L15.224 55.89c-.857 2.969.818 6.08 3.746 6.95l42.008 11.933c2.923.872 5.988-.833 6.848-3.802l6.948-24.321c.451-1.43.198-3.19-.506-4.566Z" fill="#00ADE6"/><path d="M48.314 27.8s-.024 11.272-.003 11.245l.533-.762c2.218-3.17 4.37-6.098 8.156-6.098 4.527-.002 6.98 3.75 6.996 6.908v1.397l-.021 18.82h-5.08l-.025-19.138c0-2.627-2.13-2.622-2.163-2.622-1.714 0-4.88 4.267-8.396 9.01v12.755l-5.136.005-.008-5.903s-3.397 5.906-8.486 5.911c-5.771 0-7.729-3.93-7.745-13.347-.007-8.972 1.277-13.772 7.466-13.777 4.703-.005 8.747 6.786 8.747 6.786v-4.3l5.165-6.89Zm-13.841 9.735c-2.364.005-2.57 2.477-2.562 8.439.008 5.964.333 8.289 2.557 8.289 3.017-.005 7.776-7.612 7.776-7.612s-4.722-9.116-7.771-9.116Z" fill="#FFF"/></svg>