<svg xmlns="http://www.w3.org/2000/svg" viewBox="0 0 90 90"><path fill="#FFF" d="M0 0h90v90H0z"/><path d="M63.57 45.884c0 .83.18 1.687.537 2.571.358.884.781 1.661 1.271 2.33.49.67.987 1.286 1.49 1.849.503.562.94.991 1.31 1.286l.517.442-9.017 9a134.276 134.276 0 0 1-3.138-3.034 112.018 112.018 0 0 1-2.304-2.35l-.755-.804c-.291-.295-.622-.736-.993-1.326-1.006 1.58-2.297 2.953-3.873 4.119a16.281 16.281 0 0 1-5.065 2.55c-1.8.537-3.654.845-5.561.925-1.907.08-3.728-.2-5.462-.844a16.498 16.498 0 0 1-4.668-2.631c-1.377-1.112-2.476-2.625-3.297-4.54-.82-1.916-1.231-4.092-1.231-6.53 0-2.25.37-4.312 1.112-6.187.742-1.875 1.695-3.435 2.86-4.681 1.165-1.246 2.576-2.357 4.23-3.335 1.656-.977 3.278-1.74 4.867-2.29a40.251 40.251 0 0 1 5.164-1.386c1.854-.375 3.436-.623 4.747-.743a77.16 77.16 0 0 1 3.952-.262v-5.102c0-1.741-.278-3.04-.834-3.898-.9-1.42-2.502-2.13-4.806-2.13-.16 0-.378.014-.656.041-.278.027-.814.188-1.609.482a9.368 9.368 0 0 0-2.224 1.186c-.689.495-1.43 1.292-2.225 2.39-.794 1.098-1.43 2.384-1.906 3.857l-11.68-1.085c0-1.607.292-3.2.875-4.78.582-1.581 1.47-3.095 2.661-4.541 1.192-1.446 2.622-2.719 4.29-3.817 1.669-1.098 3.675-1.975 6.019-2.632C40.51 9.328 43.034 9 45.735 9c2.648 0 5.045.335 7.19 1.004 2.145.67 3.86 1.494 5.144 2.471a14.67 14.67 0 0 1 3.218 3.335c.86 1.246 1.456 2.398 1.787 3.456.331 1.058.497 2.042.497 2.953v23.665Zm-26.693.844c0 2.303.926 4.084 2.78 5.343 1.748 1.179 3.589 1.474 5.522.884 2.224-.67 3.734-2.317 4.528-4.942.371-1.205.556-2.558.556-4.058v-6.509a28.15 28.15 0 0 0-4.409.483c-1.377.267-2.787.716-4.23 1.346-1.444.629-2.596 1.58-3.456 2.852-.861 1.273-1.291 2.806-1.291 4.6Z"/><path d="M11.354 63.261a.81.81 0 0 1 .457.181c5.085 3.134 9.057 5.357 11.917 6.67 10.302 4.714 20.881 5.92 31.74 3.616 5.03-1.072 10.208-2.88 15.531-5.424.397-.161.742-.201 1.033-.121.291.08.437.315.437.703 0 .389-.199.837-.596 1.346-.344.429-.927 1.011-1.748 1.748-.82.737-2.085 1.647-3.793 2.732a42.641 42.641 0 0 1-5.601 2.973c-2.026.898-4.516 1.674-7.468 2.33a41.896 41.896 0 0 1-9.117.985c-3.151 0-6.303-.415-9.454-1.246-3.152-.83-5.92-1.854-8.303-3.073a53.66 53.66 0 0 1-6.852-4.179c-2.185-1.567-3.94-2.973-5.263-4.219-1.324-1.245-2.437-2.417-3.337-3.515-.212-.241-.344-.462-.397-.663-.053-.201-.04-.362.04-.482a.812.812 0 0 1 .774-.362Zm64.849-.542c1.642.16 2.648.482 3.019.964.291.429.324 1.36.1 2.792a18.735 18.735 0 0 1-1.133 4.119c-.9 2.223-2.026 3.884-3.376 4.982-.45.375-.795.495-1.033.362-.239-.134-.239-.456 0-.965.556-1.205 1.145-2.832 1.767-4.881.623-2.05.709-3.369.259-3.958-.133-.188-.338-.342-.616-.462-.278-.12-.636-.201-1.073-.241-.437-.04-.827-.074-1.171-.1a11.84 11.84 0 0 0-1.39 0 26.2 26.2 0 0 0-1.15.07l-.102.01a114.253 114.253 0 0 1-2.125.2 5.5 5.5 0 0 1-.517.06 8.663 8.663 0 0 0-.437.041c-.106.013-.218.027-.337.04a2.66 2.66 0 0 1-.278.02h-.398l-.119-.02-.08-.06-.059-.12c-.159-.43.464-.965 1.867-1.608 1.404-.643 2.768-1.044 4.092-1.205 1.218-.188 2.648-.201 4.29-.04Z" fill="#F29700"/></svg>