<svg xmlns="http://www.w3.org/2000/svg" viewBox="0 0 90 90"><path fill="#75768B" d="M0 0h90v90H0z"/><path d="M44.011 58.919h-6.616V44.015c0-4.475-3.624-8.116-8.076-8.116-4.454 0-8.078 3.641-8.078 8.116v14.904h-6.616V44.015c0-8.14 6.591-14.765 14.694-14.765 8.101 0 14.692 6.625 14.692 14.765v14.904Zm17.444.997c-8.102 0-14.692-6.625-14.692-14.765V30.247h6.614V45.15c0 4.475 3.625 8.116 8.078 8.116 4.453 0 8.078-3.641 8.078-8.116V30.248h6.615V45.15c0 8.141-6.592 14.765-14.693 14.765v.001Z" fill="#FFF"/></svg>