<svg xmlns="http://www.w3.org/2000/svg" viewBox="0 0 90 90"><path fill="#FFF" d="M0 0h90v90H0z"/><path d="M26.266 39c3.292 0 5.962-2.686 5.962-6 0-3.316-2.67-6-5.962-6-3.296 0-5.963 2.684-5.963 6 0 3.314 2.667 6 5.963 6m38.772-.003c3.292 0 5.962-2.684 5.962-6C71 29.684 68.33 27 65.038 27c-3.296 0-5.963 2.684-5.963 5.997 0 3.316 2.667 6 5.963 6M50.115 75h5.962V15h-5.962zM26.228 57c-3.296 0-5.963 2.69-5.963 6 0 3.316 2.667 6 5.963 6 3.292 0 5.962-2.684 5.962-6 0-3.31-2.67-6-5.962-6m38.81 0c-3.296 0-5.963 2.69-5.963 6 0 3.316 2.667 6 5.963 6C68.33 69 71 66.316 71 63c0-3.31-2.67-6-5.962-6"/><path d="M20 51h16.708v24h5.962V45H20z"/></svg>