<svg xmlns="http://www.w3.org/2000/svg" viewBox="0 0 90 90"><path fill="#0043E0" d="M0 0h90v90H0z"/><g fill="#FFF"><path d="M45.147 19c-.494 0-1.005.02-1.474.04h-.007c-10.883.531-20.213 7.922-23.236 18.413a25.841 25.841 0 0 0-1.04 7.078v.185c0 1.98.433 4.228.77 5.713l.003.011.002.01c.025.101.056.2.103.31.204.77.436 1.531.71 2.291-.406.792-1.155 2.006-2.035 3.346a135.268 135.268 0 0 1-2.984 4.34 1.182 1.182 0 0 0-.142.224c-1.09 1.836-1.078 4.14-.032 5.976l.001.002.001.002a6.011 6.011 0 0 0 5.202 3.02h22.41l.043.001c.445.02.897.038 1.352.038 6.816 0 13.23-2.635 18.086-7.47 4.856-4.816 7.552-11.227 7.593-18.024v-.183c0-1.341-.188-2.961-.57-4.794l-.012-.055-.018-.053-.001-.004a.514.514 0 0 1-.004-.012l-.012-.042-.002-.006a5.26 5.26 0 0 0-.019-.065 24.153 24.153 0 0 0-.788-2.931 2.15 2.15 0 0 0 .07-.21c.06-.197.26-.62.618-1.256a48.9 48.9 0 0 1 1.29-2.127 117.08 117.08 0 0 1 3.04-4.519l.043-.06.016-.033c.014-.02.033-.052.055-.09 1.093-1.855 1.084-4.14.038-5.999a5.964 5.964 0 0 0-5.206-3.028H46.542l-.043-.001A32.267 32.267 0 0 0 45.147 19ZM24.925 38.588A20.782 20.782 0 0 1 43.916 23.63c.436-.02.845-.038 1.231-.038.386 0 .796.018 1.211.038h22.693a1.4 1.4 0 0 1 1.198.708c.237.417.244.92.02 1.342-1.04 1.473-1.945 3.04-2.82 4.556l-.022.04c-.898 1.555-1.767 3.058-2.757 4.444a2.32 2.32 0 0 0-.303 2.177l.003.008.003.008a22.46 22.46 0 0 1 1.016 3.538l.004.021.006.021c.013.055.027.103.037.136v.003l.01.033.006.024c.284 1.446.428 2.704.428 3.654v.154c-.077 11.523-9.541 20.911-21.067 20.911-.386 0-.796-.018-1.21-.038H21.008a1.38 1.38 0 0 1-1.198-.688l-.003-.005-.003-.005a1.401 1.401 0 0 1-.027-1.322l.104-.149a150.37 150.37 0 0 0 2.906-4.234 57.483 57.483 0 0 0 1.774-2.855c.492-.86.92-1.698 1.106-2.33a2.212 2.212 0 0 0-.069-1.54 22.275 22.275 0 0 1-.918-2.87l-.009-.037-.055-.164c-.397-1.81-.594-3.326-.594-4.455v-.152c.019-1.974.3-3.925.863-5.817l.04-.135v-.024Z"/><path d="M36.265 44.755c0 4.852 3.952 8.803 8.804 8.803s8.803-3.951 8.803-8.803c0-4.851-3.951-8.802-8.803-8.802s-8.804 3.951-8.804 8.802Zm4.756 0a4.039 4.039 0 0 1 4.048-4.047 4.059 4.059 0 0 1 4.048 4.047 4.039 4.039 0 0 1-4.048 4.048 4.039 4.039 0 0 1-4.048-4.048Zm2.376-12.633a2.356 2.356 0 1 0-.593-4.674 17.455 17.455 0 0 0-10.144 4.97 2.355 2.355 0 1 0 3.333 3.333 12.738 12.738 0 0 1 7.404-3.629Zm4.461-2.37a2.357 2.357 0 0 1 3.012-1.426 17.451 17.451 0 0 1 11.582 16.43 2.356 2.356 0 0 1-4.714 0 12.732 12.732 0 0 0-8.453-11.993 2.356 2.356 0 0 1-1.427-3.011Zm11.315 20.706a2.356 2.356 0 0 1 .817 3.23 17.443 17.443 0 0 1-3.352 4.068 2.357 2.357 0 0 1-3.143-3.511 12.73 12.73 0 0 0 2.447-2.97 2.357 2.357 0 0 1 3.23-.817Zm-22.627 7.019a2.357 2.357 0 0 1 3.126-1.155 12.742 12.742 0 0 0 6.845 1.077 2.357 2.357 0 1 1 .561 4.678 17.456 17.456 0 0 1-9.377-1.475 2.356 2.356 0 0 1-1.155-3.125Zm-3.691-16.562a2.356 2.356 0 1 0-4.494-1.421 17.442 17.442 0 0 0-.763 6.57 2.356 2.356 0 0 0 4.7-.353 12.732 12.732 0 0 1 .557-4.796Z"/></g></svg>