<svg xmlns="http://www.w3.org/2000/svg" viewBox="0 0 90 90"><path fill="#8B7BFF" d="M0 0h90v90H0z"/><path d="M45.5 17c5.7 0 11.167 2.244 15.199 6.239A21.22 21.22 0 0 1 67 38.302v26.173L45.5 73 24 64.475V42.654h34.26v15.945L45.5 63.658l-12.764-5.066v-7.25h4.372v4.31l8.392 3.32 8.388-3.32v-8.679H28.382v14.564L45.5 68.322l17.118-6.785V38.302a16.912 16.912 0 0 0-5.02-11.993A17.212 17.212 0 0 0 45.5 21.334a17.212 17.212 0 0 0-12.107 4.976 16.912 16.912 0 0 0-5.018 12.003H24a21.22 21.22 0 0 1 6.297-15.07A21.596 21.596 0 0 1 45.5 17Zm0 8.657a12.832 12.832 0 0 1 9.02 3.71 12.608 12.608 0 0 1 3.74 8.943h-4.375a8.286 8.286 0 0 0-2.46-5.875 8.433 8.433 0 0 0-5.925-2.437 8.43 8.43 0 0 0-5.927 2.436 8.283 8.283 0 0 0-2.458 5.876h-4.379a12.612 12.612 0 0 1 3.743-8.943 12.835 12.835 0 0 1 9.021-3.71Z"/></svg>