<svg xmlns="http://www.w3.org/2000/svg" viewBox="0 0 90 90"><path fill="#FFF" d="M0 0h90v90H0z"/><path d="M40.383 47.529c-1.45.339-2.896.673-4.232 1.378-4.417 2.335-6.85 7.43-5.766 12.145 1.115 4.837 5.276 8.52 9.95 8.806 5.496.334 10.114-2.577 11.842-7.4.354-.991.12-1.233-.894-1.21-2.313.052-4.63.025-6.946.006-1.716-.013-2.815-.948-2.87-2.396-.056-1.538.99-2.6 2.789-2.623 3.676-.049 7.354-.049 11.033.005 1.861.027 2.711 1.018 2.651 2.836-.313 9.57-8.207 16.531-18.012 15.882-8.878-.587-15.78-8.959-14.843-18.004.84-8.1 7.783-14.243 16.426-14.534 5.89-.199 10.429-4.233 11.203-9.952.621-4.605-1.804-8.561-6.586-10.613-2.344-1.007-4.796-1.621-7.382-1.554-.44.34-.278.824-.278 1.252-.006 5.157 0 10.314.005 15.47-.428 1.29-1.43 1.697-2.66 1.53-1.27-.172-2-1.018-2.171-2.256-.093-.663-.041-1.344-.041-2.014 0-5.338-.008-10.675 0-16.01.003-2.447.935-3.344 3.406-3.269 4.205.127 8.3.757 12.12 2.631 9.312 4.567 11.75 16.004 5.094 23.918-.404.48-.823.948-1.346 1.546.934.342 1.804.638 2.656.975 6.186 2.423 9.609 6.955 10.437 13.437.218 1.694-.698 2.927-2.22 3.15-1.371.203-2.614-.813-2.933-2.39-1.297-6.415-4.58-9.541-11.099-10.58-.128-.022-.248-.1-.373-.152-.153-.274-.417-.307-.695-.307h-7.564c-.278 0-.543.033-.692.31l-.009-.013Z" fill="#1964DA"/><path d="M38.468 37.016c-.003-5.157-.011-10.314-.006-15.47 0-.429-.16-.91.278-1.253 0 5.106.008 10.209.003 15.314 0 .482.109.997-.278 1.409h.003Z" fill="#1C61CF"/><path d="M40.383 47.529c.153-.275.415-.31.692-.31h7.565c.278 0 .54.032.695.307H40.38l.002.003Z" fill="#1B61D0"/></svg>