<svg xmlns="http://www.w3.org/2000/svg" viewBox="0 0 90 90"><defs><linearGradient x1="50%" y1="0%" x2="50%" y2="100%" id="a"><stop stop-color="#408CFF" offset="0%"/><stop stop-color="#004DD4" offset="100%"/></linearGradient></defs><path fill="url(#a)" d="M0 0h90v90H0z"/><path d="M73.242 50.558c0 2.518-.49 5.015-1.472 7.49-.982 2.475-2.198 4.672-3.647 6.591-1.449 1.92-3.18 3.786-5.185 5.602-2.006 1.816-3.86 3.325-5.56 4.526l-5.314 3.406-3.934 2.175-1.866.88a2.528 2.528 0 0 1-1.142.263 2.532 2.532 0 0 1-1.143-.264l-1.866-.88-3.934-2.174-5.317-3.406c-1.697-1.202-3.551-2.71-5.557-4.526-2.006-1.816-3.733-3.682-5.184-5.602-1.451-1.919-2.666-4.116-3.649-6.59C17.49 55.572 17 53.075 17 50.557V16.812a2.702 2.702 0 0 1 .834-1.977A2.7 2.7 0 0 1 19.811 14H70.43c.759 0 1.419.278 1.976.835a2.7 2.7 0 0 1 .835 1.977l.001 33.746Zm-7.437-29.122H45.12v50.96c3.485-1.846 6.605-3.853 9.359-6.02 6.883-5.389 11.324-10.661 11.324-15.818V21.436Z" fill="#FFF"/></svg>