<svg xmlns="http://www.w3.org/2000/svg" viewBox="0 0 90 90"><path d="M86.139 45c0 22.72-18.417 41.139-41.139 41.139S3.861 67.719 3.861 45C3.861 22.28 22.281 3.861 45 3.861c22.72 0 41.139 18.42 41.139 41.139Z"/><path d="M45 1C20.7 1 1 20.7 1 45s19.7 44 44 44 44-19.7 44-44S69.3 1 45 1Zm41.139 44c0 22.72-18.417 41.139-41.139 41.139S3.861 67.719 3.861 45C3.861 22.28 22.281 3.861 45 3.861c22.72 0 41.139 18.42 41.139 41.139Z" fill="#FFF"/><path d="M66.325 26.332a38.49 38.49 0 0 1 1.943 2.305l8.91-5.655a59.266 59.266 0 0 0-1.685-2.09l-5.642 3.73-.386.331.288-.419 2.49-4.972-1.76-1.762-4.976 2.491-.419.288.334-.386 3.733-5.64a54.26 54.26 0 0 0-2.093-1.692l-5.655 8.902a40.5 40.5 0 0 1 2.264 1.912l5.324-2.763.341-.25-.25.34-2.761 5.33ZM46.107 15.05l2.435-5.453.155-.484-.044.504.256 7.288c.854.08 1.736.2 2.605.344l-.396-10.793a54.03 54.03 0 0 0-3.637-.282l-2.398 5.953-.086.442-.085-.442-2.396-5.953a54.03 54.03 0 0 0-3.637.282l-.396 10.793a38.68 38.68 0 0 1 2.605-.344l.257-7.288-.044-.504.155.484 2.434 5.453h2.217Zm-19.69 8.602c1.408-1.482 2.205-3.195.797-4.83-.766-.887-2.051-1.081-3.117-.644l-.106.041.033-.093c.158-.422.26-1.767-.887-2.696-.559-.452-1.26-.62-1.969-.548-1.322.134-2.338 1.037-5.106 4.124-.836.931-2.052 2.4-2.781 3.352l7.603 7.213c2.52-2.789 3.547-3.826 5.533-5.92Zm-9.92-1.764c1.53-1.873 3.158-3.573 3.895-4.246.233-.212.487-.424.794-.507.5-.137 1.015.218 1.131.73.116.515-.207 1.004-.567 1.407-.81.913-3.78 4.02-3.78 4.02l-1.474-1.404Zm2.977 2.825s2.892-3.058 3.836-4.036c.376-.388.616-.624.875-.75.334-.163.698-.197 1.024.02a.9.9 0 0 1 .388.952c-.095.438-.452.854-.747 1.172l-3.834 4.103-1.542-1.461Z" fill="#FFF"/><path d="M71.093 45H45V18.907c14.42 0 26.093 11.673 26.093 26.093ZM45 45v26.093C30.58 71.093 18.907 59.42 18.907 45H45Z" fill="#FFF"/><path d="M45 18.907V45H18.907c0-14.42 11.673-26.093 26.093-26.093ZM71.093 45c0 14.42-11.673 26.093-26.093 26.093V45h26.093Z" fill="#0066B1"/></svg>