<svg xmlns="http://www.w3.org/2000/svg" viewBox="0 0 90 90"><path fill="#32BB78" d="M0 0h90v90H0z"/><path d="M45.407 14.7c-11.311 0-20.5 9.315-20.5 20.824 0 11.49 9.17 20.825 20.5 20.825 11.31 0 20.5-9.316 20.5-20.825-.018-11.49-9.19-20.824-20.5-20.824Zm0 27.572c-3.672 0-6.643-3.017-6.643-6.748 0-3.73 2.971-6.747 6.643-6.747 3.672 0 6.643 3.017 6.643 6.747s-2.971 6.748-6.643 6.748Zm6.643 25.68c0 3.726-2.975 6.748-6.643 6.748-3.669 0-6.643-3.022-6.643-6.748 0-3.727 2.974-6.748 6.643-6.748 3.668 0 6.643 3.02 6.643 6.748Z" fill="#FFF"/></svg>