<svg xmlns="http://www.w3.org/2000/svg" viewBox="0 0 90 90"><path fill="#FFF" d="M0 0h90v90H0z"/><path d="M74.956 24.354c.013.21.02.423.02.637 0 2.7-1.12 5.158-2.933 6.96l-4.4 4.464c-.003.002-.004.005-.007.005L55.024 49.04v15.638c0 5.679 4.494 10.323 9.988 10.323C70.505 75 75 70.356 75 64.677V25.323c0-.326-.015-.65-.044-.97Z" fill="#D20073"/><path d="M40.97 34.983 17.753 58.208l.012.012c-3.596 4.028-3.573 10.153.153 13.88l.01.012 37.096-37.13H40.97v.001Z" fill="#00C2F0"/><path d="M17.929 72.112c3.727 3.715 9.841 3.735 13.863.142l.013.011.423-.421.004-.007L55.024 49.04V34.983L17.93 72.113Z" fill="#00B0EB"/><path d="m67.643 36.415 4.4-4.464a10.457 10.457 0 0 1-7.386 3.032h-9.632v14.055L67.637 36.42c.003 0 .004-.004.006-.005Z" fill="#0079BC"/><path d="M63.855 15.07c.035-.005.07-.008.105-.011a9.503 9.503 0 0 1 .6-.048h.016a8.32 8.32 0 0 1 .225-.007h.04A7.275 7.275 0 0 0 64.66 15H25.32C19.644 15.001 15 19.497 15 24.993c0 5.495 4.643 9.992 10.32 9.992h15.65l16.55-16.557a9.881 9.881 0 0 1 6.335-3.357v-.001Z" fill="#D20073"/><path d="m55.03 25.032.002-.086.009-.207.006-.093c.005-.068.008-.135.015-.202.001-.029.005-.058.007-.086.006-.072.013-.144.021-.215l.008-.068c.01-.082.02-.164.032-.247l.005-.033c.043-.3.099-.593.167-.884a9.875 9.875 0 0 1 2.218-4.484L40.97 34.984h14.054v-9.66c0-.098.002-.196.004-.292h.001Z" fill="#0079BC"/><path d="M74.956 24.354a10.634 10.634 0 0 0-.226-1.402C73.818 18.416 69.815 15 65.012 15l-.159.003h-.055c-.055.002-.11.003-.164.006l-.062.002h-.013a9.68 9.68 0 0 0-.704.059 9.893 9.893 0 0 0-6.335 3.356 9.888 9.888 0 0 0-2.217 4.484l-.003.012c-.065.285-.12.577-.164.872l-.005.032a9.961 9.961 0 0 0-.031.247l-.008.068c-.009.07-.015.143-.022.215l-.008.086-.014.202-.006.093-.01.208-.002.085a9.479 9.479 0 0 0-.005.292v9.66h9.633c5.675 0 10.319-4.496 10.319-9.991 0-.214-.007-.426-.021-.637Z" fill="#05418A"/></svg>