<svg xmlns="http://www.w3.org/2000/svg" viewBox="0 0 90 90"><path fill="#ECF7FE" d="M0 0h90v90H0z"/><path d="M51.795 44.196v-.233c6.58-.931 11.2-2.91 13.855-5.82 2.655-3.027 3.925-6.17 3.925-9.662 0-4.074-1.732-7.682-5.195-10.825C60.916 14.513 55.258 13 47.292 13H14.616c-.923 0-1.616.698-1.616 1.63 0 .93.693 1.63 1.616 1.63h6.582v59.48h-6.582c-.923 0-1.616.7-1.616 1.63 0 .932.693 1.63 1.616 1.63h31.752c8.428 0 14.779-1.63 19.166-5.005 4.272-3.376 6.466-7.8 6.466-13.27 0-9.312-6.697-14.783-20.205-16.53Zm-14.78-28.053h5.08c4.504 0 7.275.931 8.66 2.677 1.27 1.746 1.963 5.238 1.963 10.476 0 6.17-.808 10.01-2.424 11.291-1.617 1.397-4.85 1.98-9.584 1.98h-3.694V16.142ZM51.91 72.83c-1.616 1.862-5.311 2.91-11.084 2.91H37.13V45.825h4.734c4.503 0 7.62.932 9.583 2.794s2.887 5.587 2.887 11.058c0 6.868-.809 11.291-2.425 13.154Z" fill="#003764"/><path d="M79.884 67.474c0-.624-.494-1.13-1.103-1.13-.61 0-1.104.506-1.104 1.13v2.112c-3.454-3.033-8.187-5.353-13.587-6.69V60.1c0-.595-.493-1.1-1.103-1.1a1.11 1.11 0 0 0-1.103 1.1v2.29a46.111 46.111 0 0 0-8.942-.863c-3.077 0-6.068.298-8.942.863V60.1c0-.595-.494-1.1-1.103-1.1a1.11 1.11 0 0 0-1.103 1.1v2.795c-5.4 1.338-10.133 3.658-13.588 6.69v-2.11c0-.625-.493-1.13-1.103-1.13S26 66.85 26 67.475v4.787c0 .297.087.595.32.832a1.104 1.104 0 0 0 1.538.03c1.742-1.606 4.239-2.527 6.852-2.527 2.932 0 5.603 1.1 7.374 3.033.232.238.522.356.813.356a1.1 1.1 0 0 0 .726-.267c2.206-1.963 5.719-3.122 9.377-3.122 3.658 0 7.171 1.16 9.377 3.122.465.416 1.133.357 1.54-.09 1.77-1.932 4.441-3.032 7.373-3.032 2.613 0 5.081.921 6.852 2.527.435.416 1.103.387 1.539-.03.232-.237.319-.535.319-.832v-4.788h-.116Zm-46.045.893c2.351-1.309 5.022-2.35 7.896-3.123v5.234c-2.003-1.368-4.47-2.141-7.112-2.141-.262 0-.523 0-.784.03Zm10.132 2.26v-5.918c2.845-.595 5.864-.892 8.942-.892 3.077 0 6.097.297 8.942.892v5.917c-2.468-1.486-5.603-2.319-8.942-2.319-3.339.03-6.474.862-8.942 2.32Zm27.203-2.29c-2.642 0-5.11.773-7.113 2.14v-5.233c2.904.773 5.574 1.814 7.897 3.123-.261-.03-.523-.03-.784-.03Z" fill="#00A0DF"/></svg>