<svg xmlns="http://www.w3.org/2000/svg" viewBox="0 0 90 90"><path fill="#043C5B" d="M0 0h90v90H0z"/><path d="M46.48 61.545a46.53 46.53 0 0 1 2.71-.076c1.293 0 2.536.076 3.83.076 4.401 0 6.813-3.314 6.813-7.286 0-4.123-2.611-6.653-6.366-6.653-1.566 0-3.083.076-4.277.076-.92 0-1.815-.05-2.71-.076v.785h.671c.845 0 .995.1.995 1.011V59.75c0 .91-.125 1.011-.995 1.011h-.671v.785Zm3.605-12.876c.597-.05 1.79-.076 2.76-.076 2.611 0 4.825 1.745 4.825 5.464 0 3.845-1.368 6.552-5.446 6.552-.672 0-1.517-.026-2.139-.076V48.669ZM31.46 54.715c0 3.415 1.79 7.032 6.515 7.032 4.576 0 6.863-3.516 6.863-7.361 0-4.2-2.536-6.957-6.689-6.957-4.103 0-6.689 3.01-6.689 7.286m2.163-.177c0-4.098 1.99-6.223 4.526-6.223 3.183 0 4.501 2.858 4.501 6.045 0 3.567-1.268 6.527-4.7 6.527-2.387 0-4.327-1.973-4.327-6.35m-4.277 3.669c-1.243 1.416-2.71 2.276-4.7 2.276-2.71 0-5.072-1.922-5.072-6.096 0-3.491 1.716-6.097 4.824-6.097 2.71 0 3.755 1.67 4.103 3.39h.77v-3.364c-1.143-.203-2.312-.86-4.724-.86-4.7 0-7.162 3.01-7.162 7.285 0 3.49 2.114 7.032 6.615 7.032 2.188 0 3.979-.683 5.893-2.858l-.547-.708Zm20.366-13.534c.672-.05 1.467-.076 3.034-.076 1.815 0 4.476.05 7.112.076l.696-3.39h-.845c-.82 2.252-1.07 2.353-2.462 2.353h-4.053V37.79h2.437c1.64.026 1.94.101 1.94 1.645v.227h.77v-4.3h-.77v.354c0 1.062-.175 1.113-2.612 1.113h-1.765v-5.06H56.6c1.642 0 1.965.203 2.263 2.252h.82l-.148-3.288a49.43 49.43 0 0 1-2.81.075h-4.377c-.447 0-.87 0-1.293-.025-.423-.025-.845-.05-1.293-.05v.784h.522c.846 0 .995.101.995 1.012v10.32c0 .911-.124 1.012-.995 1.012h-.522v.81h-.05Zm-8.454-13.053h1.815c2.014 0 3.133.961 3.133 2.858 0 1.645-.945 3.01-3.481 3.01h-1.467V31.62Zm-3.606 13.053c.87-.05 1.765-.076 2.636-.076.87 0 1.765.05 2.636.076v-.784h-.672c-.845 0-.994-.101-.994-1.037v-4.528h1.69c3.482 0 5.322-1.341 5.322-3.947 0-2.023-1.368-3.668-4.5-3.668-1.17 0-2.338.05-3.507.076-.87 0-1.766-.05-2.636-.076v.784h.671c.846 0 .995.102.995 1.012V42.8c0 .936-.124 1.037-.995 1.037h-.671v.835h.025Zm-6.64-6.147H26.76l2.164-5.54 2.088 5.54Zm-8.852 6.147c.721-.05 1.467-.076 2.188-.076.721 0 1.467.05 2.188.076v-.784h-.671c-.622 0-.82-.228-.82-.582 0-.405.223-.961.447-1.518l.945-2.378h4.948l1.194 3.34c.075.227.174.404.174.581 0 .405-.298.531-.82.531h-.672v.785a44.82 44.82 0 0 1 2.636-.076c.845 0 1.74.05 2.611.076v-.785h-.497c-.622 0-.846-.202-1.17-.96l-4.848-12.345h-1.02L24 42.623c-.423 1.062-.746 1.24-1.417 1.24h-.423v.809Zm-.2-3.364c-1.242 1.416-2.71 2.276-4.699 2.276-2.71 0-5.073-1.922-5.073-6.096 0-3.491 1.716-6.097 4.824-6.097 2.71 0 3.755 1.67 4.103 3.39h.771v-3.364c-1.144-.203-2.312-.86-4.724-.86-4.725 0-7.162 2.985-7.162 7.26 0 3.49 2.114 7.032 6.615 7.032 2.188 0 3.978-.683 5.893-2.858l-.547-.683Zm41.603 4.932.473.354c1.442-1.138 3.332-1.82 5.122-1.82 4.153 0 7.187 3.288 7.187 7.816 0 4.477-3.034 8.246-6.615 8.246-3.034 0-3.954-3.44-6.565-3.44-.87 0-1.591.683-1.591 1.518 0 1.72 3.183 3.086 7.062 3.086C75.1 62 80 57.472 80 51.527c0-5.514-4.5-10.068-9.897-10.068-1.99 0-3.73.405-5.222 1.24l.398-8.854h12.234L78.036 30h-.92c-.25.43-.523.632-1.393.632H64.284l-.72 15.608Z" fill="#FFF"/></svg>