<svg xmlns="http://www.w3.org/2000/svg" viewBox="0 0 90 90"><defs><linearGradient x1="0%" y1="0%" x2="100%" y2="100%" id="a"><stop stop-color="#BF45F5" offset="0%"/><stop stop-color="#4172F6" offset="100%"/></linearGradient></defs><path fill="url(#a)" d="M0 0h90v90H0z"/><path d="M74.303 60.363 59.408 75.301a2.375 2.375 0 0 1-1.682.699H41.759a3.229 3.229 0 0 1-3.224-3.24l.012-6.723a3.228 3.228 0 0 1 3.225-3.228h10.505c.631 0 1.237-.251 1.683-.7l8.579-8.616a2.374 2.374 0 0 1 2.596-.518l8.397 3.498c1.566.652 1.969 2.689.77 3.89Zm-.77-26.836-8.398 3.498a2.374 2.374 0 0 1-2.595-.518l-8.58-8.616a2.375 2.375 0 0 0-1.682-.7H39.89c-.855 0-1.675.34-2.28.947l-8.513 8.538a3.239 3.239 0 0 0-.944 2.287v26.299c0 2.125-2.561 3.19-4.06 1.688l-8.147-8.162A3.238 3.238 0 0 1 15 56.5V33.148c0-.633.25-1.24.696-1.688L32.41 14.7a2.375 2.375 0 0 1 1.68-.7h23.635c.631 0 1.236.252 1.682.699l14.895 14.938c1.198 1.201.795 3.238-.77 3.89ZM38.954 46.432v-2.634c0-1.116.442-2.186 1.228-2.975l1.858-1.863a3.345 3.345 0 0 1 2.368-.984h2.976c.888 0 1.74.354 2.368.983l2.105 2.112c.628.63.98 1.484.98 2.375v2.635a4.213 4.213 0 0 1-1.228 2.974L50 50.67a4.188 4.188 0 0 1-2.965 1.231h-2.626c-.888 0-1.74-.353-2.368-.983l-2.105-2.111a3.363 3.363 0 0 1-.98-2.375Z" fill="#FFF"/></svg>