<svg xmlns="http://www.w3.org/2000/svg" viewBox="0 0 90 90"><path fill="#FFF" opacity=".978" d="M0 0h90v90H0z"/><path fill="#FFF" d="m74.178 48.432-8.804-4.946-1.522-.643-36.01.245v17.904H74.17z"/><path d="M58.147 59.341c.43-1.445.265-2.775-.453-3.761-.655-.902-1.764-1.43-3.098-1.491l-25.256-.321a.49.49 0 0 1-.39-.199.542.542 0 0 1-.063-.443.695.695 0 0 1 .593-.444l25.483-.32c3.012-.138 6.298-2.531 7.445-5.467l1.46-3.715a.735.735 0 0 0 .039-.482C62.276 35.428 55.649 30 47.727 30c-7.304 0-13.501 4.625-15.718 11.032a7.665 7.665 0 0 0-5.229-1.43c-3.512.344-6.322 3.096-6.665 6.529a7.29 7.29 0 0 0 .187 2.553c-5.72.16-10.302 4.74-10.302 10.39 0 .504.039 1.001.101 1.506a.5.5 0 0 0 .492.42H57.21a.63.63 0 0 0 .594-.443l.343-1.216Z" fill="#F38020"/><path d="M66.194 43.447c-.227 0-.469 0-.695.023-.164 0-.304.123-.367.283l-.983 3.356c-.43 1.445-.266 2.775.452 3.762.656.902 1.764 1.43 3.099 1.49l5.377.321a.49.49 0 0 1 .39.2.55.55 0 0 1 .063.443.695.695 0 0 1-.593.443l-5.604.321c-3.036.138-6.298 2.53-7.446 5.466l-.413 1.025c-.086.198.062.405.289.405h19.23a.5.5 0 0 0 .492-.36c.328-1.162.515-2.392.515-3.654 0-7.454-6.197-13.524-13.806-13.524" fill="#FAAE40"/></svg>