<svg xmlns="http://www.w3.org/2000/svg" viewBox="0 0 90 90"><path fill="#FFF" d="M0 0h90v90H0z"/><path d="M73.15 55.677a.365.365 0 0 1-.026.136 31.248 31.248 0 0 1-3.075 6.252l-.007.01a.33.33 0 0 1-.273.147h-24.77c-9.204 0-16.666-7.71-16.666-17.222S35.795 27.778 45 27.778h24.769a.33.33 0 0 1 .273.147l.007.01a31.247 31.247 0 0 1 3.087 6.283.35.35 0 0 1 .015.102.34.34 0 0 1-.334.344H45c-5.523 0-10 4.627-10 10.334S39.477 55.33 45 55.33h27.817c.09 0 .174.037.237.102a.35.35 0 0 1 .097.244Z"/><path d="M75 45c0 1.042-.05 2.083-.15 3.12v.03a.337.337 0 0 1-.33.294H45c-1.841 0-3.333-1.542-3.333-3.444 0-1.903 1.492-3.445 3.333-3.445h29.517c.165 0 .306.126.33.295v.03c.101 1.036.152 2.078.153 3.12Z"/><path d="M63.225 69.455a.349.349 0 0 1-.148.286c-4.745 3.714-10.456 5.877-16.4 6.211-17.706 1.012-32.464-14.101-31.644-32.409C15.769 27.098 28.903 14 45 14c6.525-.01 12.874 2.187 18.076 6.258.01.007.02.014.03.023a.352.352 0 0 1 .098.381.334.334 0 0 1-.313.227H45c-8.336 0-16.04 4.595-20.207 12.055-4.168 7.46-4.168 16.651 0 24.111C28.96 64.515 36.663 69.111 45 69.111h17.89a.34.34 0 0 1 .334.344Z"/></svg>