<svg xmlns="http://www.w3.org/2000/svg" viewBox="0 0 90 90"><circle cx="45" cy="45" r="45" fill="#FF7200"/><g fill="#FFFAFB"><path d="M55.43 44.764a14.064 14.064 0 0 0 3.684-9.498c0-7.785-6.335-14.118-14.12-14.118-7.787 0-14.121 6.333-14.121 14.118 0 3.723 1.451 7.111 3.815 9.636.735-.508 1.53-.933 2.374-1.266a11.505 11.505 0 0 1-3.61-8.37c0-6.363 5.177-11.539 11.541-11.539 6.364 0 11.541 5.176 11.541 11.539 0 3.244-1.348 6.177-3.51 8.276a11.79 11.79 0 0 1 2.407 1.222Z"/><path d="M37.647 35.153a7.514 7.514 0 0 0 15.028 0 7.513 7.513 0 0 0-7.513-7.513 7.514 7.514 0 0 0-7.515 7.513Z"/><path d="M44.993 14.25c-11.59 0-21.02 9.427-21.02 21.016 0 5.912 2.459 11.258 6.402 15.08a11.77 11.77 0 0 1 1.57-2.812c-3.02-3.21-4.876-7.525-4.876-12.268 0-9.882 8.04-17.922 17.924-17.922s17.925 8.04 17.925 17.922a17.85 17.85 0 0 1-4.69 12.074 11.84 11.84 0 0 1 1.628 2.773c3.802-3.805 6.157-9.056 6.157-14.847 0-11.589-9.43-21.017-21.02-21.017Z"/><path d="M58.178 54.637c0-5.086-4.161-9.248-9.248-9.248h-7.536c-5.087 0-9.249 4.162-9.249 9.248v8.69a1.12 1.12 0 0 0-.041.29v8.74c0 .636.52 1.156 1.156 1.156h23.772c.578 0 1.055-.43 1.138-.986h.008v-.079c.003-.03.01-.06.01-.09v-8.742c0-.031-.007-.06-.01-.091v-8.888Z"/></g></svg>