<svg xmlns="http://www.w3.org/2000/svg" viewBox="0 0 90 90"><path fill="#FFF" d="M0 0h90v90H0z"/><path d="M71.847 20.712v8.444c0 7.822-5.032 9.388-9.018 9.388-3.985 0-9.016-1.566-9.016-9.388v-9.805c0-.946.556-1.531 1.437-1.531.882 0 1.438.585 1.438 1.53v10.915c0 3.651 2.483 5.8 6.14 5.8 3.662 0 6.144-2.149 6.144-5.8v-9.553H67.64l2.675-5.45 2.673 5.45h-1.141Zm-25.17 22.531H79V11H46.678v32.243Z" fill="#E7792B"/><path d="M33.964 56.256v-1.3h-5.258v18.982c0 .935-.556 1.515-1.437 1.515-.883 0-1.437-.58-1.437-1.515V54.957h-7.689c-.817 0-1.406-.42-1.406-1.321 0-.903.589-1.321 1.406-1.321h15.82v-1.396l5.464 2.67-5.463 2.667ZM11 79h32.322V46.757H11V79Z" fill="#7AB642"/><path d="M72.15 70.078c.578.577.697 1.288.057 1.924-.638.638-1.35.52-1.93-.056l-7.326-7.31-7.953 7.932c-.577.577-1.29.696-1.93.057-.639-.637-.52-1.348.057-1.924l7.953-7.933-7.775-7.755c-.577-.576-.696-1.287-.056-1.925.64-.637 1.352-.519 1.93.057L62.95 60.9l6.67-6.655-.987-.987 5.755-1.966-1.974 5.74-.92-.92-6.672 6.656 7.328 7.31ZM46.679 79H79V46.757H46.678V79Z" fill="#BD2531"/><path d="M27.697 18.381c-5.748 0-8.594 4.888-8.594 9.32 0 4.434 2.918 9.322 8.413 9.322 3.893 0 5.605-2.085 6.95-2.085.765 0 1.274.52 1.274 1.336 0 1.466-3.675 3.227-8.224 3.227-7.497 0-11.354-5.768-11.354-11.8 0-6.028 3.857-11.796 11.535-11.796 2.958 0 5.216 1.277 6.45 2.344l.047-.04 1.071-.897 1.463 5.89-5.56-2.46.996-.835.061-.051c-.906-.658-2.129-1.475-4.528-1.475ZM11 43.243h32.322V11H11v32.243Z" fill="#006CA7"/></svg>