<svg xmlns="http://www.w3.org/2000/svg" viewBox="0 0 90 90"><path fill="#C00" d="M0 0h90v90H0z"/><path d="M72.723 63.895v-1.489h.038c.237.068.483.1.73.095.683 0 1.005-.237 1.242-.92l.351-.948-3.13-8.12h1.935l1.537 4.345c.256.73.54 1.736.54 1.736h.038s.266-1.006.531-1.736l1.47-4.344h1.879l-3.349 9.162C75.91 63.459 75.284 64 73.851 64h-.208a4.097 4.097 0 0 1-.92-.095v-.01Zm-61.964 0V52.514h1.754v1.09h.048c.569-.758 1.366-1.308 2.542-1.308 2.162 0 3.594 1.735 3.594 4.4 0 2.685-1.422 4.382-3.604 4.382a2.845 2.845 0 0 1-2.466-1.195h-.047v4.022l-1.821-.01Zm1.735-7.16c0 1.63.712 2.807 2.277 2.807 1.3 0 2.048-1.09 2.048-2.807 0-1.67-.645-2.922-2.105-2.922-1.546 0-2.22 1.31-2.22 2.922Zm51.408-.057c0-2.466 1.574-4.382 4.078-4.382 2.077 0 3.386 1.195 3.67 2.968h-1.82a1.745 1.745 0 0 0-1.812-1.498c-1.517 0-2.305 1.195-2.305 2.893 0 1.669.769 2.883 2.277 2.883 1.1 0 1.783-.588 1.897-1.66h1.783c-.142 1.86-1.49 3.168-3.652 3.168h-.038c-2.485 0-4.078-1.925-4.078-4.372Zm-8.499 1.897c0-1.897 1.49-2.4 3.415-2.685 1.252-.208 1.954-.303 1.954-1.043 0-.711-.57-1.157-1.575-1.157-1.11 0-1.65.446-1.697 1.413h-1.736c.047-1.517 1.09-2.77 3.414-2.77 2.239 0 3.386.93 3.386 2.865v3.633c0 .607.124.853.712.758h.038v1.167c-.19.095-.427.18-.854.18-.986.02-1.527-.322-1.688-1.176a2.921 2.921 0 0 1-2.58 1.252c-1.612 0-2.789-.825-2.789-2.437Zm3.756-1.518c-1.195.266-1.897.484-1.897 1.451 0 .91.607 1.176 1.395 1.176 1.422.02 2.134-.967 2.134-1.84v-1.309a5.558 5.558 0 0 1-1.632.522ZM28.22 58.575c0-1.897 1.49-2.4 3.415-2.685 1.242-.208 1.954-.303 1.954-1.043 0-.711-.57-1.157-1.575-1.157-1.11 0-1.66.446-1.698 1.413h-1.735c.037-1.517 1.09-2.77 3.414-2.77 2.238 0 3.386.93 3.386 2.865v3.633c0 .607.123.853.711.758h.038v1.167c-.19.095-.426.18-.853.18-1.006.02-1.527-.322-1.688-1.176a2.921 2.921 0 0 1-2.59 1.252c-1.612 0-2.779-.825-2.779-2.437Zm3.756-1.518c-1.195.266-1.897.484-1.897 1.451 0 .91.607 1.176 1.385 1.176 1.442.02 2.143-.967 2.143-1.84v-1.309a5.568 5.568 0 0 1-1.63.522Zm20.459 3.794v-5.444c0-.996-.57-1.518-1.366-1.518-.996 0-1.736.806-1.736 1.982v4.96h-1.82v-5.443c0-.996-.523-1.518-1.329-1.518-.948 0-1.754.806-1.754 1.973v4.97h-1.821v-8.3h1.754v1.158h.038a2.789 2.789 0 0 1 2.428-1.356 2.362 2.362 0 0 1 2.239 1.47h.038a2.893 2.893 0 0 1 2.523-1.47c1.64 0 2.646 1.071 2.646 2.845v5.69h-1.84Zm-27.184.01v-5.369c0-.967-.607-1.574-1.612-1.574-1.11 0-1.935.853-1.935 2.058v4.884h-1.821V49.29h1.821v4.335h.038c.607-.845 1.328-1.31 2.504-1.31 1.736 0 2.826 1.177 2.826 2.94v5.597l-1.82.01Zm11.932-.02v-8.327h1.774v1.375h.019c.503-.891 1.166-1.423 2.22-1.423.175-.01.35.006.52.048v1.66h-.037a1.442 1.442 0 0 0-.446-.038c-1.252 0-2.238.844-2.238 2.437v4.268h-1.812Zm43.108-9.655a1.84 1.84 0 0 1 1.86-1.887c.986 0 1.849.749 1.849 1.896 0 1.148-.863 1.888-1.85 1.888-1.09 0-1.859-.806-1.859-1.897Zm.408 0c0 .873.57 1.555 1.451 1.555.797 0 1.442-.645 1.442-1.555 0-.91-.645-1.546-1.451-1.546-.816 0-1.442.645-1.442 1.546Zm1.954 1.11-.55-.882h-.322v.863h-.342v-2.068h.787c.503 0 .76.18.76.598 0 .379-.219.54-.542.569l.589.92h-.38Zm-.891-1.186h.407c.257 0 .475-.019.475-.322 0-.266-.237-.285-.456-.285h-.426v.607ZM65.287 40.08h5.71c.303 1.375 1.08 1.849 2.684 1.849 1.422 0 2.2-.503 2.2-1.309 0-1.157-1.043-1.233-3.225-1.802-2.542-.664-4.173-1.233-4.932-1.764a4.818 4.818 0 0 1-2.086-4.211c0-3.538 2.788-5.843 7.644-5.843 4.714 0 7.474 2.068 7.797 5.767H75.53c-.19-1.1-.939-1.613-2.362-1.613-1.233 0-1.85.408-1.85 1.233 0 .968.95 1.157 2.714 1.613 2.276.588 4.078.939 5.226 1.735a4.714 4.714 0 0 1 2.333 4.269c0 3.964-2.846 6.297-8.157 6.297-4.904 0-7.778-2.304-8.147-6.222Zm-33.965-3.425c0-5.975 3.594-9.655 9.276-9.655 5.311 0 8.422 2.684 8.764 7.427h-5.577c-.162-1.85-1.205-2.846-3.111-2.846-2.305 0-3.424 1.688-3.424 5.074 0 3.32 1.233 5.037 3.613 5.037 1.774 0 2.893-1.072 3.083-3.035h5.501v.028c-.322 4.8-3.49 7.616-8.745 7.616-5.843 0-9.39-3.699-9.39-9.646h.01ZM6.785 35.498a2.732 2.732 0 0 1 0-3.832l3.84-3.831a2.618 2.618 0 0 1 1.898-.807c.727 0 1.423.29 1.935.807l3.158 3.158 3.14-3.158a2.684 2.684 0 0 1 3.831 0l3.842 3.803a2.732 2.732 0 0 1 0 3.832L17.616 46.3 6.785 35.498Zm47.537 10.32L48.186 27.54h5.975l3.082 11.79 3.301-11.79h5.767l-6.156 18.277h-5.833Z" fill="#FFF"/></svg>