<svg xmlns="http://www.w3.org/2000/svg" viewBox="0 0 90 90"><path fill="#FFF" d="M0 0h90v90H0z"/><path d="M11.922 35.026c-.733 0-1.467.273-2.027.823l-4.057 3.972a2.766 2.766 0 0 0 .005 3.97L17.29 55l11.452-11.208a2.766 2.766 0 0 0-.004-3.971l-4.054-3.97a2.877 2.877 0 0 0-2.026-.825c-.735 0-1.47.277-2.033.83l-3.335 3.263-3.338-3.268a2.885 2.885 0 0 0-2.031-.825Zm37.74.505h6.33l3.255 12.238 3.486-12.238h6.097l-6.51 18.938h-6.174l-6.483-18.938Zm1.318 11.58C50.644 52.093 47.286 55 41.733 55c-6.175 0-9.946-3.844-9.946-9.987 0-6.195 3.797-10.013 9.817-10.013 5.605 0 8.911 2.781 9.273 7.687h-5.915c-.182-1.922-1.292-2.934-3.281-2.934-2.429 0-3.642 1.745-3.642 5.26 0 3.438 1.316 5.233 3.823 5.233 1.885 0 3.074-1.112 3.254-3.135h5.864Zm22.81 1.442c.31 1.416 1.136 1.921 2.84 1.921 1.499 0 2.326-.53 2.326-1.366 0-1.188-1.11-1.289-3.41-1.87-2.686-.683-4.417-1.265-5.218-1.821-1.498-1.037-2.222-2.502-2.222-4.374 0-3.666 2.946-6.043 8.086-6.043 4.985 0 7.93 2.15 8.266 5.967h-5.864c-.206-1.138-1.007-1.669-2.505-1.669-1.318 0-1.963.43-1.963 1.29 0 1.011 1.007 1.189 2.867 1.669 2.402.606 4.315.986 5.528 1.795C84.226 45.164 85 46.529 85 48.477 85 52.597 81.978 55 76.373 55c-5.193 0-8.241-2.402-8.628-6.447h6.045Z" fill="#C00"/></svg>