<svg xmlns="http://www.w3.org/2000/svg" viewBox="0 0 90 90"><path fill="#080F2C" d="M0 0h90v90H0z"/><g fill="#F43F45"><path d="M61.309 41.51a.144.144 0 0 1 .239.138.144.144 0 0 1-.133.11.144.144 0 0 1-.143-.096c-1.561-11.527-11.13-20.11-22.435-20.122h-17.58a.171.171 0 0 1-.087.319.17.17 0 0 1-.085-.319v-2.512a4.041 4.041 0 0 1 1.132-2.846 3.809 3.809 0 0 1 2.764-1.166h13.721c14.917-.507 27.44 11.054 29.017 26.31a.143.143 0 1 1 .176.177l-6.284-.01-.302.016Z"/><path d="M24.996 74.646a3.841 3.841 0 0 1-2.76-1.179 4.074 4.074 0 0 1-1.137-2.843V52.562a.143.143 0 0 1 .242-.12.143.143 0 0 1-.12.243h17.684a7.337 7.337 0 0 0 5.338-2.222 7.783 7.783 0 0 0 2.203-5.477c-.003-4.328-3.34-7.873-7.541-8.012H27.593v4.83a.16.16 0 0 1 .08-.297.16.16 0 0 1 .082.298h-6.499a.16.16 0 0 1-.08.298.16.16 0 0 1-.081-.298v-7.549c.006-2.212 1.747-4.005 3.897-4.01h13.913c7.81 0 14.14 6.517 14.14 14.556 0 8.04-6.33 14.558-14.14 14.558H27.593v8.853h11.155c9.635-.037 18.203-6.317 21.388-15.679h6.462a.187.187 0 1 1 .188.188C63.318 65.864 51.734 74.99 38.506 75L24.9 74.978l.096-.332Z"/></g></svg>