<svg xmlns="http://www.w3.org/2000/svg" viewBox="0 0 90 90"><defs><linearGradient x1="14.666%" y1="85.337%" x2="85.391%" y2="14.633%" id="a"><stop stop-color="#5AC3FF" offset="0%"/><stop stop-color="#0550C8" offset="100%"/></linearGradient></defs><path fill="#FFF" d="M0 0h90v90H0z"/><path d="M67.2 53.988c-7.839 13.583-23.57 20.53-38.893 17.176C12.985 67.81 1.597 54.926.154 39.312-1.29 23.697 7.544 8.945 21.993 2.842 36.44-3.264 53.18.684 63.375 12.601L42.415 48.91c-3.478 5.365-10.55 7.067-16.09 3.87-5.538-3.195-7.603-10.168-4.696-15.863l10.393-17.998a7.205 7.205 0 0 1 10.258-2.376 7.376 7.376 0 0 1 2.086 9.791l-10.22 17.69c-.579 1.005-1.777 1.545-2.897 1.159a2.414 2.414 0 0 1-1.314-3.476L40.29 23.765a2.414 2.414 0 0 0-4.154-2.395L25.782 39.311a7.202 7.202 0 0 0 2.637 9.84 7.206 7.206 0 0 0 9.842-2.636l10.393-18.019C51.967 22.758 50 15.422 44.26 12.11c-5.74-3.312-13.079-1.345-16.392 4.393l-10.393 18a16.681 16.681 0 0 0-1.719 12.552 16.695 16.695 0 0 0 20.786 12.012 16.718 16.718 0 0 0 10.026-7.763l19.898-34.492a35.97 35.97 0 0 1 .714 37.157l.02.02Z" transform="translate(9 9)" fill="url(#a)"/></svg>