<svg xmlns="http://www.w3.org/2000/svg" viewBox="0 0 90 90"><path fill="#FFF" d="M0 0h90v90H0z"/><path d="M45.257 15C28.83 15 15 28.415 15 44.968V76l30.25-.03C61.678 75.97 75 62.039 75 45.492 75 28.944 61.665 15 45.257 15Z"/><path d="M45.548 26.6c-6.497.003-12.512 3.45-15.836 9.074a18.7 18.7 0 0 0-.374 18.35L26 64.834l11.982-2.726a18.337 18.337 0 0 0 20.341-3.534c5.43-5.249 7.148-13.294 4.341-20.328-2.806-7.034-9.574-11.644-17.1-11.648h-.017Z" fill="#FFF9AE"/><path d="M59.966 56.67c-5.237 6.656-14.29 8.883-21.983 5.41L26 64.84l12.2-1.45c8.085 4.771 18.438 2.672 24.062-4.88 5.623-7.551 4.727-18.15-2.083-24.636 5.113 6.753 5.026 16.14-.212 22.796Z" fill="#00AEEF"/><path d="M58.935 53.141c-4.519 7.17-13.29 10.338-21.302 7.693L26 64.84l11.982-2.732c8.533 3.883 18.6.704 23.406-7.39 4.807-8.095 2.826-18.533-4.606-24.27 5.785 6.178 6.67 15.522 2.152 22.692Z" fill="#00A94F"/><path d="M30.44 54.435c-3.339-8.109-.587-17.465 6.598-22.433a18.336 18.336 0 0 1 23.152 1.866c-5.844-7.725-16.61-9.61-24.7-4.326-8.089 5.285-10.77 15.955-6.152 24.481L26 64.835l4.44-10.4Z" fill="#F15D22"/><path d="M29.338 54.023c-4.144-7.71-2.371-17.288 4.25-22.976a18.334 18.334 0 0 1 23.195-.599c-6.621-7.023-17.489-7.742-24.965-1.65-7.476 6.09-9.05 16.946-3.618 24.937l-2.193 11.106 3.33-10.818Z" fill="#D0232B"/></svg>