<svg xmlns="http://www.w3.org/2000/svg" viewBox="0 0 90 90"><path fill="#A2E771" d="M0 0h90v90H0z"/><path d="M39.856 21.27c-.77.698-1.62 1.52-2.593 2.479a3.618 3.618 0 0 1-2.164.77l-3.258.064.95-.95C38.546 17.878 41.424 15 45 15c3.576 0 6.454 2.878 12.21 8.633l.947.948-3.146-.06a3.618 3.618 0 0 1-2.388-.96l-1.887-1.745c-.179-.168-.354-.33-.524-.485l-.102-.094h-.002a27.82 27.82 0 0 0-1.784-1.505c-1.598-1.219-2.528-1.494-3.324-1.494-.796 0-1.726.275-3.324 1.494-.56.427-1.154.933-1.808 1.526l-.012.012Zm28.813 18.518a64.11 64.11 0 0 0-.484-.523l-1.746-1.888a3.617 3.617 0 0 1-.96-2.386l-.062-3.15.95.95C72.122 38.546 75 41.424 75 45c0 3.576-2.878 6.454-8.633 12.21l-.95.949.061-3.15c.017-.886.36-1.735.961-2.386l1.746-1.887.484-.524.094-.102v-.002a27.802 27.802 0 0 0 1.505-1.784c1.219-1.598 1.494-2.528 1.494-3.324 0-.796-.275-1.726-1.494-3.324-.422-.553-.92-1.14-1.505-1.784v-.002l-.094-.102ZM50.176 68.702c.192-.175.39-.358.593-.549l1.854-1.714a3.618 3.618 0 0 1 2.387-.96l3.148-.06-.949.948C51.454 72.122 48.576 75 45 75c-3.576 0-6.454-2.878-12.21-8.633l-.949-.95 3.156.061a3.618 3.618 0 0 1 2.379.953l1.272 1.17c1.162 1.113 2.14 1.988 3.028 2.667 1.598 1.219 2.528 1.494 3.324 1.494.796 0 1.726-.275 3.324-1.494.56-.427 1.154-.933 1.808-1.526l.044-.04ZM21.273 50.149c.193.212.395.43.607.655l1.681 1.819c.602.65.944 1.5.961 2.387l.06 3.149-.949-.95C17.878 51.454 15 48.576 15 45c0-3.576 2.878-6.454 8.633-12.21l.949-.948-.06 3.148a3.618 3.618 0 0 1-.961 2.388l-1.734 1.874a51.94 51.94 0 0 0-.497.538l-.093.1a28.286 28.286 0 0 0-1.505 1.786c-1.219 1.598-1.494 2.528-1.494 3.324 0 .796.275 1.726 1.494 3.324.428.56.933 1.154 1.527 1.808l.014.017Z"/><path d="m21.259 39.866 2.302-2.488a3.62 3.62 0 0 0 .943-2.087c.01-1.28.03-2.396.076-3.383l.003-.135c.047-.856.109-1.61.2-2.29.268-1.992.731-2.844 1.293-3.407.563-.562 1.416-1.025 3.408-1.293a27.81 27.81 0 0 1 2.333-.199l.049-.002a88.395 88.395 0 0 1 3.522-.08 3.618 3.618 0 0 0 2.156-.998l2.323-2.246h-1.342c-8.14 0-12.21 0-14.738 2.529-2.528 2.529-2.528 6.598-2.528 14.738v1.341Zm0 10.266v1.343c0 8.14 0 12.21 2.528 14.738 2.529 2.529 6.599 2.529 14.738 2.529h12.95c8.14 0 12.21 0 14.739-2.529 2.528-2.528 2.528-6.598 2.528-14.738v-1.342l-2.303 2.49a3.62 3.62 0 0 0-.942 2.081 86.44 86.44 0 0 1-.08 3.447v.03l-.001.002a27.76 27.76 0 0 1-.198 2.334c-.268 1.992-.731 2.844-1.294 3.407-.562.563-1.415 1.025-3.407 1.293-.679.092-1.434.154-2.286.196l-.004.004-.118.002c-.991.047-2.114.068-3.401.078a3.62 3.62 0 0 0-2.085.942l-2.49 2.303H39.89l-2.514-2.31a3.616 3.616 0 0 0-2.075-.935 87.218 87.218 0 0 1-3.438-.08h-.045l-.001-.001a27.822 27.822 0 0 1-2.333-.199c-1.992-.268-2.845-.73-3.408-1.293-.562-.563-1.025-1.415-1.293-3.407a27.824 27.824 0 0 1-.198-2.334l-.002-.001-.001-.06a87.21 87.21 0 0 1-.078-3.415 3.618 3.618 0 0 0-.943-2.084l-2.302-2.49Zm44.238-14.836c.08.774.41 1.505.942 2.081l2.303 2.49v-1.342c0-8.14 0-12.21-2.528-14.738-2.53-2.529-6.599-2.529-14.739-2.529h-1.342l2.49 2.303a3.618 3.618 0 0 0 2.088.943 88.59 88.59 0 0 1 3.365.075l.196.004.006.006a27.49 27.49 0 0 1 2.24.194c1.991.268 2.844.73 3.406 1.293.563.563 1.026 1.415 1.294 3.407.093.692.156 1.462.198 2.334v.001l.002.031c.048 1.002.07 2.14.079 3.447Zm-22.953-4.64L40.36 32.51c-.39.33-.878.523-1.388.546l-3.655.17 1.906-1.905c3.678-3.679 5.518-5.518 7.803-5.518s4.125 1.84 7.803 5.518l1.894 1.894-3.706-.16a2.313 2.313 0 0 1-1.41-.56l-1.648-1.422a19.794 19.794 0 0 0-1.517-1.317c-.918-.7-1.266-.715-1.416-.715-.15 0-.498.015-1.416.715l-.043.034h-.003l-.021.019c-.308.238-.636.518-1 .847Z"/><path d="M60.125 43.405c-.624-.79-1.52-1.72-2.816-3.024a2.31 2.31 0 0 1-.35-1.133l-.16-3.958 1.883 1.883c3.678 3.679 5.517 5.518 5.517 7.804 0 2.285-1.839 4.124-5.517 7.803l-1.894 1.893.183-3.782c.025-.526.23-1.027.578-1.421l1.385-1.565c.437-.465.8-.872 1.103-1.247l.17-.193v-.023l.04-.05c.7-.917.715-1.265.715-1.415 0-.15-.016-.499-.716-1.416l-.038-.05v-.02l-.083-.086Zm-30.272.102 2.524-2.745c.358-.39.571-.889.605-1.416l.14-2.155a21.39 21.39 0 0 1 .114-1.761l.01-.153.01-.01.007-.052c.154-1.143.388-1.4.495-1.507.106-.106.363-.34 1.507-.495.367-.049.774-.084 1.236-.11l3.101-.305c.498-.05.966-.258 1.334-.596l2.62-2.4h-2.668c-5.202 0-7.803 0-9.42 1.617-1.376 1.377-1.58 3.469-1.61 7.274-.005.662-.005 1.375-.005 2.145v2.669Z"/><path d="M29.853 46.446v2.669c0 .77 0 1.483.005 2.145.03 3.806.234 5.898 1.61 7.274 1.377 1.377 3.47 1.58 7.275 1.611.662.005 1.375.005 2.145.005h8.277c.77 0 1.483 0 2.144-.005 3.806-.03 5.898-.234 7.275-1.61 1.616-1.617 1.616-4.218 1.616-9.42v-2.677l-2.69 2.918a2.3 2.3 0 0 0-.549 1.026c-.005 1.89-.03 3.206-.154 4.218l-.001.054-.006.006-.01.078c-.154 1.144-.389 1.4-.495 1.507-.107.106-.364.341-1.507.495a8.825 8.825 0 0 1-.078.01l-.007.007-.09.005a22.69 22.69 0 0 1-2.07.126l-1.844.113a2.312 2.312 0 0 0-1.414.596l-2.812 2.553h-2.94l-2.81-2.628a2.313 2.313 0 0 0-1.344-.611c-.217 0-.427-.002-.629-.004-1.515-.012-2.614-.05-3.485-.167-1.144-.154-1.401-.389-1.507-.495-.107-.106-.341-.363-.495-1.507a11.227 11.227 0 0 1-.007-.052l-.01-.01v-.021l-.004-.087c-.103-.861-.136-1.94-.147-3.405l-.016-.375a2.312 2.312 0 0 0-.6-1.457l-2.626-2.885Zm27.081-9.12.152 2.056c.038.52.25 1.01.602 1.393l2.512 2.74v-2.677c0-5.202 0-7.803-1.616-9.419-1.616-1.616-4.217-1.616-9.42-1.616h-2.691l2.696 2.456c.378.344.859.553 1.368.595l3.127.256c.298.018.574.04.83.068l.232.019.01.01.052.006c1.143.154 1.4.389 1.507.495.106.106.34.364.495 1.507.078.583.12 1.268.144 2.111Z"/><path d="m33.255 54.665-.01-.01.001.021.01.01zm2.085 2.085 3.41.157c-1.471-.011-2.55-.048-3.41-.157Z"/><path d="M33.11 50.942a2.313 2.313 0 0 0-.064-.452c.018.098.028.197.033.298l.016.375c.01 1.464.044 2.544.147 3.405l.003.087.01.01-.144-3.723Zm-7.257-5.965c0 1.947 1.335 3.57 4.005 6.283-.005-.662-.005-1.375-.005-2.145v-2.66l-.006-.006v-.003a6.787 6.787 0 0 1-.041-.054c-.7-.917-.716-1.265-.716-1.415 0-.15.016-.499.716-1.416.015-.02.03-.04.047-.06v-2.663c0-.77 0-1.483.005-2.145-2.67 2.713-4.005 4.336-4.005 6.284Zm17.757 15.22a23.53 23.53 0 0 1-.039-.03l-.025-.017h-2.658c-.77 0-1.483 0-2.145-.005 2.713 2.67 4.336 4.005 6.283 4.005s3.57-1.335 6.283-4.005c-.661.005-1.374.005-2.144.005h-2.663l-.06.047c-.918.7-1.266.716-1.416.716-.15 0-.498-.016-1.416-.716Z"/></svg>