<svg xmlns="http://www.w3.org/2000/svg" viewBox="0 0 90 90"><path fill="#012169" d="M0 0h90v90H0z"/><path d="M72.317 34.37c-1.793-4-4.225-7.285-7.302-9.855-3.077-2.566-6.673-4.46-10.793-5.681C50.1 17.61 45.683 17 40.965 17c-2.868 0-5.42.085-7.659.261-2.24.176-4.463.268-6.673.268H18.49c-.3 0-.641.013-1.032.044-.387.03-.757.091-1.115.183a2.48 2.48 0 0 0-.94.46c-.27.215-.403.503-.403.872 0 .488.192.783.579.875.387.091 1.088.196 2.104.318a33.33 33.33 0 0 0 1.922.14c.685.03 1.344.09 1.969.182s1.145.244 1.565.461c.417.214.629.533.629.963V65.14c0 1.346-.12 2.383-.358 3.115-.238.736-.549 1.299-.94 1.699-.386.396-.82.674-1.296.827a8.064 8.064 0 0 1-1.433.322c-1.373.244-2.266.549-2.683.915-.417.366-.625.736-.625 1.102 0 .47.208.735.625.793.417.057.744.088.983.088a49.34 49.34 0 0 0 3.844-.176 53.213 53.213 0 0 1 4.208-.177h21.139c3.82 0 7.417-.657 10.792-1.969 3.375-1.315 6.316-3.098 8.824-5.363a25.376 25.376 0 0 0 5.955-7.976A22.226 22.226 0 0 0 75 48.624c0-5.502-.897-10.251-2.687-14.255h.004Zm-6.938 20.8c-.837 2.413-1.942 4.522-3.319 6.325a23.254 23.254 0 0 1-4.668 4.627c-1.737 1.285-3.47 2.309-5.208 3.071-1.733.763-3.41 1.329-5.028 1.695-1.618.37-3.024.553-4.219.553a16.18 16.18 0 0 1-4.218-.553c-1.38-.366-2.604-.932-3.683-1.695a8.8 8.8 0 0 1-2.603-2.888c-.659-1.16-.986-2.536-.986-4.125V22.67c0-.305.043-.64.135-1.007.09-.366.374-.688.854-.962.48-.275 1.227-.505 2.243-.688 1.016-.183 2.452-.275 4.308-.275 1.856 0 3.831.23 5.925.688a28.059 28.059 0 0 1 6.194 2.156c2.035.98 3.993 2.2 5.88 3.664a24.885 24.885 0 0 1 4.982 5.228c1.439 2.017 2.574 4.308 3.41 6.874.838 2.566 1.258 5.407 1.258 8.522s-.42 5.885-1.257 8.298Z" fill="#FFF"/></svg>