<svg xmlns="http://www.w3.org/2000/svg" viewBox="0 0 90 90"><path fill="#FFF" d="M0 0h90v90H0z"/><path d="M62.138 50.505c0 .982.03 1.952.119 2.825h-3.263a17.728 17.728 0 0 1-.119-2.126c-1.764 2.086-3.862 2.686-6.773 2.686-4.318 0-6.63-2.196-6.63-4.736 0-3.678 3.145-4.975 8.603-5.096 1.493-.033 3.17-.038 4.555-.038v-.359c0-2.463-1.641-3.475-4.485-3.475-2.11 0-3.667.84-3.827 2.293h-3.686c.39-3.622 4.345-4.538 7.822-4.538 4.166 0 7.684 1.426 7.684 5.666v6.898Zm-7.822-4.184c-3.181.1-5.157.653-5.157 2.67 0 1.304 1.08 2.72 3.826 2.72 3.68 0 5.645-1.931 5.645-5.097v-.349c-1.29 0-2.881.011-4.314.056Z" fill="#F5AF02"/><path d="M13.572 46.77c.19 3.064 2.385 4.876 5.404 4.876 2.092 0 3.952-.82 4.575-2.604h3.618c-.703 3.62-4.7 4.848-8.14 4.848-6.257 0-9.029-3.315-9.029-7.786 0-4.922 2.868-8.163 9.085-8.163 4.95 0 8.575 2.492 8.575 7.932v.897H13.572Zm10.403-2.245c-.136-3.158-2.505-4.34-5.036-4.34-2.73 0-4.91 1.33-5.29 4.34h10.326Z" fill="#E53238"/><path d="M27.655 32h3.508v8.48c1.718-1.972 4.087-2.544 6.418-2.544 3.908 0 8.25 2.538 8.25 8.018 0 4.589-3.453 7.931-8.315 7.931-2.545 0-4.941-.878-6.418-2.619 0 .695-.041 1.396-.12 2.06h-3.442a67.5 67.5 0 0 0 .12-3.487V32Zm8.999 19.577c3.26 0 5.49-2.258 5.49-5.666 0-3.407-2.23-5.666-5.49-5.666-3.242 0-5.491 2.259-5.491 5.666 0 3.408 2.249 5.666 5.49 5.666Z" fill="#0064D2"/><path fill="#86B817" d="M80 38.502 69.154 59h-3.928l3.119-5.692-8.163-14.806h4.104l6.007 11.568 5.989-11.568z"/><path d="M62.138 50.505c0 .982.03 1.952.119 2.825h-3.263a17.728 17.728 0 0 1-.119-2.126c-1.764 2.086-3.862 2.686-6.773 2.686-4.318 0-6.63-2.196-6.63-4.736 0-3.678 3.145-4.975 8.603-5.096 1.493-.033 3.17-.038 4.555-.038v-.359c0-2.463-1.641-3.475-4.485-3.475-2.11 0-3.667.84-3.827 2.293h-3.686c.39-3.622 4.345-4.538 7.822-4.538 4.166 0 7.684 1.426 7.684 5.666v6.898Zm-7.822-4.184c-3.181.1-5.157.653-5.157 2.67 0 1.304 1.08 2.72 3.826 2.72 3.68 0 5.645-1.931 5.645-5.097v-.349c-1.29 0-2.881.011-4.314.056Z" fill="#F5AF02"/><path d="M13.572 46.77c.19 3.064 2.385 4.876 5.404 4.876 2.092 0 3.952-.82 4.575-2.604h3.618c-.703 3.62-4.7 4.848-8.14 4.848-6.257 0-9.029-3.315-9.029-7.786 0-4.922 2.868-8.163 9.085-8.163 4.95 0 8.575 2.492 8.575 7.932v.897H13.572Zm10.403-2.245c-.136-3.158-2.505-4.34-5.036-4.34-2.73 0-4.91 1.33-5.29 4.34h10.326Z" fill="#E53238"/><path d="M27.655 32h3.508v8.48c1.718-1.972 4.087-2.544 6.418-2.544 3.908 0 8.25 2.538 8.25 8.018 0 4.589-3.453 7.931-8.315 7.931-2.545 0-4.941-.878-6.418-2.619 0 .695-.041 1.396-.12 2.06h-3.442a67.5 67.5 0 0 0 .12-3.487V32Zm8.999 19.577c3.26 0 5.49-2.258 5.49-5.666 0-3.407-2.23-5.666-5.49-5.666-3.242 0-5.491 2.259-5.491 5.666 0 3.408 2.249 5.666 5.49 5.666Z" fill="#0064D2"/><path fill="#86B817" d="M80 38.502 69.154 59h-3.928l3.119-5.692-8.163-14.806h4.104l6.007 11.568 5.989-11.568z"/></svg>