<svg xmlns="http://www.w3.org/2000/svg" viewBox="0 0 90 90"><path fill="#FF4C5C" d="M0 0h90v90H0z"/><path d="M24.52 15c-.84 0-1.52.674-1.52 1.505v8.99c0 .831.68 1.505 1.52 1.505H63.1c.691 0 1.296-.462 1.471-1.124l2.379-8.99c.252-.953-.475-1.886-1.472-1.886H24.521Zm9.659 60H24.52c-.84 0-1.52-.674-1.52-1.505v-32.99c0-.831.68-1.505 1.52-1.505h34.61c.996 0 1.723.932 1.47 1.886l-2.378 8.99A1.518 1.518 0 0 1 56.751 51H37.22c-.84 0-1.521.674-1.521 1.505v20.99c0 .831-.681 1.505-1.521 1.505Z" fill="#FFF"/></svg>