<svg xmlns="http://www.w3.org/2000/svg" xmlns:xlink="http://www.w3.org/1999/xlink" viewBox="0 0 90 90"><defs><path d="M22.606 0a.828.828 0 0 0-.123.012C-.767 1.752-.442 23.996.183 33.044c.05.73 3.484 26.944 5.993 26.956 3.463.016 1.732-4.708 1.732-4.708s5.347 1.552 14.575 1.612h.249c9.225-.06 14.573-1.612 14.573-1.612s-1.732 4.724 1.73 4.708c2.508-.012 5.945-26.226 5.997-26.956.625-9.048.95-31.292-22.3-33.032 0 0-.068-.012-.112-.012h-.014" id="a"/><path d="M22.606 0a.828.828 0 0 0-.123.012C-.767 1.752-.442 23.996.183 33.044c.05.73 3.484 26.944 5.993 26.956 3.463.016 1.732-4.708 1.732-4.708s5.347 1.552 14.575 1.612h.249c9.225-.06 14.573-1.612 14.573-1.612s-1.732 4.724 1.73 4.708c2.508-.012 5.945-26.226 5.997-26.956.625-9.048.95-31.292-22.3-33.032 0 0-.068-.012-.112-.012h-.014" id="d"/><path d="M22.606 0a.828.828 0 0 0-.123.012C-.767 1.752-.442 23.996.183 33.044c.05.73 3.484 26.944 5.993 26.956 3.463.016 1.732-4.708 1.732-4.708s5.347 1.552 14.575 1.612h.249c9.225-.06 14.573-1.612 14.573-1.612s-1.732 4.724 1.73 4.708c2.508-.012 5.945-26.226 5.997-26.956.625-9.048.95-31.292-22.3-33.032 0 0-.068-.012-.112-.012h-.014" id="f"/><path d="M22.606 0a.828.828 0 0 0-.123.012C-.767 1.752-.442 23.996.183 33.044c.05.73 3.484 26.944 5.993 26.956 3.463.016 1.732-4.708 1.732-4.708s5.347 1.552 14.575 1.612h.249c9.225-.06 14.573-1.612 14.573-1.612s-1.732 4.724 1.73 4.708c2.508-.012 5.945-26.226 5.997-26.956.625-9.048.95-31.292-22.3-33.032 0 0-.068-.012-.112-.012h-.014" id="h"/><path d="M22.606 0a.828.828 0 0 0-.123.012C-.767 1.752-.442 23.996.183 33.044c.05.73 3.484 26.944 5.993 26.956 3.463.016 1.732-4.708 1.732-4.708s5.347 1.552 14.575 1.612h.249c9.225-.06 14.573-1.612 14.573-1.612s-1.732 4.724 1.73 4.708c2.508-.012 5.945-26.226 5.997-26.956.625-9.048.95-31.292-22.3-33.032 0 0-.068-.012-.112-.012h-.014" id="j"/><path d="M22.606 0a.828.828 0 0 0-.123.012C-.767 1.752-.442 23.996.183 33.044c.05.73 3.484 26.944 5.993 26.956 3.463.016 1.732-4.708 1.732-4.708s5.347 1.552 14.575 1.612h.249c9.225-.06 14.573-1.612 14.573-1.612s-1.732 4.724 1.73 4.708c2.508-.012 5.945-26.226 5.997-26.956.625-9.048.95-31.292-22.3-33.032 0 0-.068-.012-.112-.012h-.014" id="l"/><path d="M22.606 0a.828.828 0 0 0-.123.012C-.767 1.752-.442 23.996.183 33.044c.05.73 3.484 26.944 5.993 26.956 3.463.016 1.732-4.708 1.732-4.708s5.347 1.552 14.575 1.612h.249c9.225-.06 14.573-1.612 14.573-1.612s-1.732 4.724 1.73 4.708c2.508-.012 5.945-26.226 5.997-26.956.625-9.048.95-31.292-22.3-33.032 0 0-.068-.012-.112-.012h-.014" id="n"/><path d="M22.606 0a.828.828 0 0 0-.123.012C-.767 1.752-.442 23.996.183 33.044c.05.73 3.484 26.944 5.993 26.956 3.463.016 1.732-4.708 1.732-4.708s5.347 1.552 14.575 1.612h.249c9.225-.06 14.573-1.612 14.573-1.612s-1.732 4.724 1.73 4.708c2.508-.012 5.945-26.226 5.997-26.956.625-9.048.95-31.292-22.3-33.032 0 0-.068-.012-.112-.012h-.014" id="p"/><path d="M22.606 0a.828.828 0 0 0-.123.012C-.767 1.752-.442 23.996.183 33.044c.05.73 3.484 26.944 5.993 26.956 3.463.016 1.732-4.708 1.732-4.708s5.347 1.552 14.575 1.612h.249c9.225-.06 14.573-1.612 14.573-1.612s-1.732 4.724 1.73 4.708c2.508-.012 5.945-26.226 5.997-26.956.625-9.048.95-31.292-22.3-33.032 0 0-.068-.012-.112-.012h-.014" id="r"/><path d="M22.606 0a.828.828 0 0 0-.123.012C-.767 1.752-.442 23.996.183 33.044c.05.73 3.484 26.944 5.993 26.956 3.463.016 1.732-4.708 1.732-4.708s5.347 1.552 14.575 1.612h.249c9.225-.06 14.573-1.612 14.573-1.612s-1.732 4.724 1.73 4.708c2.508-.012 5.945-26.226 5.997-26.956.625-9.048.95-31.292-22.3-33.032 0 0-.068-.012-.112-.012h-.014" id="t"/><path d="M22.606 0a.828.828 0 0 0-.123.012C-.767 1.752-.442 23.996.183 33.044c.05.73 3.484 26.944 5.993 26.956 3.463.016 1.732-4.708 1.732-4.708s5.347 1.552 14.575 1.612h.249c9.225-.06 14.573-1.612 14.573-1.612s-1.732 4.724 1.73 4.708c2.508-.012 5.945-26.226 5.997-26.956.625-9.048.95-31.292-22.3-33.032 0 0-.068-.012-.112-.012h-.014" id="v"/><path d="M22.606 0a.828.828 0 0 0-.123.012C-.767 1.752-.442 23.996.183 33.044c.05.73 3.484 26.944 5.993 26.956 3.463.016 1.732-4.708 1.732-4.708s5.347 1.552 14.575 1.612h.249c9.225-.06 14.573-1.612 14.573-1.612s-1.732 4.724 1.73 4.708c2.508-.012 5.945-26.226 5.997-26.956.625-9.048.95-31.292-22.3-33.032 0 0-.068-.012-.112-.012h-.014" id="x"/><path id="z" d="M.876 1.067.358.691 0 1.007l.86.962h.002L2.402.395 2.129.031z"/><path d="M0 3.957a3.964 3.964 0 0 0 1.968 3.431c1.218.708 2.72.71 3.94.003A3.964 3.964 0 0 0 7.88 3.963C7.882 1.776 6.119.002 3.943 0 1.767-.002.002 1.77 0 3.957m1.767-1.26 2.17-.93 2.17.93s-.143 3.448-2.169 3.448c-2.026 0-2.17-3.446-2.17-3.446" id="C"/><linearGradient x1="50%" y1="-2.782%" x2="50%" y2="99.64%" id="b"><stop stop-color="#5EB8E6" offset="0%"/><stop stop-color="#26A8DF" offset="100%"/></linearGradient><linearGradient x1=".001%" y1="49.999%" x2="100.006%" y2="49.999%" id="A"><stop stop-color="#8CC63F" offset="0%"/><stop stop-color="#38B549" offset="100%"/></linearGradient><linearGradient x1="-.001%" y1="49.999%" x2="100.001%" y2="49.999%" id="D"><stop stop-color="#8CC63F" offset="0%"/><stop stop-color="#38B549" offset="100%"/></linearGradient></defs><path fill="#FFF" d="M0 0h90v90H0z"/><g transform="translate(22 15)"><mask id="c" fill="#fff"><use xlink:href="#a"/></mask><path d="M22.606 0a.828.828 0 0 0-.123.012C-.767 1.752-.442 23.996.183 33.044c.05.73 3.484 26.944 5.993 26.956 3.463.016 1.732-4.708 1.732-4.708s5.347 1.552 14.575 1.612h.249c9.225-.06 14.573-1.612 14.573-1.612s-1.732 4.724 1.73 4.708c2.508-.012 5.945-26.226 5.997-26.956.625-9.048.95-31.292-22.3-33.032 0 0-.068-.012-.112-.012h-.014" fill="url(#b)" mask="url(#c)"/></g><g transform="translate(22 15)"><mask id="e" fill="#fff"><use xlink:href="#d"/></mask><path d="M32.345 23.24a2.079 2.079 0 0 0 2.07-2.08 2.077 2.077 0 0 0-2.07-2.08 2.079 2.079 0 0 0-2.07 2.08 2.077 2.077 0 0 0 2.07 2.08" fill="#1A1A1A" mask="url(#e)"/></g><g transform="translate(22 15)"><mask id="g" fill="#fff"><use xlink:href="#f"/></mask><path d="M33.165 20.904a.61.61 0 0 0 .56-.61.61.61 0 0 0-.56-.61.61.61 0 0 0-.56.61.61.61 0 0 0 .56.61" fill="#FFF" mask="url(#g)"/></g><g transform="translate(22 15)"><mask id="i" fill="#fff"><use xlink:href="#h"/></mask><path d="M12.761 23.24a2.079 2.079 0 0 0 2.07-2.08 2.077 2.077 0 0 0-2.07-2.08 2.079 2.079 0 0 0-2.07 2.08 2.077 2.077 0 0 0 2.07 2.08" fill="#1A1A1A" mask="url(#i)"/></g><g transform="translate(22 15)"><mask id="k" fill="#fff"><use xlink:href="#j"/></mask><path d="M13.703 20.904a.61.61 0 0 0 .56-.61.61.61 0 0 0-.56-.61.608.608 0 0 0-.607.61c0 .337.271.61.607.61" fill="#FFF" mask="url(#k)"/></g><g transform="translate(22 15)"><mask id="m" fill="#fff"><use xlink:href="#l"/></mask><path d="M26.1 27.176a.541.541 0 0 0-.76.062c-.01.012-.987 1.114-2.764 1.114-1.894 0-2.65-.966-2.726-1.068a.54.54 0 0 0-.753-.141.546.546 0 0 0-.14.757c.041.062 1.062 1.54 3.621 1.54 2.293 0 3.533-1.432 3.584-1.492a.55.55 0 0 0-.06-.772" fill="#1A1A1A" mask="url(#m)"/></g><g transform="translate(22 15)"><mask id="o" fill="#fff"><use xlink:href="#n"/></mask><path d="M33.504 40.992 22.7 47.402l-10.806-6.41v-.018c.01-.04.607-.54 1.516-1.284l.024-.02c2.985-2.44 9.266-7.43 9.266-7.43s6.28 4.992 9.263 7.428c.924.754 1.533 1.264 1.54 1.306v.02" fill="#A7A9AC" mask="url(#o)"/></g><g transform="translate(22 15)"><mask id="q" fill="#fff"><use xlink:href="#p"/></mask><path d="M18.336 48.34h11.66c.48 0 .94-.192 1.28-.534.34-.342.53-.805.53-1.288v-12.94c0-1.005-.81-1.82-1.81-1.82H15.387c-1 0-1.81.815-1.81 1.82v9.972l4.758 4.79Z" fill="#FFF" mask="url(#q)"/></g><g transform="translate(22 15)"><mask id="s" fill="#fff"><use xlink:href="#r"/></mask><path d="M33.506 41.054v10.43a1.325 1.325 0 0 1-1.318 1.324h-18.98a1.32 1.32 0 0 1-1.314-1.324v-10.43l10.806 6.41 10.806-6.41Z" fill="#D1D3D4" mask="url(#s)"/></g><g transform="translate(22 15)"><mask id="u" fill="#fff"><use xlink:href="#t"/></mask><path d="m33.137 52.4-6.955-7-3.484 2.068-3.489-2.068-6.955 6.996a1.3 1.3 0 0 0 .951.416h18.981c.36-.001.705-.152.951-.416" fill="#F4F4F4" mask="url(#u)"/></g><g transform="translate(22 15)"><mask id="w" fill="#fff"><use xlink:href="#v"/></mask><path d="M.487 35.514c.24 5.696 2.326 12.314 6.977 14.558 4.553 2.194 11.908 1.44 11.958-.06.028-.814-.75-.582-.7-1.26.065-.916 1.572-.444 1.468-1.516-.085-.868-1.566-.32-1.624-1.18-.075-1.092 1.362-.9.667-1.952-.695-1.05-2.468 1.79-7.638.33-4.662-1.318-6.244-4.714-6.915-9.74-.67-5.03-4.378-3.584-4.193.82m44.332 0c-.239 5.696-2.324 12.314-6.977 14.558-4.553 2.194-11.909 1.44-11.958-.06-.026-.814.75-.582.7-1.26-.065-.916-1.574-.444-1.468-1.516.085-.868 1.568-.32 1.625-1.18.074-1.092-1.36-.9-.668-1.952.696-1.05 2.467 1.79 7.638.33 4.662-1.318 6.244-4.714 6.915-9.74.67-5.03 4.378-3.584 4.193.82" fill="#179BC9" mask="url(#w)"/></g><g transform="translate(22 15)"><mask id="y" fill="#fff"><use xlink:href="#x"/></mask><path d="M.487 35.03c.24 5.696 2.326 12.316 6.977 14.56 4.553 2.194 11.908 1.44 11.958-.062.028-.814-.75-.58-.7-1.26.065-.916 1.572-.444 1.468-1.514-.085-.868-1.566-.32-1.624-1.18-.075-1.094 1.362-.902.667-1.952-.695-1.052-2.468 1.79-7.638.328-4.662-1.318-6.244-4.712-6.915-9.74-.67-5.03-4.378-3.584-4.193.82m44.332 0c-.239 5.696-2.324 12.316-6.977 14.56-4.553 2.194-11.909 1.44-11.958-.062-.026-.814.75-.58.7-1.26-.065-.916-1.574-.444-1.468-1.514.085-.868 1.568-.32 1.625-1.18.074-1.094-1.36-.902-.668-1.952.696-1.052 2.467 1.79 7.638.328 4.662-1.318 6.244-4.712 6.915-9.74.67-5.03 4.378-3.584 4.193.82" fill="#27AAE1" mask="url(#y)"/></g><g transform="translate(43.625 53.247)"><mask id="B" fill="#fff"><use xlink:href="#z"/></mask><path fill="url(#A)" mask="url(#B)" d="M.876 1.067.358.691 0 1.007l.86.962h.002L2.402.395 2.129.031z"/></g><g transform="translate(40.741 50.141)"><mask id="E" fill="#fff"><use xlink:href="#C"/></mask><path d="M0 3.957a3.964 3.964 0 0 0 1.968 3.431c1.218.708 2.72.71 3.94.003A3.964 3.964 0 0 0 7.88 3.963C7.882 1.776 6.119.002 3.943 0 1.767-.002.002 1.77 0 3.957m1.767-1.26 2.17-.93 2.17.93s-.143 3.448-2.169 3.448c-2.026 0-2.17-3.446-2.17-3.446" fill="url(#D)" mask="url(#E)"/></g></svg>