<svg xmlns="http://www.w3.org/2000/svg" viewBox="0 0 90 90"><path fill="#11172A" d="M0 0h90v90H0z"/><g transform="translate(13 11)"><path d="M17.983 58.343a28.131 28.131 0 0 1-6.318-4.918A7.03 7.03 0 0 1 9.72 55.1c-.412.231-.846.42-1.296.566 10.057 10.909 26.355 13.499 39.336 6.25a1.96 1.96 0 0 0 .993-1.702 1.96 1.96 0 0 0-.993-1.702 1.956 1.956 0 0 0-1.944-.033 28.226 28.226 0 0 1-27.834-.135Zm-.006-48.25a28.113 28.113 0 0 1 7.465-2.955 6.98 6.98 0 0 1-.35-3.99C10.557 6.353.161 19.082 0 33.87c.002.703.381 1.351.994 1.701.613.35 1.368.35 1.98-.001a1.93 1.93 0 0 0 .992-1.648c.106-9.843 5.432-18.901 14.01-23.83Zm42.065 24.125a27.693 27.693 0 0 1-1.154 7.898 7.07 7.07 0 0 1 2.476.85c.41.233.798.502 1.16.804 4.46-14.106-1.445-29.406-14.257-36.934a1.995 1.995 0 0 0-1.944.058 1.967 1.967 0 0 0-.96 1.68c-.007.684.35 1.32.94 1.673 8.52 5.021 13.741 14.132 13.739 23.971ZM32.007 20.971c5.395-.003 10.26 3.223 12.326 8.173a13.182 13.182 0 0 1-2.887 14.439 13.403 13.403 0 0 1-14.535 2.874c-4.984-2.05-8.234-6.88-8.234-12.239.007-7.31 5.97-13.236 13.33-13.247m0-3.933c-9.552 0-17.296 7.692-17.296 17.18s7.744 17.18 17.296 17.18c9.553 0 17.297-7.692 17.297-17.18a17.115 17.115 0 0 0-5.065-12.15 17.35 17.35 0 0 0-12.232-5.03Z" fill="#E6E7E8"/><ellipse fill="#F58320" cx="32.001" cy="4.583" rx="4.614" ry="4.583"/><ellipse fill="#F58320" cx="6.163" cy="49.029" rx="4.614" ry="4.583"/><ellipse fill="#F58320" cx="57.838" cy="49.029" rx="4.614" ry="4.583"/><path d="M35.83 31.083a3.805 3.805 0 0 0-3.168-3.746 3.827 3.827 0 0 0-4.256 2.464 3.786 3.786 0 0 0 1.722 4.584l-1.206 6.07a.64.64 0 0 0 .138.541.65.65 0 0 0 .51.232h4.906a.65.65 0 0 0 .511-.232.64.64 0 0 0 .137-.54l-1.212-6.07a3.787 3.787 0 0 0 1.919-3.303Z" fill="#F58320"/></g></svg>