<svg xmlns="http://www.w3.org/2000/svg" viewBox="0 0 90 90"><defs><linearGradient x1="50%" y1="0%" x2="50%" y2="100%" id="a"><stop stop-color="#1B1E23" offset="0%"/><stop offset="100%"/></linearGradient></defs><path fill="url(#a)" d="M0 0h90v90H0z"/><path d="m50.918 59.203.72-.09.722-.103.482-.078.48-.084.48-.092.477-.1.238-.053.474-.113.236-.06.469-.127c.156-.044.31-.09.465-.137l.462-.149.228-.078.454-.165.448-.176c4.675-1.92 8.344-5.889 8.344-14.527 0-3.585-1.272-6.507-3.343-8.765l.081-.22.063-.187.067-.218.07-.247.068-.277.033-.149.063-.32.057-.346.048-.373c.172-1.545.079-3.713-.953-6.293l-.155-.033-.197-.025-.201-.013-.16-.002-.28.008-.213.015-.234.026-.257.036-.278.05-.148.03-.312.07-.335.088c-.173.048-.355.103-.545.166l-.392.134c-.135.049-.274.1-.416.157l-.44.179c-.226.096-.46.2-.704.315l-.5.243c-.256.128-.52.267-.795.417l-.562.316c-.574.331-1.185.71-1.835 1.142-2.675-.73-5.617-1.195-8.358-1.195-2.81 0-5.752.466-8.36 1.195a37 37 0 0 0-.957-.609l-.605-.364a30.781 30.781 0 0 0-.293-.17l-.567-.315a25.52 25.52 0 0 0-.803-.417l-.504-.243a21.063 21.063 0 0 0-.243-.111l-.467-.204-.443-.18a16.484 16.484 0 0 0-.213-.08l-.407-.146a13.488 13.488 0 0 0-.566-.18l-.348-.096a10.972 10.972 0 0 0-.166-.041l-.314-.071-.149-.03-.28-.05-.257-.036-.236-.026-.214-.015-.193-.007-.248.001-.202.013-.197.025-.155.033c-.989 2.472-1.115 4.566-.972 6.097l.043.386.053.36.06.333.066.305.034.142.069.262.101.338.093.268.052.14c-2.073 2.257-3.344 5.179-3.344 8.764 0 9.324 4.274 13.207 9.474 14.946l.461.149.233.07.467.132c.156.042.313.083.47.122l.475.113.476.104.479.096.48.088.721.119.482.07.721.095c.08.01.16.02.24.028-.935.799-1.805 2.324-2.139 4.45l-.437.175-.38.137-.276.09-.292.087-.152.042-.314.079-.162.037-.334.066c-2.209.399-5.134.12-7.193-3.176l-.228-.38-.09-.138-.124-.181a7.567 7.567 0 0 0-.076-.104l-.177-.232c-.715-.897-2.13-2.282-4.191-2.519l-.32-.025-.186.005-.228.016-.198.024-.137.023-.137.03-.132.038a1.57 1.57 0 0 0-.063.023l-.119.051c-.449.225-.56.692.79 1.657l.181.125.135.072.229.141.149.103.168.126.186.15.202.175.214.203.226.231c.653.696 1.413 1.75 2.054 3.3l.212.538.12.257.079.155.144.26.056.092.122.194.139.204.075.104.163.214.18.22c1.422 1.658 4.366 3.584 10.054 2.356v5.642c0 .865-.668 1.86-2.34 1.595C21.429 71.619 12 59.27 12 44.797 12 26.672 26.777 12 45.034 12 63.222 12 78.067 26.672 78 44.797c0 14.473-9.43 26.755-22.535 31.138-1.673.332-2.34-.663-2.34-1.595v-9.094c0-3.056-1.005-5.045-2.207-6.043Z" fill="#FFF"/></svg>