<svg xmlns="http://www.w3.org/2000/svg" viewBox="0 0 90 90"><path d="m88.5 36.308-.126-.324-12.25-31.968a3.191 3.191 0 0 0-1.26-1.518 3.28 3.28 0 0 0-3.749.202 3.28 3.28 0 0 0-1.087 1.649l-8.27 25.305H28.265l-8.27-25.305a3.215 3.215 0 0 0-1.088-1.654 3.28 3.28 0 0 0-3.749-.202 3.22 3.22 0 0 0-1.26 1.519L1.626 35.966l-.122.323A22.746 22.746 0 0 0 9.05 62.578l.042.032.112.08 18.66 13.974 9.232 6.987 5.623 4.245a3.782 3.782 0 0 0 4.573 0l5.624-4.245 9.231-6.987 18.772-14.058.047-.038a22.755 22.755 0 0 0 7.535-26.26Z" fill="#E24329"/><path d="m88.5 36.308-.126-.324a41.378 41.378 0 0 0-16.472 7.404L45 63.73a24838.94 24838.94 0 0 0 17.137 12.952l18.772-14.058.047-.037a22.755 22.755 0 0 0 7.544-26.28Z" fill="#FC6D26"/><path d="m27.863 76.682 9.232 6.987 5.623 4.246a3.782 3.782 0 0 0 4.573 0l5.624-4.246 9.231-6.987S54.161 70.642 45 63.73c-9.161 6.912-17.137 12.952-17.137 12.952Z" fill="#FCA326"/><path d="M18.093 43.388a41.326 41.326 0 0 0-16.467-7.422l-.122.323A22.746 22.746 0 0 0 9.05 62.578l.042.032.112.08 18.66 13.974L45 63.712 18.093 43.388Z" fill="#FC6D26"/></svg>