<svg xmlns="http://www.w3.org/2000/svg" viewBox="0 0 90 90"><path fill="#FFF" d="M0 0h90v90H0z"/><path d="M66.755 20.42c-6.235-3.858-14.444-2.947-21.766 1.62-7.298-4.564-15.512-5.478-21.74-1.62-9.852 6.108-11.05 21.84-2.673 35.136 6.175 9.806 15.83 15.549 24.426 15.443 8.596.106 18.251-5.637 24.426-15.443 8.367-13.296 7.179-29.028-2.673-35.136ZM21.24 43.968a24.907 24.907 0 0 1-.84-8.277c.375-4.912 2.391-8.74 5.677-10.778 3.285-2.038 7.629-2.157 12.255-.338.703.28 1.391.596 2.062.946a37.542 37.542 0 0 0-6.642 7.92c-5.086 8.073-6.638 17.06-4.863 24.22a32.883 32.883 0 0 1-3.784-4.91 31.708 31.708 0 0 1-3.865-8.783Zm47.527 0a31.783 31.783 0 0 1-3.866 8.783 32.9 32.9 0 0 1-3.784 4.92c1.587-6.422.509-14.285-3.382-21.662a.986.986 0 0 0-1.406-.381l-12.13 7.52a.975.975 0 0 0-.315 1.355l1.78 2.823a.996.996 0 0 0 1.366.313l7.862-4.871c.254.756.509 1.5.7 2.27a24.92 24.92 0 0 1 .838 8.278c-.373 4.914-2.39 8.741-5.676 10.78a11.158 11.158 0 0 1-5.622 1.615h-.255a11.145 11.145 0 0 1-5.622-1.615c-3.288-2.039-5.305-5.866-5.679-10.78a24.987 24.987 0 0 1 .84-8.278 32.732 32.732 0 0 1 10.126-16.076 25.4 25.4 0 0 1 7.12-4.377c4.613-1.819 8.964-1.7 12.253.338 3.288 2.039 5.302 5.866 5.676 10.778a24.97 24.97 0 0 1-.824 8.267Z" fill="#1BDBDB"/></svg>