<svg xmlns="http://www.w3.org/2000/svg" viewBox="0 0 90 90"><path fill="#FFF" d="M0 0h90v90H0z"/><path d="M27.17 53.31C26.76 54.826 23.342 68.551 23 70l2.666-1.172c.342-1.449 2.666-11.104 3.076-12.622 3.35-13.242 6.29-23.519 13.468-28.415-7.178 8.345-10.255 22.208-12.989 33.174 5.81 1.448 11.622-2.759 12.305-8.69-1.982.276-4.033.897-5.879 1.655.068-4.552 3.828-3.724 7.383-4.62 4.854-1.242 6.836-2.415 8.135-8.484-1.504-.138-3.008-.207-4.443-.138-2.803.207-5.606.828-8.204 1.862-.205-7.035 9.708-4.62 13.878-5.655C59.437 35.032 64.291 28.066 66 21.307 41.526 15.1 32.502 31.86 27.17 53.31Z" fill="#0049DB"/></svg>