<svg xmlns="http://www.w3.org/2000/svg" viewBox="0 0 90 90"><path fill="#FF2E4C" d="M0 0h90v90H0z"/><g fill="#FFF"><path d="M61.426 29.243v41.164h-5.55V47.886H33.983v5.57h16.345v2.876c0 7.192-.011 14.385.007 21.577.001.448.025.804.076 1.086 6.208-1.026 11.848-3.754 16.445-7.696V42.348c0-4.365-.955-9.153-5.43-13.105Z"/><path d="M50.425 30.962h5.545V18.615c3.337.733 15.994 9.12 16.51 22.258v24.403A34.593 34.593 0 0 0 79 44.998C79 27.872 66.664 13.67 50.503 11a7.373 7.373 0 0 0-.07 1.12l-.008 18.842Z"/><path d="M28.387 60.752V19.588h5.55v22.521H55.83v-5.57H39.485v-2.876c0-7.192.011-14.385-.007-21.577A6.393 6.393 0 0 0 39.403 11c-6.209 1.026-11.85 3.754-16.446 7.696v28.951c0 4.365.955 9.153 5.43 13.105Z"/><path d="M39.575 59.038H34.03v12.347c-3.337-.733-15.994-9.12-16.51-22.258V24.724A34.592 34.592 0 0 0 11 45.002C11 62.128 23.336 76.33 39.497 79a7.44 7.44 0 0 0 .07-1.12l.008-18.842Z"/></g></svg>