<svg xmlns="http://www.w3.org/2000/svg" viewBox="0 0 90 90"><path fill="#2A2A2A" d="M0 0h90v90H0z"/><path d="M62.458 40c.184-.003.758.105.758.379.111 0 .048.96-.01.96-.015.174-.252 1.257-.315 1.257-.012.084-.158.675-.199.675-.018.077-.262.868-.28.868 0 .03-.055.222-.072.222 0 .191-.131.506-.182.73-.082.364-.106.58-.224.933-.01.089-.167.674-.216.674-.021.067-.072.112-.072.167.032 0-.334.36-.334.286a.417.417 0 0 1-.38-.416c.002 0-.054-.177-.054-.194-.103-.13-.29-.05-.36.056a.93.93 0 0 0-.181.12c-.09.03-.145.074-.235.074 0 .04-.402.03-.46.12-.098 0-.134.198-.199.23 0 .08-.168.174-.235.194-.087.027-.154-.064-.216-.064-.025-.032-.21-.286-.217-.286 0-.122-.162-.25-.162-.379-.04 0-.301-.682-.325-.776-.017 0-.063-.148-.063-.176-.019 0-.24-.792-.28-.896-.057-.029-.095-.143-.19-.083-.02.041-.072.062-.072.111-.044 0-.153.598-.153.675-.035 0-.076.341-.127.341 0 .02-.154.472-.153.472 0 .154-.13.273-.171.434a.908.908 0 0 0-.154.203c-.043 0-.127.083-.19.092-.073.01-.185-.011-.225-.073-.283-.241-.014-.915-.433-.915 0 .037-.318.194-.361.194 0 .073-.314.06-.368.048-.123-.03-.223-.113-.327-.205 0-.166-.36-.32-.36-.49-.077-.057-.252-.517-.262-.517-.033-.23-.18-.579-.18-.794-.027 0-.259-.616-.28-.702-.063-.034-.136-.198-.19-.268-.166 0-.134.053-.126.25-.022 0-.008.12-.037.12 0 .04-.033.156-.09.156-.114.245-.419-.184-.47-.184 0-.019-.084-.167-.08-.167 0-.154-.063-.372-.09-.545-.05 0-.087-.388-.163-.388 0-.066-.09-.221-.117-.314 0-.065-.033-.229.044-.268 0-.046.09-.07.09-.092.033 0 .262-.075.262.018.096 0 .15.125.272.138.143-.176-.117-.391-.117-.545-.136-.066-.145-.116-.308-.13 0 .046-.295-.127-.324-.175-.034-.099-.056-.147-.059-.266-.005-.225.148-.319.266-.5.072 0 .285-.14.37-.167.221 0 .495.01.632.194.141 0 .226.443.289.443 0 .127.126.244.126.37.053 0 .073.305.117.305.013.074.15.554.18.554 0 .18.172.38.172.517.038 0 .151.457.175.525.118.342.263.701.34 1.055.05 0 .079.277.189.277 0 .101.416-.029.416-.175.04-.02.105-.168.117-.213.077-.04.154-.231.235-.304.095-.099.171-.167.315-.167.047.054.18.075.18.176.103.052.065.061.19 0 .03-.089.108-.167.108-.268.067 0 .09-.5.163-.5 0-.276.433-.664.686-.664 0-.015.286-.04.333-.046 0 .01.122-.109.127-.111.063-.277.1-.509.1-.804-.036 0-.004-.426.143-.449.145-.023.169.19.236.19.04.117.189.293.189.416.06.03.235.314.235.388.098 0 .379.894.379.998.099 0 .272.812.316.942 0 .275.116.665.28.887.227.16.35-.165.496-.24 0-.05.224-.536.225-.536 0-.06.071-.471.109-.471.02-.067.192-.416.261-.416 0-.084.1-.242.117-.351.094 0-.052-.582.036-.582 0-.19.305-.33.37-.517.003-.042.005-.287-.036-.287-.018-.164-.085-.3-.032-.5.02-.078.103-.46.186-.46.076-.245.472-.338.686-.398.123-.002-.1.028 0 0Zm15.478.259c.37.06.182.747-.059.848-.308.129-.489-.363-.32-.534.048-.05.078-.115.144-.175.079-.095.159-.072.235-.14.081.014-.018.017 0 0Zm-66.82.185c.135 0 .27.009.405.009 0 .001.1.046.117.046.009.018.08.065.1.065.05.036.25.37.235.37 0 .123.054.264.054.387-.03 0 .132.996.153 1.072 0 .16.08 1.764-.027 1.764 0 .296-.08.617-.081.929 0 .088.032.8.063.8 0 .19.072.422.072.6.068 0 .045.834.046.916.002.194.016.4-.036.59 0 .172.01.348-.036.517 0 .213-.045.414-.045.582-.035 0-.082.329-.163.37 0 .102-.252.36-.361.36 0 .113-.65.075-.65.018-.089 0-.304-.125-.36-.213-.165 0-.309-.591-.226-.591 0-.05.093-.24.162-.24.029-.043.19-.1.19-.12.154 0 .309-.147.352-.277.061 0 .045-.26.08-.26.034-.339.028-.658.028-.997.036 0-.28-.274-.28-.102-.187.038-.329.004-.523-.046-.053-.07-.2-.161-.2-.25a.48.48 0 0 1-.116-.175c-.106-.08-.174-.175-.298-.175 0-.076-2.094-.083-2.292-.083-.262.077-.704.182-.704.49-.12 0-.126 1.686-.116 1.874.02.354-.028.587-.11.842-.006 0-.209.256-.217.268-.106 0-.212.148-.37.148 0 .048-.486.04-.486-.01-.096-.013-.194-.138-.272-.138-.048-.065-.333-.592-.135-.592 0-.106.297-.218.361-.24.007-.013.22-.23.208-.23.018-.096.063-.164.063-.26.066 0-.018-.957-.018-1.062v-.594c0-.153.072-.319.072-.45.066 0 .179-.461.343-.461.049-.074.47-.28.47-.305.187-.05.424-.204.654-.204a3.5 3.5 0 0 0 .551-.056c.444-.073.93-.017 1.379-.017.672 0 1.13.006 1.64.554.087 0 .136.126.252.13.058-.069.1-.09.1-.185.018 0 .054-.233.054-.268.1 0-.018-.567-.018-.61-.103-.296-.252-.298-.496-.24 0 .033-.153.05-.153.083-.07.023-.452.139-.452.046-.091 0-.14-.141-.207-.176 0-.012-.037-.129-.036-.129-.024-.084.036-.174.036-.24.032 0 .076-.222.126-.222.05-.143.248-.232.325-.351.106 0 .15-.268.19-.268 0-.405-.228-.783.099-1.035.073 0 .118-.047.217-.014.15.05.157-.087.198-.087.041-.14-.072-.261-.144-.351-.118 0-.267-.296-.307-.296 0-.04-.03-.07-.04-.126-.028-.144-.005-.296-.005-.428.005 0 .054-.18.054-.203.004 0 .185-.251.207-.278.017 0 .323-.192.323-.175.107 0 0 .003 0 0Zm27.182.027c.08.03.153-.016.23.043-.006-.004.089.087.077.087.064.166-.086.204-.135.305-.075 0-.162.11-.235.11 0 .076-.515.214-.36-.167.03-.073.297-.319.297-.331.042-.014.085-.03.126-.047.041.015 0 .003 0 0Zm46.37.047c.39-.004.363.692.271.692 0 .031-.077.26-.09.26 0 .105-.1.169-.127.276a.847.847 0 0 0-.144.167c-.165.056-.403.22-.496-.05-.089-.255.08-.389.08-.56.015 0 .1-.224.1-.259.006 0 .108-.244.108-.277-.026 0 .298-.306.298-.25.195-.001 0 .004 0 0Zm-5.018.147c.405.007.66.62.66.915.04 0 .08.323.126.323 0 .067.055.158.076.238.05.199-.069.461-.308.27-.083-.068-.159-.224-.228-.258-.017-.055-.081-.19-.127-.213-.018-.058-.168-.434-.199-.434 0-.091-.098-.171-.135-.286-.08-.04-.094-.313-.054-.407-.03 0 .19-.18.19-.148.111.002 0 .004 0 0Zm-73.652.037c.153 0 .313-.01.397.12.038.033.182.268.18.268 0 .132.059.3.074.472.04.45.015.92.007 1.37-.004.185.009.94.316.94.057.115.264.146.334.313 0 .025.042.194-.009.194 0 .048-.063.092-.063.139-.137.092-.206.152-.394.17-.061.006-.463-.037-.463-.087-.18 0-.348-.228-.496-.351 0-.019-.113-.194-.109-.194 0-.083-.063-.167-.063-.277-.077 0 .045-1.775.045-1.975 0-.28.003-.584.076-.853.016-.056.029-.16.078-.184.007-.01.09-.075.09-.065.076 0 0 .003 0 0Zm23.862 1.321c-.055.048-.22.047-.298.102a.748.748 0 0 0-.235.259c-.241.45-.217.941-.063 1.413.076.23.503.37.695.37.22.001.413-.11.578-.24.278-.222.65-.71.59-1.099-.07-.437-.734-.788-1.118-.8l-.149-.005Zm-.081-1.025c.416 0 .756.134 1.1.37.158.107.297.228.441.355.17.148.215.49.272.693.04.138.008.311.01.455.005.244.009.52-.05.76-.045.181-.085.356-.185.518-.19.304-.473.463-.812.55-.266.067-.546-.014-.813.068-.202.063-.403.151-.618.079-.345-.116-.615-.45-.771-.772-.175-.36-.109-.818-.109-1.208 0-.267-.03-.565.037-.824a1.1 1.1 0 0 1 .23-.434c.208-.257.44-.41.753-.499.16-.055.374-.043.515-.11Zm2.436.36c.11-.029.134-.095.285-.033.067.027.162.209.194.209.046.145.198.228.235.379.07.036.17.298.189.378.121 0 .18.664.18.76.005.614-.08 1.318-.703 1.594-.095.041-.163.002-.226.002-.041-.032-.189-.333-.09-.333 0-.066.054-.107.054-.166.156 0 .139-.885.137-.986-.003-.134-.136-1.093-.236-1.093 0-.093-.059-.158-.072-.268-.097 0 .041-.397.053-.443.02-.005-.005.021 0 0Zm11.444 2.698c.037-.186-.028-.666-.214-.773-.118-.068-.05.43-.02.514.035.1.124.246.234.259Zm-2.12-2.495c.37.216.635.521.974.781.11.084.31.288.451.263.114-.213-.242-.9.113-.954.384-.057.819.431 1.006.719.183.28.384.518.506.854.157.434.242.867.33 1.317.063.328.03.664.03.998 0 .247-.027.448-.103.683-.125.383-.25.714-.516 1.01-.136.152-.308.343-.535.334-.26-.01-.282-.299-.235-.498.078-.327.155-.631.28-.943.154-.387.357-1 .063-1.376-.094-.12-.177-.103-.267.018-.072.099-.118.102-.236.102-.16 0-.275-.235-.328-.36a3.02 3.02 0 0 1-.158-.435c-.057-.232-.413-.432-.537-.623-.108-.167-.228-.383-.429-.453-.189-.065-.37-.16-.555-.235-.157-.065-.298-.149-.455-.213-.213-.088-.434-.089-.661-.098a.731.731 0 0 0-.542.207.767.767 0 0 0-.23.543c-.007.357-.029.715-.02 1.072.005.245.052.496.05.739l-.009 1.08c-.002.213.024.424.023.639a1.75 1.75 0 0 0 .05.437c.079.306.313.35.46.591.17.28-.1.442-.338.477-.39.058-.791-.334-1.007-.606-.147-.185-.307-.49-.307-.739 0-.166-.057-.314-.018-.48.019-.078.054-.153.073-.231.025-.107.044-.214.054-.324.023-.27-.036-.536-.036-.799 0-.316-.485-.065-.654-.18-.206-.14-.1-.433.013-.582.187-.247.132-.492.203-.785.044-.184.183-.338.285-.494.106-.162.156-.378.243-.55.185-.366.494-.544.84-.72.345-.177.791-.349 1.182-.348.323.001.63.128.946.162.05.03-.054-.005 0 0Zm29.583 2.67c-.085.071-.084.223-.059.324.03.122-.052.31-.068.43-.03.23.241.308.38.41.485.36.04.914-.19 1.27-.158.247.129.318.312.393.148.061.274.18.438.222.229.059.43.023.51-.217.07-.215.05-.626-.068-.845-.18-.337-.599-.473-.749-.85-.085-.21-.191-1.125-.506-1.137Zm-1.327.194a3.9 3.9 0 0 0-.289.384c-.106.16-.262.265-.325.457-.128.398.424.69.75.674.168-.008.344-.122.45-.249a.515.515 0 0 0 .135-.28c.02-.153-.065-.17-.102-.288-.027-.082-.201-.307-.272-.379-.13-.133-.113-.32-.347-.319Zm1.12-2.466c.35.004.61.555.74.85.152.348.32.688.46 1.043.139.355.294.714.396 1.081.04.144.068.292.102.438.03.136.001.288.061.422.083.184.307.278.415.452.221.354.337.826.488 1.215.125.323.199.662.297.993.142.47.217 1.092-.306 1.33-.423.192-1.023.112-1.246-.342-.085-.172-.188-.326-.27-.498-.086-.177-.135-.368-.217-.545-.294-.633-1.05-.435-1.6-.435h-1.012c-.24 0-.49-.014-.719.075-.438.17-.667.61-.87 1.007-.087.171-.12.365-.29.48-.18.123-.394.153-.6.212-.2.023-.49.036-.653-.093-.197-.156-.378-.552-.204-.794.163-.177.416.025.578.075.142.028.3-.03.42-.112.15-.103.246-.198.304-.375.067-.207.072-.413.169-.613.172-.355.613-.43.93-.591.12-.062.455-.152.523-.278.103-.19-.354-.456-.452-.6-.266-.393-.109-.873.1-1.247.092-.166.174-.337.257-.509.161-.33.126-.724.285-1.053.187-.385.545-.884 1.047-.739.298.03.623.179.623-.254 0-.185.012-.555.243-.595Zm12.95.194c.382-.006.142.822-.289.736-.238-.047-.068-.377-.045-.477-.006.002.334-.321.334-.26.164-.002 0 .004 0 0Zm-2.211.35c.2-.002.34.035.426.235.021.049.062.339-.002.339 0 .14-.248.334-.38.4-.276.138-.514.107-.758.025-.008-.02-.25-.25-.244-.25 0-.092-.14-.302.019-.388 0-.162.451-.19.451-.23a.739.739 0 0 0 .198-.065c.045 0 .249-.029.29-.065.084-.001-.019.017 0 0ZM19.76 44.417c-.283.136-.396.534-.497.813-.092.256-.139.543.1.711.143.101.46.243.62.184.4-.149.696-.538.463-.969-.137-.254-.357-.741-.686-.739Zm1.29-1.903c.39.02.52.408.686.72.174.328.27.69.384 1.04.06.181.128.336.239.485.103.138.213.274.266.439.173.534.268 1.099.474 1.625.14.357.326.691.474 1.044.158.38.273.726.352 1.127.098.502-.286.83-.727.854-.568.03-.708-.41-.938-.84-.198-.368-.43-.682-.817-.84-.238-.098-.523-.061-.772-.047-.275.016-.555.049-.832.06-.466.017-.928-.039-1.397-.028-.273.007-.424.11-.636.254-.158.109-.22.35-.311.513a2.43 2.43 0 0 1-.332.463c-.243.269-.714.596-1.067.346-.393-.28-.341-.985-.081-1.35.214-.3.487-.055.758-.23.291-.161.364-.582.785-.582.235 0 .43-.127.645-.199.188-.063.449-.14.61-.253.157-.111-.224-.267-.29-.315a1.193 1.193 0 0 1-.379-.453c-.122-.251-.08-.554-.08-.828 0-.245.157-.522.053-.757-.15-.342-.096-1.088.34-1.237.193-.067.396-.053.572-.171.213-.143.404-.285.68-.293.899-.024 1.106.992 1.369 1.66.091.232.145.478.235.707.078.2.317.48.252.707-.02.2-.155.387-.261.55-.201.31-.086.386.172.53.161.091.316.196.487.269.511.22.442-.432.316-.758-.143-.367-.388-.692-.56-1.044-.163-.333-.273-.688-.406-1.034a7.91 7.91 0 0 1-.297-.989c-.046-.186-.135-.362-.158-.554-.027-.206-.054-.532.193-.59Zm58.726 1.164c.163-.004.333.083.333.25.079 0-.106.216-.108.221-.128.067-.31-.066-.343-.185-.178 0 .118-.32.118-.286.088-.002 0 .003 0 0Zm-26.245.896c.217-.003.336.138.348.351.003.06.031.453-.032.453 0 .066-.135.132-.135.167-.092 0-.211-.083-.28-.083 0-.024-.174-.305-.153-.305 0-.26-.025-.48.252-.583.219-.003-.033.012 0 0Zm-21.967 3.012c-.096.342.48 1.14.804.739.182-.226-.082-.429-.262-.517-.139-.07-.382-.266-.542-.222Zm-1.29-1.46c.028-.107.099-.215.13-.325.03-.102.052-.21.104-.303a.874.874 0 0 1 .37-.342c.165-.09 1.06-.545 1.192-.277.233.477-.566.817-.244 1.312.197.302.442.563.605.896.073.15.148.402.28.503.145.112.354.132.505.245.374.282.696.875.383 1.303-.508.695-1.392.37-1.958-.019-.193-.132-.357-.328-.528-.49-.207-.194-.41-.37-.587-.595-.18-.232-.92-.88-1.083-.347-.176.573.153 1.28-.338 1.744-.137.13-.236.252-.42.307-.412.124-.967-.118-.947-.628.013-.353.42-.35.55-.62.12-.249.009-.595-.007-.863-.017-.264 0-.535.07-.79.081-.289.237-.626.515-.757a.818.818 0 0 1 .673-.037c.098.04.197.08.298.115.19.065.273.013.437-.032.006-.024-.02.006 0 0Zm52.444-.314c.168 0 .23.05.352.148 0 .14.332.308.415.416.124 0 .189.32.28.37.023.09.274.637.324.637 0 .069.091.104.091.166.156.12.26.311.416.462 0 .139.247.282.28.425.218.112.08.634.08.803-.066 0-.154.425-.324.425-.197.134-.343.143-.625.15-.562.014-.754-.574-1.081-.843 0-.03-.382-.535-.388-.535a1.055 1.055 0 0 0-.072-.204c0-.076-.1-.163-.1-.23-.085-.095-.357-.37-.469-.37-.05-.101-.297-.162-.406-.204-.102 0-.31-.036-.37.084-.047 0-.07.073-.117.073-.054.087-.28.192-.28.305-.088.068-.152.265-.235.305-.012.053-.082.172-.126.194-.021.027-.307.207-.307.102-.298 0-.068-.98.072-.98.046-.136.298-.296.298-.434.035 0 .282-.296.315-.342.075-.025.126-.11.2-.11 0-.06.318-.056.367-.056.172 0 .345-.007.517 0 .127.004.204.058.307.083.023.045.169.162.216.194 0 .07.099.129.117.203.067.036.135.241.163.324.02 0 .136.244.136.277.043.022.151.178.189.23.068 0 .125.102.199.12.02.047.105.038.153.028.05-.112-.009-.131-.009-.212-.042-.021-.077-.125-.1-.166 0-.192-.315-.36-.315-.546-.152-.077-.153-.396-.308-.47-.04-.126-.167-.261-.133-.431.03-.147.088-.224.16-.337.011.002.118-.058.118-.054.042 0 0 .003 0 0ZM43.08 48.51c-.042 0-.225.21-.307.24a6.072 6.072 0 0 0-.397.083c-.066.138-.224.223-.306.351-.127 0-.254.203-.37.203 0 .09-.82.25-.93.25 0 .133-1.89-.102-2.076-.102-.14-.048-.232-.117-.351-.148-.074-.093-.213-.164-.253-.286-.024 0-.018-.092-.036-.092 0-.212.224-.195.374-.195.158 0 .346-.092.49-.057.049.012.535-.062.535-.063.272 0 .62.028.903.028 0-.033.983-.143.983-.222.208 0 .765.108.921-.064.054-.06.159-.287.235-.287.031-.048.27-.138.27-.148.132.035.291-.01.353.176.072.145-.01.207-.038.333-.006 0 .008-.033 0 0Zm17.527-.167c.838 0 .427 1.173-.18 1.275 0 .052-.515.028-.515-.046-.094 0-.185-.23-.235-.23 0-.082-.029-.148.01-.255.015-.043.071-.095.071-.134.12-.115.276-.19.36-.305.022-.007.489-.327.489-.305.05 0 0 .003 0 0Zm-4.621.287c.385-.006.503.459.289.674-.052.052-.114.142-.176.213-.188.212-.465.271-.73.256-.124-.007-.261-.1-.349-.1-.005-.008-.156-.184-.153-.184 0-.157.073-.435.271-.435 0-.042.253-.078.253-.129.033 0 .175-.065.199-.11a.471.471 0 0 0 .153-.102c.042-.01.21-.053.243-.083.09-.002-.02.018 0 0Zm22.138 0a.576.576 0 0 1 .415.212c.04 0 .148.075.2.092.095.029.206-.027.288-.027 0-.047.379-.098.379-.148.09 0 .172-.008.27 0 0-.004.094.094.109.102 0 .026.077.221.027.221 0 .07-.036.13-.036.194.008 0-.153.244-.153.259-.042.04-.16.148-.216.148-.042.083-.416.135-.416.185-.117 0-.321.085-.469.13-.17.012-.308-.01-.433-.01 0 .007-.194-.12-.207-.12-.091-.195-.222-.348-.213-.61.002-.031.04-.23.059-.23 0-.071.08-.113.08-.186-.04 0 .316-.282.316-.212.08.003 0 .003 0 0Z" fill="#6A6A64"/></svg>