<svg xmlns="http://www.w3.org/2000/svg" viewBox="0 0 90 90"><path fill="#FFF" d="M.004.004h89.992V89.99H.004z"/><path d="M.004.004h56.463c4.546 0 9.092-.01 13.627.009-1.257 1.275-2.542 2.542-3.808 3.818.5.529 1.03 1.02 1.53 1.54 1.154-.794 2.458-1.427 3.875-1.531 1.276-.132 2.561.198 3.733.709.444.189.86.49 1.36.538.492-.028.86-.463 1.03-.898.142-.301.01-.66-.226-.878C76.492 2.205 75.386 1.119 74.3.013c5.236-.028 10.47 0 15.697-.01 0 5.103.01 10.215 0 15.328-1.077-1.058-2.127-2.136-3.195-3.194-.283-.293-.746-.445-1.133-.265-.256.123-.501.321-.615.595-.142.549.105 1.087.322 1.578.661 1.399.954 2.977.756 4.517a7.346 7.346 0 0 1-1.078 2.977 9.872 9.872 0 0 0-.425.671c.548.472 1.011 1.04 1.569 1.502 1.247-1.285 2.532-2.542 3.799-3.818 0 8.533.01 17.066 0 25.6-.246.084-.52.254-.775.131-.34-.217-.596-.538-.88-.812-3.061-3.043-6.095-6.114-9.165-9.147-1.22 1.219-2.42 2.447-3.658 3.638.653.737 1.38 1.389 2.06 2.097 2.458 2.458 4.914 4.914 7.381 7.37.208.218.453.408.567.691.038.312-.18.576-.265.86-.123.33.142.727.492.737.312.057.576-.152.775-.36 1.153-1.162 2.315-2.314 3.468-3.467V89.99h-42.77c1.096-1.095 2.192-2.182 3.288-3.279a6304.619 6304.619 0 0 1-11.18-11.178c-1.218 1.172-2.39 2.39-3.6 3.572-.255.264-.538.52-.66.878-.058.35.264.68.604.7.302-.038.557-.237.86-.303.264-.018.472.19.66.36 2.213 2.23 4.433 4.44 6.654 6.662.557.585 1.162 1.114 1.682 1.72.236.264.076.604-.057.868h-25.58l6.038-6.038c.377-.359.765-.774.822-1.323.085-.633-.557-1.266-1.19-1.134-.53.104-.964.52-1.513.52-.35-.028-.614-.283-.85-.51-4.81-4.8-9.61-9.61-14.411-14.41-.322-.322-.709-.633-.823-1.097-.018-.547.369-.992.511-1.493.18-.633-.416-1.323-1.059-1.275-.444.028-.84.283-1.143.595C4.2 65.932 2.083 68.011.004 70.12c-.01-23.37 0-46.747 0-70.115" fill="#F96302"/><path d="M64.916 5.191c.085-.094.236-.18.32-.037 6.587 6.576 13.174 13.163 19.751 19.749-2.306 2.305-4.62 4.62-6.926 6.936-.303.283-.672.52-1.087.548-.577.047-1.153-.473-1.106-1.059.02-.576.51-1.02.52-1.606.019-.369-.265-.642-.5-.898-4.887-4.876-9.763-9.76-14.649-14.647-.274-.264-.576-.595-.992-.566-.614.009-1.077.576-1.7.51-.36.01-.653-.274-.832-.567-.246-.51-.02-1.124.35-1.502 2.287-2.287 4.573-4.574 6.85-6.86m9.489 1.918c.188-.35.547-.671.973-.615.472.038.812.425 1.124.737 1.89 1.9 3.78 3.79 5.67 5.68.36.35.784.69.87 1.209.047.538-.445 1.02-.964 1.077-.435.01-.832-.226-1.21-.434-.803-.473-1.71-.85-2.665-.804-.491-.01-.963.19-1.408.388-.52-.558-1.115-1.058-1.606-1.635.15-.425.35-.831.378-1.285.066-1.03-.35-2.013-.87-2.873-.264-.425-.472-.954-.292-1.445m-41.647 5.008c1.021-1.077 2.099-2.088 3.119-3.156.973.944 1.918 1.899 2.873 2.853.312.303.028.813-.321.936-.293.038-.549-.16-.813-.255-1.02-.501-2.287-.557-3.307-.01-.265.114-.483.34-.766.388-.284-.227-.52-.51-.785-.756m-.642.604c1.39 1.342 2.731 2.731 4.101 4.083 2.146 2.135 4.28 4.29 6.436 6.425a458.247 458.247 0 0 1-3.705 3.705c-.255.283-.765.406-1.01.056-.303-.321.027-.718.122-1.049.113-.246-.085-.463-.246-.633a2829.294 2829.294 0 0 1-7.408-7.408c-.227-.208-.416-.463-.69-.605-.378-.085-.671.255-1.04.274-.283-.028-.548-.311-.51-.605.019-.226.151-.425.312-.586 1.21-1.219 2.438-2.419 3.638-3.657m4.933 1.512a.558.558 0 0 1 .425-.736c.246-.038.444.15.615.311 1.02 1.02 2.04 2.05 3.07 3.062.18.198.435.378.454.67.038.294-.245.577-.548.549-.397 0-.7-.312-1.058-.445-.53-.245-1.172-.264-1.692.02-.274-.274-.548-.558-.832-.813.124-.416.237-.86.133-1.295-.076-.49-.416-.869-.567-1.323m18.097.738c.255-.256.576-.445.935-.492.633-.094 1.294.52 1.172 1.162-.085.567-.558 1.02-.52 1.617.095.415.435.698.708.992 4.83 4.819 9.659 9.628 14.468 14.457.265.236.53.548.908.548.567 0 1.001-.425 1.54-.52.624-.103 1.238.51 1.162 1.134-.037.426-.293.794-.585 1.087-2.43 2.419-4.849 4.857-7.277 7.276-.312.312-.709.595-1.171.595-.511.029-1.002-.406-1.068-.907-.067-.661.548-1.153.528-1.814-.028-.312-.245-.567-.453-.794-4.243-4.233-8.477-8.476-12.72-12.71 3.507 6.511 7.04 13.003 10.547 19.514.056.094.103.198.15.312-.254.236-.5.49-.746.746-7.021-3.458-14.033-6.955-21.045-10.423-1.105-.548-2.201-1.19-3.449-1.341-.416-.057-.7.283-1.001.5-.313.246-.729.397-1.115.274-.464-.207-.785-.755-.643-1.256.094-.34.33-.624.576-.87 2.268-2.258 4.527-4.526 6.795-6.775 3.534 1.73 7.077 3.42 10.622 5.15.113.085.235.17.34.283.056-.066.104-.132.16-.198l-.132.019c-1.862-3.544-3.818-7.04-5.68-10.584 2.344-2.324 4.66-4.658 6.994-6.982m-12.408 1.596c.17-.311.652-.35.879-.085.954.964 1.928 1.928 2.891 2.892a362.163 362.163 0 0 1-3.25 3.241c-.246-.283-.577-.51-.766-.84.312-.53.643-1.069.728-1.692.16-.86.019-1.767-.35-2.561-.104-.303-.33-.652-.132-.955M26.87 17.986c.19-.199.397-.407.671-.473.275-.056.615.114.652.416.067.33-.179.605-.245.926-.038.255.17.435.32.605 2.524 2.523 5.038 5.046 7.561 7.56.17.16.35.359.595.415.303-.028.557-.227.85-.293.36-.038.69.35.577.69-.047.255-.245.444-.415.624a1394.754 1394.754 0 0 1-3.686 3.676c-.217.217-.5.444-.822.368a.715.715 0 0 1-.397-.396c-.095-.416.35-.757.245-1.173-.094-.16-.226-.283-.35-.415-1.152-1.144-2.295-2.306-3.458-3.45a74.95 74.95 0 0 1-1.228 1.23 17.457 17.457 0 0 1-.832-.842c.416-.406.822-.822 1.238-1.228-1.02-1.002-2.032-2.023-3.043-3.034-.217-.207-.406-.434-.661-.585-.463-.152-.907.5-1.352.141-.359-.254-.245-.765.048-1.03 1.238-1.257 2.494-2.485 3.732-3.732" fill="#FFF"/><path d="M22.032 22.89c.284-.18.709-.066.841.255.132.388-.217.718-.227 1.096-.01.199.151.34.274.473 2.618 2.618 5.226 5.235 7.844 7.843.472.51 1.077-.369 1.587.01.331.264.218.783-.066 1.03-1.228 1.237-2.466 2.456-3.685 3.694-.199.189-.397.416-.671.5-.303.086-.671-.103-.709-.424-.057-.378.284-.671.265-1.04a1.083 1.083 0 0 0-.265-.416 2662.927 2662.927 0 0 1-7.418-7.417c-.236-.218-.435-.492-.747-.605-.34-.019-.623.236-.954.274-.284.01-.53-.246-.539-.52-.028-.293.18-.529.378-.727 1.229-1.229 2.457-2.457 3.676-3.686.132-.123.255-.245.416-.34M15.2 29.647c.567-.549 1.115-1.116 1.682-1.673.992.964 1.965 1.965 2.958 2.939.17.189.378.359.472.604.114.464-.415.974-.879.766-.463-.208-.831-.577-1.276-.822-.746-.463-1.616-.756-2.503-.652-.256-.265-.54-.51-.766-.794.075-.151.198-.255.312-.368m-4.12 4.12c1.058-1.04 2.097-2.089 3.146-3.138 1.985 1.994 3.979 3.988 5.972 5.972 1.097 1.087 2.165 2.193 3.27 3.26.312.35.728.057 1.068-.066.34-.151.737.151.728.51 0 .246-.142.454-.302.624-1.285 1.276-2.552 2.551-3.827 3.827-.18.18-.407.359-.672.34-.293.029-.576-.255-.548-.538.019-.303.255-.548.255-.85.02-.256-.198-.417-.35-.587-3.014-2.995-6-6.019-9.024-9.005.095-.123.18-.236.284-.35M82 32.84a306.707 306.707 0 0 1 3.487 3.487c.369.35.104 1.049-.387 1.125-.454.066-.804-.293-1.153-.53-.936-.642-2.042-1.247-3.213-1.048a7.172 7.172 0 0 1-.87-.907c.728-.7 1.428-1.418 2.136-2.127m-71.885 1.918c.35.133.567.53.85.775-.15 1.097.368 2.126.983 2.986.18.275.397.53.51.841.123.416-.283.85-.7.804-.235 0-.396-.199-.547-.34-1.03-1.04-2.07-2.06-3.1-3.1.68-.643 1.314-1.332 2.004-1.966m21.026 5.33c1.88-.605 3.921-.67 5.858-.274 3.29.7 6.2 2.627 8.525 5.018 2.277 2.305 4.091 5.197 4.706 8.419.34 1.767.264 3.62-.246 5.348-.5 1.71-1.409 3.289-2.552 4.65-.491-.52-1.03-1.002-1.502-1.531 0-.256.16-.473.208-.718.255-.832 0-1.767-.634-2.372-4.667-4.678-9.355-9.355-14.023-14.033-.425-.434-.964-.784-1.578-.831-.501-.066-.993.113-1.465.283-.19.104-.312-.132-.435-.227-.378-.406-.794-.774-1.171-1.19 0-.028-.01-.085-.01-.113a12.593 12.593 0 0 1 4.319-2.429m12.738-.52c.435.142.832.36 1.238.567 1.522.737 3.033 1.503 4.565 2.25.132.066.255.17.368.273 1.285 1.304 2.58 2.59 3.874 3.884a6.724 6.724 0 0 0 2.533 1.682 3.08 3.08 0 0 0 2.098.019c.34-.114.709-.246 1.068-.132.359.142.623.5.652.888-.029.52-.36.954-.709 1.313a304.307 304.307 0 0 1-3.496 3.487c-.312.284-.671.576-1.106.624-.624.094-1.238-.567-1.05-1.172.18-.614.426-1.238.323-1.88-.152-1.078-.766-2.032-1.447-2.854-2.56-2.57-5.13-5.131-7.701-7.71-.397-.417-.832-.795-1.21-1.239m28.822 2.57c.71-.708 1.427-1.417 2.136-2.135.312.255.586.558.879.841-.123.945.199 1.88.69 2.674.255.454.623.841.85 1.314.123.227.038.481-.047.708a12.16 12.16 0 0 1 3.071 2.986c.955 1.352 1.625 2.958 1.588 4.64.01 1.597-.68 3.128-1.692 4.337-.274-.283-.595-.538-.832-.86.048-.35.218-.69.133-1.039-.095-.454-.444-.775-.756-1.087-2.495-2.485-4.98-4.97-7.465-7.455-.246-.246-.54-.473-.89-.5-.33-.039-.66.056-.963.16-.293-.274-.585-.568-.869-.851 1.257-1.077 2.891-1.767 4.564-1.682.643-.019 1.267.132 1.89.274-.756-.784-1.56-1.521-2.287-2.325m-49.45 5.547c.519-1.446 1.34-2.768 2.314-3.95.482.492.993.964 1.465 1.465.094.303-.151.586-.198.888-.246.813.075 1.701.67 2.287 4.593 4.602 9.195 9.194 13.798 13.796.444.482.982.936 1.662 1.04.605.094 1.2-.114 1.758-.321.51.51 1.021 1.01 1.531 1.52a12.909 12.909 0 0 1-3.79 2.278c-2.078.803-4.403.936-6.586.454-3.317-.728-6.237-2.722-8.571-5.15-2.154-2.258-3.894-5.027-4.508-8.118-.415-2.05-.283-4.223.454-6.189m42.95 2.731c.113-1.436.746-2.806 1.692-3.884.273.284.567.567.85.851-.104.34-.265.7-.17 1.058.056.322.274.577.5.804 2.495 2.485 4.971 4.98 7.466 7.464.293.284.576.624.992.738.378.104.766-.029 1.134-.142.284.284.577.567.85.87-1.19.982-2.674 1.672-4.242 1.672-1.522.066-3.015-.473-4.28-1.266a10.967 10.967 0 0 1-2.458-2.117c.33 1.105.256 2.344-.265 3.383-.51 1.02-1.303 1.852-2.088 2.655a70.957 70.957 0 0 0-.87-.86c.247-.397.407-.87.256-1.332-.18-.473-.567-.813-.907-1.172a426.04 426.04 0 0 0-2.117-2.126c-.416-.388-.86-.832-1.456-.87-.35-.037-.66.142-.954.313-.293-.284-.576-.577-.87-.86 1.134-1.144 2.43-2.325 4.092-2.533 1.361-.227 2.731.36 3.695 1.295-.605-1.21-.982-2.57-.85-3.94m-49.81 3.297c.283-.274.651-.482 1.048-.51.652-.038 1.248.642 1.068 1.276-.142.482-.491.907-.51 1.427.038.453.416.774.718 1.077l14.553 14.552c.227.217.482.434.803.462.548 0 .974-.406 1.493-.528.624-.123 1.248.444 1.22 1.067-.02.426-.256.813-.549 1.115l-7.324 7.324c-.32.311-.718.585-1.18.585-.568.02-1.097-.519-1.05-1.096.057-.566.53-1.02.54-1.606-.02-.35-.294-.614-.511-.86-2.174-2.183-4.357-4.347-6.52-6.52-.086-.066-.2-.255-.322-.123-.756.728-1.484 1.493-2.24 2.22-.51-.51-1.02-1.02-1.53-1.54a71.82 71.82 0 0 1 2.248-2.248c0-.038.01-.123.01-.161-2.05-2.013-4.064-4.054-6.105-6.085-.311-.293-.605-.662-1.04-.766-.594-.038-1.058.425-1.615.53-.718.122-1.37-.69-1.125-1.362.123-.472.501-.812.832-1.133 2.362-2.372 4.734-4.725 7.087-7.097m42.194 2.552c1.134 1.058 2.202 2.192 3.317 3.278 2.117 2.126 4.243 4.252 6.37 6.379.15.123.292.293.49.33.407.039.728-.359 1.135-.283.246.085.472.322.444.595 0 .369-.312.624-.54.87-1.331 1.313-2.645 2.645-3.977 3.96-.293.32-.841.16-1.02-.2-.265-.443.453-.916.075-1.322a3263.35 3263.35 0 0 1-8.212-8.212c-.199-.18-.368-.406-.605-.53-.406-.113-.728.228-1.105.275-.293-.028-.577-.283-.558-.586-.028-.33.217-.585.425-.803 1.257-1.248 2.514-2.504 3.761-3.751m-8.429 8.42c1.124-1.107 2.22-2.25 3.364-3.337 1.011 1.02 2.032 2.032 3.043 3.052.34.331-.019.832-.369.983-.245.028-.472-.123-.69-.217-.869-.426-1.87-.633-2.825-.388-.605.123-1.134.463-1.663.775-.284-.293-.567-.585-.86-.869m-4.593 4.602c1.305-1.323 2.628-2.618 3.931-3.931 2.117 2.088 4.205 4.214 6.332 6.302 1.625 1.616 3.232 3.251 4.867 4.858-1.267 1.304-2.57 2.57-3.837 3.864-.18.199-.435.312-.671.416-.236-.085-.53-.17-.605-.434-.141-.445.321-.794.265-1.229-.19-.368-.52-.633-.804-.926l-6.889-6.889c-.406-.378-.746-.83-1.228-1.114-.482-.095-.917.519-1.38.188-.396-.255-.283-.822.019-1.105m9.167-2.343c-.152-.388.208-.842.614-.776.189.048.33.17.463.303.992 1.002 1.994 1.984 2.977 2.986.32.33.737.614.87 1.087-.124.208-.256.491-.54.52-.463.047-.803-.322-1.219-.474a2.03 2.03 0 0 0-1.823.01c-.303-.302-.596-.605-.898-.897.208-.445.302-.955.15-1.427-.112-.482-.434-.88-.594-1.332m6.076 2.466c.198-.303.68-.35.916-.066 1.021 1.03 2.06 2.05 3.072 3.09-1.163 1.133-2.278 2.324-3.468 3.43-.274-.293-.567-.577-.851-.87 1.011-1.247 1.153-3.052.473-4.488-.123-.34-.388-.756-.142-1.096" fill="#FFF"/><path d="M.004 73.17c.378-.15.737-.387 1.153-.378.501.095.813.54 1.162.87 4.754 4.734 9.488 9.478 14.232 14.212.264.293.605.586.652 1.002-.019.406-.236.765-.406 1.124-5.604-.01-11.198-.01-16.793-.01 0-5.603-.01-11.216 0-16.82" fill="#F96302"/><path d="M43.994 72.915c1.682-.141 3.355.463 4.743 1.38 1.087.728 2.098 1.569 2.873 2.618.926 1.237 1.493 2.75 1.503 4.308.028 1.777-.671 3.572-1.937 4.829a35.065 35.065 0 0 1-.86-.86c.17-.32.368-.661.311-1.04-.094-.566-.482-1.03-.87-1.417l-6.378-6.378c-.434-.425-.926-.889-1.568-.935-.35-.038-.662.141-.955.311-.274-.302-.652-.529-.822-.907 1.04-1.068 2.457-1.814 3.96-1.909" fill="#FFF"/></svg>