<svg xmlns="http://www.w3.org/2000/svg" viewBox="0 0 90 90"><path fill="#0072CE" d="M0 0h90v90H0z"/><path d="M16.335 71.852h-4.157V65H9v14.998h3.178v-6.795h4.157V80h3.17V65.002h-3.17v6.85Zm40.416-5.497h3.48V80h3.178V66.345h3.48V65H56.75v1.355Zm14.112 0h3.478V80h3.18V66.345H81V65H70.863v1.355ZM43.87 74.734l1.688-4.863 1.588 4.863H43.87ZM48.865 80h3.295l-4.897-14.997V65H45.24l-5.207 15h2.009l1.364-3.93h4.177L48.865 80ZM35.9 65l-3.542 6.428-3.584-6.427h-3.436l4.506 8.039V80h3.205v-6.855L37.529 65h-1.63Zm39.838-53.495c1.97 0 3.196 2.55 3.2 6.01-.004 3.379-1.173 5.875-3.065 5.97H74.75v-11.98h.988ZM71.685 10.2v14.6h4.657c3.579 0 5.652-2.72 5.658-7.286v-.01c-.006-4.554-2.08-7.304-5.658-7.304h-4.657Zm-25.912 7.322v-6.016h.818c1.668 0 2.353 1.15 2.353 2.962 0 2.049-.824 3.054-2.354 3.054h-.817Zm7.188 7.278-3.21-6.456c1.553-.625 2.284-1.88 2.284-3.877 0-2.865-1.676-4.267-5.39-4.267h-3.937v14.6h3.065v-5.97h.872c.027 0 .05-.003.077-.003l2.968 5.972h3.27v.001ZM20.164 10.2l-1.876 8.109L16.37 10.2h-1.54l-1.879 8.112-1.918-8.112H8l3.45 14.6h1.54l1.914-8.265 1.882 8.26-.001.004h1.541l3.487-14.598-1.649-.001Zm11.308 13.502c-1.387 0-2.331-1.226-2.331-6.203 0-4.975.944-6.203 2.331-6.203 1.39 0 2.333 1.228 2.336 6.203-.003 4.977-.946 6.203-2.335 6.203Zm5.697-6.213c-.006-2.395-.586-4.342-1.681-5.642C34.47 10.638 33.15 10 31.473 10c-1.676 0-2.995.638-4.015 1.847-1.095 1.3-1.675 3.247-1.68 5.642h-.001v.021h.001c.005 2.396.585 4.341 1.68 5.641C28.478 24.36 29.798 25 31.473 25c1.677 0 2.997-.64 4.015-1.849 1.095-1.3 1.675-3.245 1.681-5.64v-.022Zm29.93 6.004h-5.386V10.2h-3.065v14.6h8.45v-1.306ZM49.271 52.785h3.308v-7.707h5.494v-1.393h-5.494v-5.078H59v-1.392h-9.729v15.57Zm-11.124-1.17c-1.497 0-2.517-1.307-2.52-6.615.003-5.307 1.022-6.616 2.52-6.616s2.517 1.308 2.52 6.616c-.003 5.308-1.022 6.616-2.52 6.616Zm6.147-6.625c-.006-2.554-.632-4.631-1.815-6.017-1.097-1.29-2.523-1.97-4.332-1.973-1.809.002-3.232.683-4.332 1.973-1.182 1.386-1.809 3.463-1.815 6.017v.022c.006 2.553.633 4.63 1.815 6.015 1.1 1.29 2.523 1.973 4.332 1.973 1.809 0 3.235-.683 4.332-1.973 1.183-1.385 1.81-3.462 1.815-6.015v-.022Z" fill="#FFF"/></svg>