<svg xmlns="http://www.w3.org/2000/svg" viewBox="0 0 90 90"><path fill="#FFF" d="M0 0h90v90H0z"/><path d="M71.793 41.214c-2.484 3.864-5.337 7.934-7.66 10.164-1.525 1.463-4.736 3.542-3.448-1.365l4.236-16.119c-1.037 0-6.202-.283-7.928 6.273l-1.561 5.92a11.201 11.201 0 0 1-1.307 2.905c-1.855 2.887-4.308 3.996-6.019 4.097-1.001-.05-1.485-.411-1.657-1.148-.171-.714.172-2.18.359-2.89.16-.594 3.984-15.153 3.984-15.153-.556-.008-6.137-.531-7.927 6.273l-1.89 7.142a7.855 7.855 0 0 1-.99 2.114c-1.207 1.773-3.36 3.666-4.499 3.666-.811 0-1.131-.947-.571-3.076l4.236-16.119h-1.878c-6.64 0-11.375 1.09-14.89 3.43C16.488 41.244 15 49.007 15 50.605c0 1.703.514 5.268 6.32 5.268 3.622 0 6.182-1.94 7.717-3.724.061-.07.118-.136.175-.205.122.841.408 1.757 1.029 2.494.766.912 2.213 1.44 3.6 1.44 3.059 0 5.668-2.088 7.058-3.927 0 0 0 .004.004.008.358 1.761 1.672 3.926 6.194 3.926 3.623 0 6.179-1.94 7.718-3.724.057-.07.118-.136.171-.206.122.838.411 1.754 1.028 2.49.02.024.046.047.065.074l.02.02c.761.83 2.25 1.342 3.462 1.342 2.628 0 5.215-1.528 7.394-3.871 2.826-3.038 6.544-8.512 8.045-10.789h-3.207v-.008Zm-42.028 4.504a11.372 11.372 0 0 1-1.41 3.274c-1.855 2.887-4.308 3.996-6.018 4.097-1.852-.09-2.046-1.203-1.3-4.046 2.58-9.815 8.389-12.034 11.166-12.616l-2.438 9.291Z" fill="#EB5505"/></svg>