<svg xmlns="http://www.w3.org/2000/svg" viewBox="0 0 90 90"><path fill="#E8A439" d="M0 26.87 63.13 90H0z"/><path fill="#DE7D2E" d="M90 0v63.13L26.867 0z"/><path fill="#E39234" d="M26.868 0 90 63.13V90H63.13L0 26.87V0z"/><path d="M59.856 53.504a4.72 4.72 0 0 1-4.083-2.083l-5.365-7.756-4.143 12.253a4.815 4.815 0 0 1-3.666 3.11 4.827 4.827 0 0 1-4.59-1.782l-3.607-4.678-2.623 8.602c-.646 2.031-2.512 3.409-4.62 3.41a4.684 4.684 0 0 1-1.43-.21c-2.497-.81-3.9-3.49-3.16-6.037l5.366-17.445a4.82 4.82 0 0 1 3.716-3.361 4.768 4.768 0 0 1 4.659 1.791l3.845 4.92 4.322-12.918a4.813 4.813 0 0 1 3.904-3.23 4.685 4.685 0 0 1 4.59 2.023l6.587 9.507L68.5 24.982C58.132 12.315 39.926 9.766 26.552 19.11 13.18 28.452 9.07 46.592 17.082 60.904c8.014 14.312 25.496 20.055 40.28 13.232 14.785-6.824 21.973-23.952 16.563-39.466l-9.896 16.39a4.905 4.905 0 0 1-4.053 2.323l-.12.12ZM77.74 13.12c-3.457 0-6.26 2.837-6.26 6.338 0 3.5 2.803 6.338 6.26 6.338s6.259-2.838 6.259-6.338a6.381 6.381 0 0 0-1.78-4.55A6.221 6.221 0 0 0 77.769 13l-.03.12Z" fill="#FFF"/></svg>