<svg xmlns="http://www.w3.org/2000/svg" viewBox="0 0 90 90"><path fill="#FFF" d="M0 0h90v90H0z"/><g transform="translate(5 31)"><path d="M4.02 0H2.631C.862 0 0 .532 0 1.547v25.616c0 1.015.861 1.547 2.632 1.547h1.387c1.723 0 2.632-.532 2.632-1.547V1.547C6.65.532 5.74 0 4.019 0Zm24.545 25.617c0-3.045 1.962-5.655 4.689-6.525.335-1.402.478-2.997.478-4.689C33.732 5.075 29.092 0 20.718 0H11.77c-1.244 0-1.818.58-1.818 1.837v24.988c0 1.257.574 1.837 1.818 1.837h8.948c3.206 0 5.837-.725 7.895-2.175-.048-.242-.048-.58-.048-.87Zm-7.847-2.659h-4.115V5.752h4.115c5.167 0 6.22 4.688 6.22 8.603s-1.053 8.603-6.22 8.603Z" fill="#2D3E51"/><ellipse fill="#2FC877" cx="35.359" cy="25.617" rx="3.11" ry="3.142"/><path d="M79.474 21.17c-.095-.048-.191-.048-.287-.048-.43 0-.717.145-.957.58-.143.241-.287.483-.43.773-.574.967-1.149 1.982-2.01 2.707-1.148.966-2.823 1.45-4.258 1.16-.862-.145-1.436-.774-1.818-1.257-.67-.918-.957-2.127-.91-3.528 2.106-.194 8.422-1.112 8.948-5.945.096-.919-.144-1.789-.766-2.465-.765-.87-1.961-1.305-3.397-1.305-4.21 0-8.373 4.446-8.9 9.521-.143 1.402.048 2.659.527 3.819-.383.338-.718.58-1.053.725-.335.193-.67.193-.861.096-.287-.145-.383-.435-.43-.725-.144-.918.047-1.981.286-3.093.144-.628.335-1.305.479-1.933.526-1.837 1.053-3.722.861-5.655-.143-1.74-1.387-2.852-3.206-2.852-2.535 0-4.21 1.837-5.263 3.383 0-1.16-.287-2.03-.813-2.561-.527-.532-1.244-.822-2.249-.822-2.488 0-4.115 1.74-5.215 3.287 0-.145.047-.29.047-.435.048-.677.096-1.595-.43-2.175-.287-.339-.766-.532-1.388-.532-.526 0-.67 0-1.244.097 0 0-.574.096-.765.29-.383.338-.24.821-.192 1.111v.097c.048.242.048.58.048.918-.096 1.837-.43 3.674-.718 5.269-.191.821-.382 1.691-.574 2.561-.43 1.885-.861 3.819-1.1 5.752-.048.193.048.387.143.532a.765.765 0 0 0 .527.241h.143c1.388 0 2.727-.048 3.015-.821.334-.87.526-1.934.717-2.852l.096-.435c.383-2.127.766-3.673 1.483-5.655.383-1.015 1.053-1.933 1.58-2.61.67-.822 1.387-1.643 2.152-1.643.335 0 .527.096.718.29.766 1.063-.191 4.446-.622 5.848-.096.29-.144.58-.191.773l-.287 1.112c-.431 1.643-.862 3.287-1.053 5.027 0 .193-.048.338-.048.531v.242l.191.145c.335.29 2.871-.097 2.871-.097.91-.338 1.149-1.208 1.196-1.498.192-.773.335-1.498.479-2.272v-.048c.287-1.402.574-2.852 1.005-4.205.813-2.707 1.961-4.543 3.301-5.51.574-.387 1.196-.435 1.436-.097.478.58.191 2.175.047 2.852-.19.918-.382 1.885-.622 2.803v.049c-.143.58-.287 1.16-.43 1.788-.383 1.837-.718 4.108.287 5.413.526.677 1.34 1.015 2.392 1.015 1.149 0 2.201-.386 3.35-1.208.335-.242.622-.483 1.004-.822C67.608 28.372 69.092 29 71.196 29c4.786 0 7.034-3.238 8.326-5.655.144-.29.335-.677.43-.967.144-.531-.047-1.015-.478-1.208Zm-5.885-6.09v.58c-.048.387-.096.773-.24 1.112-.669 2.223-2.63 2.658-4.257 2.706.239-.966.574-1.933.956-2.755.814-1.691 1.819-2.706 2.68-2.706.096 0 .143 0 .24.048.047 0 .047.048.095.048h.096c.047 0 .047.049.095.097l.048.048.048.049c0 .048.048.048.048.096l.048.049c0 .048.047.048.047.096 0 0 0 .049.048.097 0 .048.048.097.048.193v.049c0 .048.048.145.048.241l-.048-.048Z" fill="#2D3E51"/></g></svg>