<svg xmlns="http://www.w3.org/2000/svg" viewBox="0 0 90 90"><path fill="#C03" d="M0 0h90v90H0z"/><path d="M31.378 48.053c0 3.252 2.24 5.804 5.777 5.804h3.265V50.78h-2.97c-1.902 0-2.949-1.182-2.949-2.727s1.047-2.728 2.948-2.728h2.971V42.25h-3.265c-3.537 0-5.777 2.552-5.777 5.803m35.808-5.948c-1.196 0-2.31.254-3.755 1.276-1.446-1.022-2.56-1.276-3.757-1.276-2.66 0-4.518 1.919-4.518 4.684v7.068h3.122v-6.905c0-1.18.688-1.77 1.814-1.77 1.191 0 1.78.624 1.78 1.622v7.053h3.118v-7.053c0-.998.588-1.622 1.78-1.622 1.126 0 1.813.59 1.813 1.77v6.905h3.122V46.79c0-2.765-1.858-4.684-4.52-4.684m12.012 8.818c-1.739 0-2.68-1.421-2.68-2.872 0-1.45.941-2.87 2.68-2.87 1.739 0 2.68 1.42 2.68 2.87 0 1.45-.941 2.872-2.68 2.872m.005-8.82c-3.71 0-5.807 3.035-5.807 5.952 0 2.908 2.097 5.944 5.807 5.944C82.904 54 85 50.964 85 48.056c0-2.917-2.096-5.951-5.798-5.951M8.124 48.052c0-1.45.941-2.87 2.679-2.87 1.739 0 2.648 1.36 2.679 2.796v.148c-.03 1.437-.94 2.798-2.68 2.798-1.737 0-2.678-1.421-2.678-2.872M13.44 37v5.837c-.755-.46-1.658-.732-2.704-.732-3.746 0-5.737 3.06-5.737 5.95C5 50.939 6.991 54 10.737 54c2.813 0 3.864-1.426 5.827-2.37V37H13.44Zm12.386.002-.005.792h-1.098l.005 2.883h-.81v-2.883H22.82v-.792zm3.601 0v.792h-1.099v2.883h-.81v-2.883h-1.097v-.792zM19.764 37l1.595 2.359v-2.357h.776v3.675h-.851l-1.586-2.35v2.35h-.778V37zm4.36 13.924c-1.737 0-2.68-1.421-2.68-2.872 0-1.45.943-2.87 2.68-2.87 1.74 0 2.68 1.42 2.68 2.87 0 1.45-.94 2.872-2.68 2.872m.004-8.82c-3.708 0-5.804 3.035-5.804 5.952 0 2.908 2.096 5.944 5.804 5.944 3.702 0 5.798-3.036 5.798-5.944 0-2.917-2.096-5.951-5.798-5.951m23.535 8.819c-1.738 0-2.68-1.421-2.68-2.872 0-1.45.942-2.87 2.68-2.87 1.738 0 2.679 1.42 2.679 2.87 0 1.45-.941 2.872-2.679 2.872m.004-8.82c-3.71 0-5.807 3.035-5.807 5.952 0 2.908 2.098 5.944 5.807 5.944 3.702 0 5.799-3.036 5.799-5.944 0-2.917-2.097-5.951-5.8-5.951" fill="#FFF"/></svg>