<svg xmlns="http://www.w3.org/2000/svg" viewBox="0 0 90 90"><path fill="#FFF" d="M0 0h90v90H0z"/><g fill="#E83817"><path d="M45.014 26c-9.413 0-17.037 6.151-17.037 13.735S35.601 53.47 45.014 53.47 62.05 47.32 62.05 39.735 54.413 26 45.014 26Zm0 27.184s-.62-13.449-14.312-20.542c0 0 13.128 6.657 28.293.014 0 0-12.082 5.224-13.981 20.528Z"/><path d="M45.014 56.99c-12.482 0-20.587-7.148-21.413-17.132h.289c.908 6.151 6.138 15.003 21.124 15.003 14.986 0 20.215-8.852 21.124-15.003h.289c-.826 9.984-8.918 17.131-21.413 17.131Z"/><path d="M45.014 60.495c-12.124 0-23.684-6.561-25.693-20.637h.262C21.674 52.188 33.096 58.353 45 58.353c11.904 0 23.27-6.001 25.417-18.495h.29C69.15 53.593 57.33 60.495 45 60.495h.014Z"/><path d="M45.014 64C31.294 64 16.32 56.403 15 39.858h.248C18.178 56.635 33.867 61.845 45 61.845s26.835-5.21 29.752-21.987H75C73.679 56.403 58.706 64 44.986 64h.028Z"/></g></svg>