<svg xmlns="http://www.w3.org/2000/svg" viewBox="0 0 90 90"><path fill="#F8F1E6" d="M0 0h90v90H0z"/><path d="m46.35 85 12.756-27.687c5.345-13.17-3.129-23.424-14.108-23.424-10.98 0-19.449 10.264-14.103 23.424L43.65 85h2.7Z" fill="#FF7009"/><path d="M57.989 12.208c-1.99 0-3.407.857-4.717 2.715l-3.772 5.35V5h-9v15.274l-3.772-5.35c-1.31-1.86-2.728-2.716-4.717-2.716-3.002 0-5.002 2.19-5.012 4.887-.008 2.31 1.096 3.815 3.42 5.293L45 31.667l14.58-9.279c2.323-1.478 3.428-2.983 3.42-5.293-.01-2.698-2.009-4.887-5.011-4.887Z" fill="#0AAD0A"/></svg>