<svg xmlns="http://www.w3.org/2000/svg" viewBox="0 0 90 90"><path fill="#FFF" d="M0 0h90v90H0z"/><path d="m39.87 52.359-6.056-1.749c4.831 12.478 16.44 11.364 16.44 11.364C45.003 59.49 39.87 52.36 39.87 52.36ZM33.204 41.87l5.641 2.122s.627-13.025 15.98-14.355c0 0-15.685-4.854-21.621 12.231v.001Z" fill="#222D64"/><path d="M36.389 44.838c-29.434-10.999-2.462-8.532-2.462-8.532s-38.514-4.997 1.458 10.33c23.584 9.043 46.002 4.533 46.002 4.533s-18.593 3.535-44.998-6.332Z" fill="#3F60AC"/><path d="M30.803 46.106c-37.379-14.713-4.387-11.34-4.387-11.34s-49.095-7.609 1.383 13.511C57.88 60.863 85 53.092 85 53.092s-21.115 6.036-54.197-6.986Z" fill="#3F60AC"/></svg>