<svg xmlns="http://www.w3.org/2000/svg" viewBox="0 0 90 90"><path fill="#FFF" d="M0 0h90v90H0z"/><g transform="translate(15 17)"><path d="M56.13 16.396V44.05a4.675 4.675 0 0 1-2.631 4.174L30.072 59.536a4.656 4.656 0 0 1-4.053 0l-13.845-6.703-9.542-4.675A4.622 4.622 0 0 1 0 43.984V16.33a4.61 4.61 0 0 1 2.632-4.135L26.045.49a4.67 4.67 0 0 1 4.159 0l23.374 11.759a4.649 4.649 0 0 1 2.553 4.148Z" fill="#FF0211"/><ellipse fill="#4DC9FF" cx="47.418" cy="17.054" rx="12.582" ry="12.589"/><path d="m7.725 40.1-2.46-1.212v-7.282c0-2.134 1.197-4.267 3.671-4.017a6.252 6.252 0 0 1 4.66 3.621 3.156 3.156 0 0 1 2.802-.79c1.316.172 6.041 1.95 6.041 8.415v8.573l-2.698-1.317v-8.06a4.28 4.28 0 0 0-3.382-4.53c-.803-.078-1.5.567-1.514 1.95-.013 1.382 0 8.177 0 8.177l-2.474-1.211v-7.625c0-3.358-2.171-4.398-3.119-4.503-.54 0-1.527.276-1.527 2.001v7.81Z" fill="#FFF"/></g></svg>