<svg xmlns="http://www.w3.org/2000/svg" viewBox="0 0 90 90"><path fill="#241635" d="M0 0h90v90H0z"/><g transform="translate(19 15)" fill="#997AB8"><path d="M51.685 57.484h-18.82c-.44 0-.7.497-.447.857l1 1.429a.53.53 0 0 0 .435.228h17.832c.68 0 1.23-.552 1.23-1.228v-.057a1.23 1.23 0 0 0-1.23-1.229Zm-6.505-4.79H29.505c-.44 0-.7.497-.447.857l1 1.43a.53.53 0 0 0 .435.227H45.18c.68 0 1.23-.552 1.23-1.228v-.057a1.23 1.23 0 0 0-1.23-1.228ZM38.683 47.9H26.127a.546.546 0 0 0-.448.857l1 1.429c.1.143.263.228.436.228h11.568c.68 0 1.23-.552 1.23-1.229v-.057a1.23 1.23 0 0 0-1.23-1.228Zm-6.427-4.787h-9.471c-.44 0-.7.496-.447.856l1 1.43a.53.53 0 0 0 .435.227h8.483c.68 0 1.23-.551 1.23-1.228v-.057a1.23 1.23 0 0 0-1.23-1.228Zm-6.538-4.79h-6.29a.545.545 0 0 0-.448.857l1 1.428c.1.144.262.228.436.228h5.302c.68 0 1.23-.551 1.23-1.228v-.057a1.23 1.23 0 0 0-1.23-1.228Zm-6.441-4.79H16.05c-.44 0-.7.497-.447.857l1 1.429a.53.53 0 0 0 .436.227h2.237c.68 0 1.23-.551 1.23-1.228v-.057a1.23 1.23 0 0 0-1.23-1.228Z"/><ellipse cx="13.798" cy="29.999" rx="1.26" ry="1.258"/><path d="M19.277 23.954h-2.221a.528.528 0 0 0-.436.227l-1 1.43a.545.545 0 0 0 .447.856h3.212c.68 0 1.23-.552 1.23-1.228v-.057a1.23 1.23 0 0 0-1.23-1.228h-.002Zm6.414-4.793h-5.275a.528.528 0 0 0-.436.228l-1 1.429a.545.545 0 0 0 .447.857h6.264c.68 0 1.23-.552 1.23-1.228v-.057a1.23 1.23 0 0 0-1.23-1.229Zm6.537-4.79h-8.436a.528.528 0 0 0-.436.229l-1 1.428a.545.545 0 0 0 .447.857h9.423c.68 0 1.23-.551 1.23-1.228V15.6a1.23 1.23 0 0 0-1.23-1.228h.002Zm6.428-4.79H27.124a.528.528 0 0 0-.436.229l-1 1.428a.545.545 0 0 0 .448.857h12.518c.68 0 1.23-.551 1.23-1.228v-.057a1.23 1.23 0 0 0-1.23-1.228h.002Zm6.494-4.789H30.487a.528.528 0 0 0-.436.228l-1 1.429a.545.545 0 0 0 .447.856h15.65c.68 0 1.23-.551 1.23-1.228V6.02a1.23 1.23 0 0 0-1.23-1.228h.002ZM51.767 0H33.87a.528.528 0 0 0-.436.228l-1 1.429a.545.545 0 0 0 .448.856H51.77c.68 0 1.23-.551 1.23-1.228v-.057A1.23 1.23 0 0 0 51.77 0h-.003ZM24.27 59.14l-1-1.428a.531.531 0 0 0-.436-.228h-1.048v.016a1.301 1.301 0 0 0-.19-.016H1.26a1.259 1.259 0 1 0 0 2.516h20.336a1.3 1.3 0 0 0 .19-.016V60h2.035c.44 0 .701-.497.448-.857v-.002Zm-3.374-4.789-1-1.429a.531.531 0 0 0-.436-.227h-1.047v.02a1.37 1.37 0 0 0-.217-.02H1.26a1.259 1.259 0 1 0 0 2.515h16.937c.075 0 .146-.007.217-.02v.02h2.036c.44 0 .7-.497.447-.857l-.002-.002Zm-3.401-4.794-1-1.429a.531.531 0 0 0-.436-.228H1.313a1.259 1.259 0 1 0 0 2.516h15.736c.44 0 .7-.497.447-.857l-.002-.002Zm-3.34-4.785-1-1.43a.531.531 0 0 0-.435-.227h-.957l-.057-.002H1.26a1.259 1.259 0 1 0 0 2.515h10.411l2.036.003c.44 0 .7-.497.447-.857v-.002Zm-3.35-4.793-1-1.428a.531.531 0 0 0-.436-.228H1.28a1.259 1.259 0 1 0 0 2.516h9.077a.545.545 0 0 0 .448-.857l-.002-.003Zm-3.358-4.79-1-1.428a.531.531 0 0 0-.436-.228H1.28a1.259 1.259 0 1 0 0 2.516h5.718a.545.545 0 0 0 .448-.857v-.002ZM4.76 31.257H1.281a1.259 1.259 0 1 1 0-2.516h3.478c.696 0-.146.563-.146 1.258 0 .695.842 1.258.146 1.258ZM7 23.954H1.28a1.259 1.259 0 1 0 0 2.515h4.727a.528.528 0 0 0 .436-.228l1-1.428a.545.545 0 0 0-.448-.857l.002-.002Zm3.357-4.79H1.281a1.259 1.259 0 1 0 0 2.515h8.09a.528.528 0 0 0 .435-.227l1-1.43a.545.545 0 0 0-.448-.856l-.002-.002Zm3.374-4.79H1.28a1.259 1.259 0 1 0 0 2.516h11.462a.528.528 0 0 0 .436-.228l1-1.429a.545.545 0 0 0-.448-.857v-.002Zm3.33-4.792H1.278a1.259 1.259 0 1 0 0 2.516H16.07a.528.528 0 0 0 .436-.228l1-1.43a.545.545 0 0 0-.448-.856l.002-.002Zm3.37-4.79H1.28a1.259 1.259 0 1 0 0 2.516h18.16a.528.528 0 0 0 .436-.228l1-1.429a.545.545 0 0 0-.448-.857l.002-.002Zm3.428-4.79H1.28a1.257 1.257 0 1 0 0 2.514h21.59a.528.528 0 0 0 .435-.228l1-1.429a.545.545 0 0 0-.447-.857Z"/></g></svg>