<svg xmlns="http://www.w3.org/2000/svg" viewBox="0 0 90 90"><path fill="#FFF" d="M0 0h90v90H0z"/><path d="M71.274 59.475C78.489 46.379 74.959 29.97 62.998 21c-11.961-8.97-28.702-7.764-39.253 2.829-10.551 10.592-11.692 27.338-2.674 39.263 9.018 11.926 25.44 15.39 38.507 8.125l13.966 2.26-2.27-14.002Z" fill="#19BD85"/><path d="M56.97 38.963h-5.982v-5.981a5.981 5.981 0 1 0-11.963 0v5.981h-5.981a5.981 5.981 0 0 0 0 11.963h5.981v5.98a5.981 5.981 0 1 0 11.963 0v-5.98h5.981a5.981 5.981 0 0 0 0-11.963Z" fill="#FFF"/></svg>