<svg xmlns="http://www.w3.org/2000/svg" viewBox="0 0 90 90"><defs><linearGradient x1="50%" y1="0%" x2="50%" y2="100%" id="a"><stop stop-color="#2D2E32" offset="0%"/><stop stop-color="#101112" offset="100%"/></linearGradient></defs><path fill="url(#a)" d="M0 0h90v90H0z"/><path d="M62.998 65.917a27.884 27.884 0 0 0 1.483-1.38c10.775-10.775 10.775-28.244 0-39.018-10.774-10.775-28.244-10.775-39.018 0-.482.481-.942.976-1.38 1.483l38.915 38.915Zm-3.287 2.442-38.07-38.07a27.378 27.378 0 0 0-1.982 3.744l36.308 36.308a27.391 27.391 0 0 0 3.744-1.982Zm-8.021 3.433L18.208 38.31a27.68 27.68 0 0 0-.77 4.957l29.295 29.295a27.684 27.684 0 0 0 4.957-.77Zm-10.954.501-23.03-23.029a27.466 27.466 0 0 0 7.757 15.273 27.467 27.467 0 0 0 15.273 7.756Z" fill="#E2E4E6"/></svg>