<svg xmlns="http://www.w3.org/2000/svg" viewBox="0 0 90 90"><path fill="#FFF" d="M0 0h90v90H0z"/><path d="M71.588 26.008c.216-.026.435.012.628.111s.35.253.453.443a1.05 1.05 0 0 1-.138 1.195l-13.553 14.5a2.212 2.212 0 0 0-.101 2.917l13.915 17.129a1.06 1.06 0 0 1-.382 1.58 1.091 1.091 0 0 1-.604.111h-8.368a1.256 1.256 0 0 1-.994-.451L47.5 45.173a2.225 2.225 0 0 1 .102-2.924l14.843-15.847a1.272 1.272 0 0 1 .943-.394Zm-53.176 0h8.201a1.284 1.284 0 0 1 .943.394L42.399 42.25a2.225 2.225 0 0 1 .101 2.924l-14.944 18.37a1.244 1.244 0 0 1-.994.451h-8.368a1.091 1.091 0 0 1-1.05-.529 1.06 1.06 0 0 1 .064-1.162l13.915-17.13a2.212 2.212 0 0 0-.101-2.917l-13.553-14.5a1.055 1.055 0 0 1 .315-1.638c.193-.099.412-.137.628-.11Z" fill="#333"/></svg>