<svg xmlns="http://www.w3.org/2000/svg" viewBox="0 0 90 90"><path fill="#33DDB3" d="M0 0h90v90H0z"/><path d="M22.018 33.615A2.614 2.614 0 0 1 24.634 31a2.614 2.614 0 0 1 2.617 2.615 2.614 2.614 0 0 1-2.617 2.615 2.614 2.614 0 0 1-2.616-2.615ZM13 31.276h4.68v28.32H13v-28.32Zm63.298 8.122c-2.701 5.762-5.721 9.95-5.721 9.95L77 59.575h-5.53l-3.956-6.315C63.558 57.79 59.623 60 55.837 60c-4.616 0-6.509-3.295-6.509-7.037 0-.419.006-.934.012-1.43v-.001c.005-.463.01-.91.01-1.248 0-4.954-.51-6.358-2.191-6.124-3.212.447-8.083 7.74-11.252 15.436h-4.403V39.398h4.68v10.057c2.68-4.487 5.126-8.356 9.06-9.844 2.276-.872 4.212-.49 5.212-.043 3.637 1.595 3.615 5.507 3.573 10.737-.021.702-.021 1.446-.021 2.232 0 1.914.531 2.743 1.829 2.87a3.747 3.747 0 0 0 2.212-.488V31.276h4.68V51.56s4.062-3.699 8.358-12.16h5.211Zm-49.324 0h-4.68v20.198h4.68V39.398Z" fill="#1D3944"/></svg>