<svg xmlns="http://www.w3.org/2000/svg" viewBox="0 0 90 90"><path fill="#FFF" d="M0 0h90v90H0z"/><g fill="#0072C6"><path d="M52.457 28.333v12.274l3.98 2.7a.945.945 0 0 0 .437 0L74 30.863c0-1.473-1.275-2.529-1.994-2.529H52.457Z"/><path d="m52.46 43.988 3.63 2.581c.512.39 1.128 0 1.128 0C56.604 46.96 74 35 74 35v21.654C74 59.011 72.542 60 70.902 60H52.457V43.988h.002Zm-18.974-5.655c-1.294 0-2.325.613-3.086 1.837-.761 1.224-1.143 2.844-1.143 4.86 0 2.046.382 3.664 1.143 4.853.761 1.191 1.76 1.784 2.994 1.784 1.273 0 2.284-.579 3.029-1.736.745-1.156 1.12-2.763 1.12-4.816 0-2.14-.361-3.807-1.086-4.998-.724-1.19-1.714-1.784-2.971-1.784Z"/><path d="M16 21.76v45.916L50.8 75V15L16 21.76Zm23.287 30.72c-1.47 1.943-3.388 2.917-5.755 2.917-2.305 0-4.182-.942-5.635-2.824-1.45-1.884-2.178-4.336-2.178-7.36 0-3.193.737-5.776 2.212-7.748 1.475-1.971 3.428-2.959 5.86-2.959 2.296 0 4.155.942 5.572 2.83 1.42 1.89 2.129 4.377 2.129 7.467.002 3.175-.735 5.735-2.205 7.678Z"/></g></svg>