<svg xmlns="http://www.w3.org/2000/svg" viewBox="0 0 90 90"><path fill="#B996F7" d="M0 0h90v90H0z"/><path d="m24.328 44.666 3.621-3.621c.967-.967 2.62-.334 2.672 1.037.07 1.758.37 3.48.95 5.15a1.572 1.572 0 0 1-.37 1.618l-1.283 1.283c-2.742 2.742-2.83 7.207-.105 9.967a7.049 7.049 0 0 0 9.966.087l6.592-6.609a7.045 7.045 0 0 0-1.02-10.793 1.536 1.536 0 0 1-.685-1.23 3.933 3.933 0 0 1 1.143-2.918l2.056-2.057a1.552 1.552 0 0 1 2.004-.176c6.733 4.694 8.367 13.975 3.674 20.69-.492.703-1.037 1.353-1.354 1.67l-6.873 6.873c-5.8 5.8-15.222 5.8-21.023 0-5.8-5.801-5.766-15.17.035-20.971Z" fill-opacity=".4" fill="#FFF"/><path d="M60.064 39.867c2.743-2.742 2.83-7.207.106-9.967a7.049 7.049 0 0 0-9.967-.087l-.035.035-6.557 6.556a7.045 7.045 0 0 0 1.02 10.793c.422.282.668.739.685 1.23a3.933 3.933 0 0 1-1.142 2.919L42.1 53.402a1.552 1.552 0 0 1-2.004.176c-6.733-4.693-8.385-13.974-3.674-20.69a13.477 13.477 0 0 1 1.652-1.95l.035-.036 6.557-6.556c5.8-5.801 15.223-5.801 21.023 0 5.801 5.8 5.801 15.222 0 21.023l-3.638 3.604c-.967.966-2.62.334-2.672-1.037-.07-1.758-.37-3.48-.95-5.15a1.572 1.572 0 0 1 .37-1.618l1.265-1.3Z" fill="#FFF"/></svg>