<svg xmlns="http://www.w3.org/2000/svg" viewBox="0 0 90 90"><path fill="#FFF" d="M0 0h90v90H0z"/><path d="M71.994 20.042c0-1.06-.568-1.783-1.598-2.03a95.727 95.727 0 0 0-11.312-2.122 153.375 153.375 0 0 0-8.267-.769c-2.142-.135-4.295-.1-6.443-.116a86.285 86.285 0 0 0-10.103.485c-1.822.208-3.644.412-5.456.686A103.244 103.244 0 0 0 19.672 18c-1.107.272-1.655.941-1.655 2.076v13.766h-.01c0 4.247-.023 8.49.014 12.74.002 1.517.095 3.034.278 4.541.436 3.343 1.863 6.275 4.04 8.848 2.365 2.783 5.064 5.22 7.92 7.479a78.176 78.176 0 0 0 12.21 7.879c1.709.894 3.403.906 5.092-.024 1.38-.76 2.771-1.5 4.12-2.31C56.91 69.849 61.744 66.2 65.99 61.82c1.628-1.678 3.075-3.483 4.134-5.577 1.4-2.772 1.847-5.756 1.857-8.804.034-9.132.014-18.266.014-27.398ZM27.392 51.857h-3.047V27.712h3.047v24.145Zm6.5-5.084h-3.05V32.796h3.05v13.977Zm6.418 2.542h-3.05V30.254h3.05v19.06Zm6.417 6.354h-3.048v-31.77h3.048v31.77Z" fill="#268334"/></svg>