<svg xmlns="http://www.w3.org/2000/svg" viewBox="0 0 90 90"><path fill="#FFF" d="M0 0h90v90H0z"/><path d="m45 31 15.5 6.989h9.66v2.847H75V60H15V40.836h4.84v-2.847h9.67L45 31Zm19.58 14.52c-1.44 0-2.525.518-3.235 1.538a3.213 3.213 0 0 0-.155 3.157c.65 1.116 1.69 1.583 2.7 2.04.42.188.85.38 1.25.62.46.273.695.685.6 1.055-.1.38-.54.64-1.1.64-.075 0-.15-.006-.255-.02-.965-.133-2.82-.798-3.2-.935l-.135-.05v2.502l.035.01c.05.015 2.135.7 3.99.7 1.02 0 1.79-.203 2.285-.609a3.51 3.51 0 0 0 1.205-2.461 2.857 2.857 0 0 0-.305-1.335l-.05-.102c-.45-.893-1.45-1.634-3.07-2.278l-.055-.02c-.325-.128-1.295-.508-1.4-1.117a.7.7 0 0 1 .23-.604c.205-.203.515-.31.93-.31.655 0 1.405.264 1.795.427l1.54.639.07.03v-2.283l-.025-.016a9.315 9.315 0 0 0-3.12-1.197 6.507 6.507 0 0 0-.525-.02Zm-39.99 8.263V42.912h-2.705v13.464h6.885v-2.588h-4.18v-.005Zm34.18-5.73V45.5h-6.395v10.876h6.4v-2.553h-3.7V52.17h3.7v-2.451h-3.7v-1.67h3.7l-.005.005Zm-20.655-1.167a1.346 1.346 0 0 0-1.3-1.386H31.55a1.33 1.33 0 0 0-.934.422c-.244.26-.375.61-.366.969v8.095c0 .766.58 1.39 1.3 1.39h5.27c.72 0 1.3-.624 1.3-1.39V46.89l-.005-.005Zm4.25 6.948V45.5H39.59v9.49c0 .762.59 1.386 1.315 1.386h3.275c.55 0 1.065-.406 1.065-.984 0 .583.515.984 1.065.984h3.275a1.356 1.356 0 0 0 1.315-1.39V45.5h-2.77v8.334h-1.67V45.5h-2.43v8.334h-1.67.005Zm-9.39-5.781h2.4v5.77h-2.4v-5.77Zm28.315-2.03.425-3.111H59.26v3.1l2.03.006v.005Z" fill="#01216A"/></svg>