<svg xmlns="http://www.w3.org/2000/svg" viewBox="0 0 90 90"><defs><linearGradient x1=".004%" y1="50%" x2="100.001%" y2="50%" id="a"><stop stop-color="#E5004D" offset="42%"/><stop stop-color="#E71940" offset="44%"/><stop stop-color="#EC4829" offset="47%"/><stop stop-color="#F06E17" offset="50%"/><stop stop-color="#F2890A" offset="53%"/><stop stop-color="#F49A02" offset="56%"/><stop stop-color="#F5A000" offset="58%"/></linearGradient></defs><path fill="#FFF" d="M0 0h90v90H0z"/><path d="m70.253 62.09 4.358-4.357a1.325 1.325 0 0 0 0-1.876l-10.86-10.86-4.913 4.913a1.325 1.325 0 0 1-1.876 0l4.122 4.122-6.89-.726a.801.801 0 0 0-.883.883l.727 6.89-8.099-8.099a1.325 1.325 0 0 0-1.876 0l-8.098 8.099.727-6.89a.802.802 0 0 0-.884-.883l-6.89.726 4.123-4.122a1.325 1.325 0 0 1-1.876 0l-4.913-4.913-10.86 10.86a1.325 1.325 0 0 0 0 1.876l4.355 4.355c.35.35.844.522 1.337.46l7.282-.914-.914 7.282a1.6 1.6 0 0 0 .46 1.337l4.358 4.358a1.325 1.325 0 0 0 1.876 0l10.86-10.86 10.86 10.86a1.325 1.325 0 0 0 1.876 0l4.354-4.355c.35-.35.522-.844.46-1.337l-.914-7.282 7.282.914c.494.061.987-.107 1.338-.46h-.009Z"/><path d="m59.61 17.264-4.354-4.355a1.61 1.61 0 0 0-1.337-.46l-7.283.914.915-7.282a1.601 1.601 0 0 0-.46-1.337L42.736.389a1.325 1.325 0 0 0-1.876 0L30 11.25 19.14.39a1.325 1.325 0 0 0-1.876 0l-4.355 4.355a1.61 1.61 0 0 0-.46 1.337l.914 7.282-7.282-.914a1.601 1.601 0 0 0-1.337.46L.389 17.264a1.325 1.325 0 0 0 0 1.876l15.773 15.773a1.325 1.325 0 0 0 1.876 0l3.976-3.977a1.325 1.325 0 0 0 0-1.875l-8.098-8.098 6.89.726a.801.801 0 0 0 .883-.884l-.726-6.89 8.098 8.099a1.325 1.325 0 0 0 1.875 0l8.099-8.098-.727 6.89a.802.802 0 0 0 .884.883l6.89-.726-8.099 8.098a1.325 1.325 0 0 0 0 1.875l3.976 3.977a1.325 1.325 0 0 0 1.876 0L59.608 19.14a1.325 1.325 0 0 0 0-1.876h.003Z" fill="url(#a)" transform="translate(15 15)"/></svg>