<svg xmlns="http://www.w3.org/2000/svg" viewBox="0 0 90 90"><defs><linearGradient x1="0%" y1="0%" x2="100%" y2="100%" id="a"><stop stop-color="#735AF5" offset="0%"/><stop stop-color="#570DC8" offset="100%"/></linearGradient></defs><path fill="url(#a)" d="M0 0h90v90H0z"/><path d="M32.313 67.156v.88c-.495-.655-1.41-1.103-2.471-1.103-2.508 0-4.375 2.262-4.375 4.919 0 2.73 1.849 4.919 4.375 4.919 1.06 0 1.976-.43 2.47-1.123v.879h3.129v-9.371h-3.128Zm4.207-4.152v13.523h3.241v-4.998c0-.973.457-1.551 1.189-1.551.731 0 1.117.503 1.117 1.44v5.105h3.239V70.63c0-2.282-1.208-3.702-3.149-3.702a2.89 2.89 0 0 0-1.34.275 2.95 2.95 0 0 0-1.075.865V63l-3.222.004Zm29.63 8.842c0 2.804-2.104 4.919-4.904 4.919-2.801 0-4.906-2.115-4.906-4.919 0-2.805 2.105-4.919 4.906-4.919 2.8 0 4.905 2.114 4.905 4.919Zm-10.359 0c0 2.804-2.104 4.919-4.903 4.919-2.799 0-4.905-2.115-4.905-4.919 0-2.805 2.104-4.919 4.905-4.919 2.8 0 4.903 2.114 4.903 4.919ZM15 67.15l3.916 9.446L17.507 80h3.44l5.216-12.85H22.74l-2.123 5.498-2.105-5.5L15 67.15Zm15.5 6.622a1.829 1.829 0 0 1-1.35-.55 1.942 1.942 0 0 1-.554-1.373 1.94 1.94 0 0 1 .554-1.372 1.826 1.826 0 0 1 1.35-.549 1.823 1.823 0 0 1 1.336.556 1.936 1.936 0 0 1 .544 1.366 1.935 1.935 0 0 1-.544 1.366 1.823 1.823 0 0 1-1.337.556Zm22.218-1.922a1.882 1.882 0 0 0-.522-1.343 1.772 1.772 0 0 0-1.308-.547 1.772 1.772 0 0 0-1.308.547 1.882 1.882 0 0 0-.522 1.343 1.88 1.88 0 0 0 .522 1.342 1.799 1.799 0 0 0 1.308.545 1.77 1.77 0 0 0 1.308-.545 1.88 1.88 0 0 0 .522-1.342Zm10.358 0a1.881 1.881 0 0 0-.522-1.343 1.772 1.772 0 0 0-1.308-.547 1.772 1.772 0 0 0-1.309.547 1.88 1.88 0 0 0-.522 1.343 1.878 1.878 0 0 0 .522 1.342c.171.176.375.315.6.409.225.094.466.14.709.136a1.77 1.77 0 0 0 1.308-.545 1.88 1.88 0 0 0 .522-1.342Zm3.477 2.69a2.156 2.156 0 0 0 .607 1.531 2.041 2.041 0 0 0 1.496.625c.287.002.57-.054.836-.165a2.18 2.18 0 0 0 .71-.482 2.252 2.252 0 0 0 .633-1.58 2.156 2.156 0 0 0-.151-.828 2.118 2.118 0 0 0-.456-.703c-.196-.2-.43-.36-.688-.465a2.03 2.03 0 0 0-.81-.154 2.13 2.13 0 0 0-.835.167 2.167 2.167 0 0 0-.708.483 2.222 2.222 0 0 0-.472.723 2.26 2.26 0 0 0-.164.853l.002-.004Zm4.612-11.532-3.45 8.486h3.845L75 63.002l-3.835.006ZM68 18a3 3 0 0 1 3 3v28a3 3 0 0 1-3 3H22a3 3 0 0 1-3-3V21a3 3 0 0 1 3-3h46Zm-1 4H23v5l22 11 22-11v-5Z" fill="#FFF"/></svg>