<svg xmlns="http://www.w3.org/2000/svg" xmlns:xlink="http://www.w3.org/1999/xlink" viewBox="0 0 90 90"><defs><radialGradient cx="45.213%" cy="34.733%" fx="45.213%" fy="34.733%" r="46.751%" gradientTransform="matrix(0 .7564 -1 0 .8 .005)" id="d"><stop stop-color="#FFF" offset="0%"/><stop stop-color="#FFF" stop-opacity=".7" offset="72.318%"/><stop stop-color="#FFF" stop-opacity=".35" offset="100%"/></radialGradient><linearGradient x1="50%" y1="0%" x2="50%" y2="100%" id="a"><stop stop-color="#FFE000" offset="0%"/><stop stop-color="#FFBC00" offset="51.031%"/><stop stop-color="#FF9D00" offset="74.935%"/><stop stop-color="#FF6A00" offset="100%"/></linearGradient><path id="b" d="M0 0h90v90H0z"/></defs><path d="M90 28.03c0-1.069 0-2.137-.006-3.206-.005-.9-.016-1.8-.04-2.7-.053-1.96-.169-3.938-.518-5.877-.353-1.967-.93-3.798-1.841-5.585a18.782 18.782 0 0 0-8.217-8.213c-1.79-.91-3.622-1.488-5.591-1.842-1.94-.348-3.918-.463-5.879-.516-.9-.025-1.8-.035-2.7-.04C64.137.043 63.068.043 62 .043L49.587 0h-9.284L28.11.044c-1.071 0-2.142 0-3.214.006-.902.006-1.804.016-2.706.04-1.965.054-3.948.17-5.892.518-1.972.353-3.807.93-5.599 1.84a18.831 18.831 0 0 0-8.234 8.213C1.553 12.45.975 14.281.62 16.25c-.35 1.938-.465 3.916-.518 5.876-.025.9-.035 1.8-.04 2.7C.054 25.892 0 27.22 0 28.288v21.408l.055 12.28c0 1.07 0 2.14.006 3.21.006.901.016 1.802.04 2.703.054 1.964.17 3.944.52 5.886.354 1.97.932 3.803 1.844 5.592a18.813 18.813 0 0 0 8.233 8.225c1.793.912 3.63 1.49 5.602 1.844 1.943.349 3.925.464 5.89.517.902.025 1.804.035 2.707.04 1.07.007 2.142.007 3.213.007H62c1.069 0 2.138 0 3.207-.006.9-.006 1.801-.016 2.701-.04 1.962-.054 3.94-.17 5.881-.518 1.968-.354 3.8-.932 5.588-1.843a18.789 18.789 0 0 0 8.218-8.225c.91-1.79 1.488-3.624 1.842-5.595.348-1.941.464-3.92.517-5.884.024-.9.035-1.802.04-2.703.006-1.07.006-2.14.006-3.21V28.03" fill="#FFF"/><path d="M90 28.03c0-1.069 0-2.137-.006-3.206-.005-.9-.016-1.8-.04-2.7-.053-1.96-.169-3.938-.518-5.877-.353-1.967-.93-3.798-1.841-5.585a18.782 18.782 0 0 0-8.217-8.213c-1.79-.91-3.622-1.488-5.591-1.842-1.94-.348-3.918-.463-5.879-.516-.9-.025-1.8-.035-2.7-.04C64.137.043 63.068.043 62 .043L49.587 0h-9.284L28.11.044c-1.071 0-2.142 0-3.214.006-.902.006-1.804.016-2.706.04-1.965.054-3.948.17-5.892.518-1.972.353-3.807.93-5.599 1.84a18.831 18.831 0 0 0-8.234 8.213C1.553 12.45.975 14.281.62 16.25c-.35 1.938-.465 3.916-.518 5.876-.025.9-.035 1.8-.04 2.7C.054 25.892 0 27.22 0 28.288v21.408l.055 12.28c0 1.07 0 2.14.006 3.21.006.901.016 1.802.04 2.703.054 1.964.17 3.944.52 5.886.354 1.97.932 3.803 1.844 5.592a18.813 18.813 0 0 0 8.233 8.225c1.793.912 3.63 1.49 5.602 1.844 1.943.349 3.925.464 5.89.517.902.025 1.804.035 2.707.04 1.07.007 2.142.007 3.213.007H62c1.069 0 2.138 0 3.207-.006.9-.006 1.801-.016 2.701-.04 1.962-.054 3.94-.17 5.881-.518 1.968-.354 3.8-.932 5.588-1.843a18.789 18.789 0 0 0 8.218-8.225c.91-1.79 1.488-3.624 1.842-5.595.348-1.941.464-3.92.517-5.884.024-.9.035-1.802.04-2.703.006-1.07.006-2.14.006-3.21V28.03"/><path d="M90 28.03c0-1.069 0-2.137-.006-3.206-.005-.9-.016-1.8-.04-2.7-.053-1.96-.169-3.938-.518-5.877-.353-1.967-.93-3.798-1.841-5.585a18.782 18.782 0 0 0-8.217-8.213c-1.79-.91-3.622-1.488-5.591-1.842-1.94-.348-3.918-.463-5.879-.516-.9-.025-1.8-.035-2.7-.04C64.137.043 63.068.043 62 .043L49.587 0h-9.284L28.11.044c-1.071 0-2.142 0-3.214.006-.902.006-1.804.016-2.706.04-1.965.054-3.948.17-5.892.518-1.972.353-3.807.93-5.599 1.84a18.831 18.831 0 0 0-8.234 8.213C1.553 12.45.975 14.281.62 16.25c-.35 1.938-.465 3.916-.518 5.876-.025.9-.035 1.8-.04 2.7C.054 25.892 0 27.22 0 28.288v21.408l.055 12.28c0 1.07 0 2.14.006 3.21.006.901.016 1.802.04 2.703.054 1.964.17 3.944.52 5.886.354 1.97.932 3.803 1.844 5.592a18.813 18.813 0 0 0 8.233 8.225c1.793.912 3.63 1.49 5.602 1.844 1.943.349 3.925.464 5.89.517.902.025 1.804.035 2.707.04 1.07.007 2.142.007 3.213.007H62c1.069 0 2.138 0 3.207-.006.9-.006 1.801-.016 2.701-.04 1.962-.054 3.94-.17 5.881-.518 1.968-.354 3.8-.932 5.588-1.843a18.789 18.789 0 0 0 8.218-8.225c.91-1.79 1.488-3.624 1.842-5.595.348-1.941.464-3.92.517-5.884.024-.9.035-1.802.04-2.703.006-1.07.006-2.14.006-3.21V28.03"/><path d="M0 0h90v90H0z" fill="url(#a)"/><mask id="c" fill="#fff"><use xlink:href="#b"/></mask><g mask="url(#c)"><path d="M56.263 109.168 9.13 148.201l-6.677-38.068 47.573-12.73a31.981 31.981 0 0 1-.71-3.121 31.604 31.604 0 0 1-.168-9.922L0 76.522l.887-33.606 52.034 30.368a31.523 31.523 0 0 1 9.19-10.196L24.937 10.054l35.218 1.29 12.13 47.012a31.592 31.592 0 0 1 2.425-.528 31.03 31.03 0 0 1 13.308.525L103.315 0l8.783 50.076-11.92 14.56a31.377 31.377 0 0 1 10.795 18.717c3.003 17.115-8.366 33.436-25.392 36.454a31.52 31.52 0 0 1-3.11.394v-9.787c.475-.052.95-.12 1.427-.205 11.752-2.083 19.6-13.35 17.528-25.164-2.073-11.814-13.28-19.703-25.033-17.62-11.752 2.084-19.6 13.35-17.528 25.164 1.807 10.298 10.553 17.614 20.552 17.942v9.752c-9.075-.203-17.465-4.38-23.154-11.115Z" fill="url(#d)" transform="translate(-7.031 -14.7)"/><path d="M49.231 94.467 2.1 133.5l-6.678-38.068 47.574-12.729a31.981 31.981 0 0 1-.71-3.122 31.604 31.604 0 0 1-.168-9.922l-49.15-7.838.888-33.606L45.89 58.583a31.523 31.523 0 0 1 9.19-10.196L17.904-4.647l35.219 1.29 12.13 47.012a31.592 31.592 0 0 1 2.425-.528 31.03 31.03 0 0 1 13.308.525L96.283-14.7l8.784 50.077-11.921 14.558a31.377 31.377 0 0 1 10.796 18.718c3.002 17.115-8.366 33.437-25.392 36.454a31.52 31.52 0 0 1-3.11.394v-9.787c.475-.052.95-.12 1.427-.205 11.752-2.083 19.6-13.349 17.527-25.163-2.072-11.815-13.28-19.704-25.032-17.62-11.753 2.083-19.6 13.35-17.528 25.163 1.807 10.298 10.553 17.614 20.552 17.943v9.751c-9.075-.203-17.465-4.38-23.155-11.115Z" fill="#FFF" fill-opacity=".1"/></g></svg>