<svg xmlns="http://www.w3.org/2000/svg" viewBox="0 0 90 90"><path fill="#E69A9C" d="M0 0h90v90H0z"/><path d="M37.504 15.206c-4.207 1.125-8.966 4.35-13.912 9.414-4.525 4.62-7.361 9.016-8.37 12.968-.21.82-.245 1.219-.21 2.462.058 1.735.316 2.638 1.23 4.138C18.682 48.245 28.469 58.07 32.7 60.72c3.141 1.981 6.388 1.829 10.83-.481 6.13-3.2 13.514-10.587 16.714-16.719 2.31-4.443 2.462-7.691.48-10.833-2.648-4.233-12.47-14.023-16.526-16.461-1.559-.938-2.39-1.184-4.243-1.22-1.29-.023-1.746.012-2.45.2Z" fill="#FFF"/><path d="M37.504 15.206c-4.207 1.125-8.966 4.35-13.912 9.414-4.525 4.62-7.361 9.016-8.37 12.968-.21.82-.245 1.219-.21 2.462.058 1.735.316 2.638 1.23 4.138C18.682 48.245 28.469 58.07 32.7 60.72c3.141 1.981 6.388 1.829 10.83-.481 6.13-3.2 13.514-10.587 16.714-16.719 2.31-4.443 2.462-7.691.48-10.833-2.648-4.233-12.47-14.023-16.526-16.461-1.559-.938-2.39-1.184-4.243-1.22-1.29-.023-1.746.012-2.45.2Zm.985 3.752c.422.398.469.832.176 1.7-.598 1.793-2.38 4.724-4.407 7.269-1.36 1.688-5.286 5.627-6.845 6.858-1.676 1.337-3.435 2.474-5.017 3.248-1.57.774-1.828 1.044-1.758 1.817.07.692.352 1.126.879 1.349.387.152.48.152 1.254-.094 5.298-1.7 13.972-9.79 17.71-16.496.845-1.513 1.63-3.436 1.9-4.631.117-.493.257-.903.316-.903.328 0 3.528 2.614 5.954 4.842 3.634 3.365 7.994 8.207 9.236 10.282 1.383 2.31 1.29 4.455-.34 7.656-2.86 5.616-10.056 12.827-15.659 15.676-3.223 1.641-5.415 1.747-7.665.375-3.189-1.946-11.065-9.65-14.347-14.034-2.157-2.896-2.239-4.936-.305-8.735 1.465-2.896 3.435-5.452 6.787-8.793 3.739-3.752 6.622-5.874 9.951-7.351 1.043-.458 1.711-.47 2.18-.035Z" fill="#4D4D4D"/><path d="M43.177 29.732c-1.172.528-1.758 1.911-1.277 3.037.375.903 1.29 1.547 2.215 1.547 1.383 0 2.391-1.008 2.403-2.391 0-1.736-1.782-2.908-3.34-2.193Z" fill="#4D4D4D"/><path d="M51.628 32.792c-.597.305-.855.54-1.195 1.114-.61 1.055-.434 2.333.445 3.213 1.711 1.688 4.56.504 4.548-1.888a2.749 2.749 0 0 0-1.664-2.486c-.598-.258-1.571-.234-2.134.047Z" fill="#EDB498"/><path d="M46.541 40.026c-.082.035-.656.669-1.289 1.419-1.301 1.57-2.286 2.568-3.54 3.576-1.453 1.172-1.64 1.372-1.64 1.794 0 .293.128.48.644.973 1.442 1.371 3.294 1.618 5.18.703 2.615-1.254 3.939-4.42 2.79-6.671-.703-1.383-1.5-2.052-2.145-1.794Zm-15.424 1.853c-1.196.422-1.864 1.805-1.454 3.001.446 1.325 1.934 1.993 3.235 1.454 1.582-.668 1.922-2.744.645-3.951-.668-.645-1.536-.82-2.426-.504Z" fill="#4D4D4D"/><path d="M34.398 50.203c-2.848 1.02-2.156 5.217.868 5.217 2.38 0 3.54-2.849 1.863-4.549-.75-.75-1.781-1.008-2.73-.668Z" fill="#EDB498"/><path d="M65.588 43.66c-.82.81-.95.634 3.704 5.277 3.774 3.787 4.16 4.138 4.524 4.138.54 0 1.184-.644 1.184-1.195 0-.352-.34-.727-4.138-4.526-4.641-4.643-4.465-4.514-5.274-3.693ZM55.426 55.42c-.82.821-.961.61 3.669 5.253 2.262 2.274 4.243 4.162 4.383 4.197.586.153 1.547-.809 1.395-1.395-.035-.14-1.922-2.122-4.196-4.397-4.642-4.62-4.43-4.478-5.251-3.658ZM43.67 65.585c-.82.821-.95.633 3.704 5.288C51.148 74.648 51.534 75 51.898 75c.54 0 1.184-.645 1.184-1.184 0-.364-.352-.75-4.138-4.526-4.641-4.654-4.466-4.525-5.274-3.705Z" fill="#4D4D4D"/></svg>