<svg xmlns="http://www.w3.org/2000/svg" viewBox="0 0 90 90"><path fill="#3088D4" d="M0 0h90v90H0z"/><path d="M45.896 10c-9.046.073-17.748 1.042-22.818 3.346 0 0-10.057 4.45-10.057 19.636 0 3.477-.069 7.635.043 12.044.365 14.85 2.752 29.486 16.63 33.12 6.4 1.676 11.893 2.026 16.318 1.786 8.024-.44 12.528-2.833 12.528-2.833l-.265-5.76s-5.734 1.789-12.173 1.571c-6.38-.217-13.116-.68-14.148-8.43a15.699 15.699 0 0 1-.143-2.174s6.263 1.515 14.2 1.875c4.854.22 9.406-.282 14.029-.827 8.865-1.048 16.584-6.452 17.555-11.39 1.528-7.778 1.402-18.982 1.402-18.982 0-15.185-10.056-19.636-10.056-19.636-5.07-2.304-13.777-3.273-22.823-3.346h-.222ZM35.658 21.865c3.768 0 6.621 1.433 8.508 4.299L46 29.205l1.835-3.041c1.886-2.866 4.739-4.299 8.507-4.299 3.256 0 5.88 1.133 7.884 3.342 1.942 2.21 2.91 5.195 2.91 8.953v18.387h-7.364V34.7c0-3.762-1.6-5.672-4.8-5.672-3.539 0-5.312 2.266-5.312 6.744v9.768h-7.32v-9.768c0-4.478-1.773-6.744-5.312-6.744-3.2 0-4.8 1.91-4.8 5.672v17.846h-7.363V34.16c0-3.758.967-6.744 2.91-8.953 2.003-2.21 4.627-3.342 7.883-3.342Z" fill="#FFF"/></svg>