<svg xmlns="http://www.w3.org/2000/svg" viewBox="0 0 90 90"><defs><linearGradient x1="0%" y1="0%" x2="100%" y2="100%" id="a"><stop stop-color="#297D79" offset="0%"/><stop stop-color="#0977A7" offset="100%"/></linearGradient></defs><path fill="url(#a)" d="M0 0h90v90H0z"/><path d="m56.728 33.952 8.764 5.12c.54.27.674.943.404 1.482l-.134.202-.607 1.078v.202l.943.808.203.135c.135.135.202.27.202.471l-.202 3.571c0 .539-.27 1.078-.607 1.415l-3.708 3.907c-.27.337-.471.741-.471 1.145l.067 1.954c0 .54.337 1.078.809 1.347l2.022 1.213.674.404c.337.202.81.135 1.079-.27l.404-.673 3.034-4.716a.37.37 0 0 1 .337-.202l.607-.134c2.022 4.041 3.033 8.623 2.966 13.136v.472c-1.753.404-3.236 1.684-3.775 3.503l-.877 2.762c-.27.741-.606 1.482-1.146 2.088l-.606.741-8.494.405-.068-.607c0-.067-.067-.067-.067-.067l-1.416.067-14.089.472c.135-.27.202-.606.27-.876l.135-.539a6.156 6.156 0 0 0 2.292-3.84l.809-4.042c.404-2.02.134-4.042-.742-5.928l-1.213-2.493c-.472-1.01-.607-2.156-.337-3.233l2.561-9.904c.135-.606.54-1.212 1.011-1.616l.068-.068.202.404.472.876.27.472a.708.708 0 0 0 .606.337h1.281c.337 0 .607-.135.876-.27l.81-.606.202-.135a.96.96 0 0 0 .404-.808v-.27l.202-3.907c0-.068.068-.135.135-.135l1.55-.606 1.349-.54c.135-.067.202-.201.135-.336l-.607-1.347-.202-.405c-.068-.134 0-.202.067-.336l1.146-1.28Zm-.54-1.954-1.887 2.358a1.543 1.543 0 0 0-.202 1.684l.27.606-1.82.674c-.54.202-.877.741-.944 1.28l-.202 3.503c0 .404-.203.741-.54.943l-.27.202c-.067.068-.134.068-.202.068h-.27a.37.37 0 0 1-.336-.202l-.068-.135a1.679 1.679 0 0 1-.202-1.145l.202-.876c.135-.539 0-1.01-.337-1.415-.067-.067-.135-.067-.202 0L46.751 41.7c-.741.606-1.28 1.482-1.55 2.425l-2.562 9.903c-.404 1.482-.202 3.032.404 4.38l1.147 2.29c.741 1.482.943 3.233.606 4.85l-.809 4.042c-.202 1.146-.876 2.156-1.82 2.897-.27.202-.472.54-.54.876l-.134.54c-.067.47-.337.875-.607 1.211-.337.405-.404 1.011-.27 1.55l.068.202 16.247-.539.067.606c0 .068.067.068.067.068l10.651-.472 1.08-1.28c.606-.74 1.078-1.617 1.415-2.56l.876-2.762c.472-1.347 1.685-2.358 3.168-2.492h.337c.203 0 .405-.202.405-.472V65.48a30.684 30.684 0 0 0-3.168-14.013l-.405-.808c-.067-.135-.202-.202-.337-.135l-1.888.404c-.404.068-.741.337-.943.674L65.29 56.25c-.135.202-.337.202-.54.135l-1.28-.74a.741.741 0 0 1-.405-.675l-.068-1.28c0-.134.068-.27.135-.404l3.506-3.772c.606-.674 1.011-1.55 1.078-2.426l.203-3.57c.067-.674-.203-1.348-.742-1.752l-.202-.135.135-.202c.741-1.28.337-2.964-.944-3.705l-9.775-5.726-.067-.067h-.135v.067ZM30.977 15.29c-.135.135-.27.337-.337.54l-1.55 3.503-.945 2.088c-.134.27.068.539.405.472l2.224-.27 1.955-.27h.203c.606 0 1.146.27 1.483.81l1.415 2.155.54.74c.067.136.27.203.404.136l.877-.27 1.348-.404c.135-.067.27-.067.404-.067.27 0 .607.067.877.27l.943.605.944.607a.416.416 0 0 0 .472-.068l.742-.875.606-.742a3.592 3.592 0 0 1 2.764-1.28h.068l3.707.068c.742 0 1.483-.337 1.955-.876h.607l-.068.337a2.341 2.341 0 0 0 .405 1.617c.337.471.876.74 1.416.808l3.235.337c.203 0 .405.202.472.404l.203.607c.134.471.337.875.606 1.28l-1.348-.068h-.135c-.809 0-1.483.404-1.955.943-.606-.74-1.483-1.28-2.494-1.28l-1.753-.067h-.135c-.876 0-1.685.539-2.09 1.347-.067.068-.134.135-.202.135l-2.224.067c-.877 0-1.685.405-2.292.944l-2.832 2.694-.27-.067-.269-.943-.337-1.078c-.067-.202-.202-.27-.404-.27l-1.146.27-.472.067c-.742.135-1.348.741-1.55 1.482l-.068.337c-.337 1.145-.81 2.29-1.416 3.301-.135-.404-.404-.808-.674-1.145v-.539c.068-1.482-.809-2.83-2.157-3.301l-.27-.067c-.202-.674-.606-1.348-1.146-1.82-.674-.538-1.55-.875-2.427-.875-.27 0-.539 0-.809.067l-.674.135-9.64-3.57c-.134-.27-.27-.607-.472-.809 1.08-.337 2.023-1.078 2.562-2.021h1.483c1.281 0 2.494-.674 3.303-1.684l.135-.135c.877 0 1.82-.606 1.82-1.55l3.978-2.761ZM31.92 13c-.337 0-.606.067-.876.27l-4.921 3.368c-.27.202-.54.471-.607.808-.135.405-.27.472-.741.472-.27 0-.472.135-.674.337l-.337.471a2.37 2.37 0 0 1-1.955 1.01h-2.225a.37.37 0 0 0-.337.203l-.202.404a2.89 2.89 0 0 1-2.157 1.55l-1.753.27a.145.145 0 0 0-.135.134l.067.808c0 .202.135.472.405.54l.27.134c.539.27.876.674 1.01 1.28l.068.27c0 .067.068.134.135.134l10.651 4.11c.068 0 .135.067.27 0l1.01-.203c.136-.067.338-.067.473-.067 1.011 0 1.887.741 2.022 1.752l.068.404c0 .067.067.135.134.135l1.012.404c.741.27 1.146.943 1.146 1.684l-.068 1.213c0 .067 0 .134.068.134.472.337.741.809.876 1.415l.067.337c.135.674.54 1.28 1.146 1.617h.135l.472-.606A13.857 13.857 0 0 0 39 32.604l.067-.337a.812.812 0 0 1 .337-.337l.54-.134.404 1.28c.067.337.337.539.674.673l.944.27c.067 0 .202.067.27.067.27 0 .539-.134.741-.27l3.034-2.896c.337-.337.809-.539 1.213-.539l2.832-.067c.539 0 1.01-.472 1.01-1.01.135-.27.338-.405.607-.405l1.753.067c.607 0 1.146.404 1.483.943v.068c.202.404.674.673 1.079.673h.944c.067 0 .067-.067.134-.067l.135-.539a.8.8 0 0 1 .809-.674h.067l4.247.203c.068 0 .135 0 .135-.068.27-.471.135-1.01-.27-1.347l-.539-.337c-.606-.404-1.01-1.01-1.28-1.752l-.203-.606c-.27-.876-1.011-1.482-1.887-1.55l-3.236-.336c-.27 0-.472-.27-.405-.54l.337-2.02c0-.068-.067-.135-.134-.202l-2.225-.068h-.067c-.472 0-.944.202-1.281.607-.202.202-.472.336-.742.336l-3.707-.067h-.068c-1.55 0-3.033.674-3.977 1.886l-.607.741-.944-.606c-.539-.337-1.146-.539-1.752-.539-.27 0-.607.068-.877.135l-1.348.404-1.483-2.425c-.607-.943-1.685-1.482-2.831-1.482h-.472l-1.955.27 1.55-3.504c.068-.202.337-.337.54-.404.674-.067 1.213-.472 1.618-1.01l.876-1.348c.067-.135 0-.27-.135-.27l-2.899-.404c0-.067-.067-.067-.135-.067Z" fill="#FFF"/></svg>