<svg xmlns="http://www.w3.org/2000/svg" viewBox="0 0 90 90"><path fill="#FFF" d="M0 0h90v90H0z"/><path d="M5 36.11h25.188c1.6-2.488 3.702-4.46 6.311-5.921C39.107 28.729 41.937 28 44.994 28c3.054 0 5.891.732 8.509 2.197 2.617 1.465 4.718 3.437 6.297 5.912H85l-2.494 2.485H61.174c.44.943.772 1.926.997 2.951h17.444l-2.494 2.488H62.557c.043.641.064 1.128.064 1.459 0 .33-.021.82-.064 1.461h11.635l-2.497 2.485h-9.524a13.47 13.47 0 0 1-.997 2.937h7.547l-2.527 2.485H59.8c-1.58 2.479-3.68 4.457-6.297 5.93-2.618 1.474-5.455 2.21-8.51 2.21-3.056 0-5.886-.734-8.494-2.201-2.609-1.47-4.711-3.45-6.311-5.939h-6.382l-2.48-2.485h7.532c-.434-.922-.763-1.9-.986-2.937h-9.518l-2.527-2.485h11.632a23.534 23.534 0 0 1-.063-1.461c0-.331.02-.818.063-1.46H12.926L10.4 41.546h17.473c.223-1.025.552-2.008.986-2.95H7.494L5 36.108Zm26.146 3.557a14.645 14.645 0 0 0-1.192 5.825c0 2.03.398 3.973 1.192 5.826.793 1.852 1.864 3.452 3.21 4.797 1.346 1.345 2.946 2.413 4.8 3.208a14.665 14.665 0 0 0 5.838 1.192c2.035 0 3.983-.397 5.844-1.192 1.858-.795 3.463-1.863 4.808-3.208 1.346-1.345 2.417-2.945 3.219-4.797.8-1.853 1.2-3.797 1.2-5.826 0-2.03-.4-3.971-1.2-5.825-.802-1.853-1.873-3.45-3.219-4.79-1.345-1.339-2.95-2.405-4.808-3.2a14.723 14.723 0 0 0-5.844-1.192c-2.037 0-3.984.397-5.838 1.192-1.854.795-3.454 1.861-4.8 3.2-1.346 1.34-2.417 2.937-3.21 4.79Zm1.846 9.771h1.559l-.045-5.888 1.887 5.888 1.733-.01 1.852-5.847v5.857h1.664v-7.893l-2.343-.002-2.01 6.295-2.049-6.286-2.248-.007v7.893Zm10.443 0h1.651v-7.893h-1.651v7.893Zm3.444 0h1.59v-5.685l3.163 5.685h1.918v-7.893h-1.56v5.719l-3.162-5.719h-1.949v7.893Zm8.494 0h1.62v-7.893h-1.62v7.893Z"/></svg>