<svg xmlns="http://www.w3.org/2000/svg" viewBox="0 0 90 90"><path fill="#FFF" d="M0 0h90v90H0z"/><g fill="#2585E5"><path d="M0 27.088c0 21.621.053 27.053.229 26.93.175-.106 14.15-11.497 15.064-12.288.21-.175 1.916-.07 9.352.563l9.07.756 8.771-5.203c4.817-2.866 8.948-5.274 9.194-5.362.351-.14 2.215.352 9.28 2.409l8.86 2.566 10.09-6.469 10.072-6.469L90 12.252V0H0v27.088Z"/><path d="m80.156 35.086-9.738 6.258-8.947-2.584c-4.922-1.406-9.07-2.531-9.229-2.461-.14.053-4.183 2.426-8.982 5.273l-8.72 5.168-8.086-.685c-4.447-.387-8.437-.739-8.877-.791l-.808-.088-8.332 6.82-8.35 6.82-.053 15.592L0 90h90V59.414c0-16.822-.035-30.586-.053-30.586-.035 0-4.447 2.813-9.79 6.258ZM53.437 44.12V45h-1.932v-1.758h1.934v.88Zm17.93 0V45h-1.933v-1.758h1.933v.88Zm-54.14 10.283v.967h-1.758v-1.934h1.758v.967Zm17.841 0v.88l-.914.052-.931.053V53.42l.931.053.914.052v.88Zm18.405-.07c.017.492.017.932-.018.967-.035.035-.457.07-.932.07h-.843v-1.934h1.722l.07.897Zm17.894.07v.967h-1.933v-1.934h1.933v.967Zm-54.14 10.371v.967h-1.758V63.81h1.758v.966Zm17.753 0v.967h-1.758V63.81h1.758v.966Zm18.598-.052-.053.931h-1.757l-.053-.931-.053-.914h1.969l-.053.914Zm17.79-.035v.878h-1.934V63.81h1.933v.879ZM53.612 74.97v.966h-1.758v-.843c0-.475.053-.914.124-.967.052-.07.457-.123.878-.123h.756v.967Zm17.754 0v.966h-1.932v-1.932h1.933v.967Zm-54.14.088v.879h-1.758V74.18h1.758v.879Zm17.753 0v.879h-1.758V74.18h1.758v.879ZM17.227 85.342v.967h-1.758v-1.934h1.758v.967Zm17.753 0v.967h-1.758v-1.934h1.758v.967Zm18.81 0v.967h-1.935v-1.934h1.934v.967Zm17.542-.053-.053.932h-1.758l-.052-.932-.053-.914h1.969l-.053.914Z"/></g></svg>