<svg xmlns="http://www.w3.org/2000/svg" viewBox="0 0 90 90"><path fill="#3291F0" d="M0 0h90v90H0z"/><path d="M44.435 59.559c-11.949-.918-15.83-7.468-16.913-12 0 0 2.336.632 5.388 1.05.009.001.825.115.842-.103.032-.418-6.88-2.452-10.228-8.189-2.613-4.477-2.773-8.77-2.773-8.77 7.012 1.353 11.32 3.048 33.38 2.499 6.831 0 9.879 1.412 9.879 9.78 0 5.843-2.557 15.62-19.575 15.733M75 43.513c0-1.095-1.161-1.797-2.597-2.248l.029-.029s-.086-.007-.222-.03a13.19 13.19 0 0 0-.706-.185c-.323-.119-.67-.301-.93-.582-.3-.323-.48-.735-.59-1.088-.91-6.07-4.353-11.622-15.853-11.622H34.158c-.676-.023-2.512-.128-6.86-.604-4.218-.461-7.992-1.79-8.027-1.802L15.57 24l-.46 3.93c-.055.478-1.255 11.565 5.853 17.192l-.006.065c-.273 2.976.866 9.47 7.042 14.722 13.387 11.385 31.58 4.238 36.235-.77 2.913-3.135 5.002-6.837 5.724-11.28.106-.37.292-.826.618-1.178.141-.152.308-.275.483-.375a14.6 14.6 0 0 0 1.373-.421h.001C73.855 45.36 75 44.6 75 43.513m-17.506-5.676c-1.55 0-2.593.961-2.593 2.733 0 1.651 1.043 2.583 2.593 2.583 1.52 0 2.624-.991 2.624-2.613 0-1.772-.925-2.703-2.624-2.703" fill="#FFF"/></svg>