<svg xmlns="http://www.w3.org/2000/svg" viewBox="0 0 90 90"><path fill="#FFF" opacity=".987" d="M0 0h90v90H0z"/><g fill="#81BB41"><path d="M56.911 67.08c-6.785 13.089-33.287 11.328-41.025-3.27 12.393 9.327 27.771 5.863 41.025 3.27ZM69 67.972C63.269 74.046 57.588 82.865 46.614 83 54.582 78.83 57.285 67.27 69 67.972Z"/><path d="M46.816 65.556c-10.011 1.751-20.049-2.134-26.225-10.116-8.024-9.465-10.925-20.937-2.55-31.149-4.752 17.613 15.22 30.808 28.775 41.265Z"/><path d="M39.373 53.404C16.388 41.614 28.918 4.71 53.166 7.112c-18.142 7.52-19.037 29.934-13.793 46.292Z"/></g></svg>