<svg xmlns="http://www.w3.org/2000/svg" viewBox="0 0 90 90"><path fill="#FFF" d="M0 0h90v90H0z"/><path d="M64.92 42.891c.035-.307.035-.614.035-.955C64.955 33.684 58.325 27 50.14 27c-7.272 0-13.292 5.252-14.611 12.14a6.247 6.247 0 0 0-5.75-3.82c-3.484 0-6.29 2.865-6.29 6.344 0 .511.067 1.023.168 1.5C18.754 44.017 15 48.347 15 53.531c0 4.433 2.74 8.218 6.561 9.753l16.133-16.266a13.132 13.132 0 0 0 3.044 4.637c1.353 1.364 2.875 2.387 4.6 3.07L36.138 64l31.489-.034c4.261-1.33 7.373-5.73 7.373-10.47.033-5.728-4.465-10.4-10.08-10.605Zm-4.058-5.695a.81.81 0 0 1-.744.41l-8.996-.171-3.078 5.15 2.908 5.115c.102 0 .914 0 2.47-.035 1.521 0 2.942 0 4.193.035 1.252.034 1.962.068 2.097.17.237.136.372.307.406.546a.967.967 0 0 1-.135.682c-.372.58-1.015 1.296-1.996 2.114a11.551 11.551 0 0 1-6.73 2.694 11.508 11.508 0 0 1-7.035-1.671c-2.807-1.705-4.6-4.16-5.378-7.4-.778-3.24-.338-6.24 1.353-9.07 1.691-2.831 4.126-4.639 7.34-5.423 3.212-.784 6.189-.341 8.996 1.364.88.546 1.725 1.228 2.537 2.046.811.853 1.42 1.705 1.792 2.558.135.307.135.614 0 .886Z"/></svg>