<svg xmlns="http://www.w3.org/2000/svg" viewBox="0 0 90 90"><defs><linearGradient x1="35.48%" y1="94.97%" x2="62.941%" y2="1.138%" id="a"><stop stop-color="#D4202C" offset="0%"/><stop stop-color="#DC3D29" stop-opacity=".79" offset="10%"/><stop stop-color="#E45926" stop-opacity=".58" offset="20%"/><stop stop-color="#EB7123" stop-opacity=".4" offset="32%"/><stop stop-color="#F08521" stop-opacity=".25" offset="43%"/><stop stop-color="#F5941F" stop-opacity=".14" offset="55%"/><stop stop-color="#F89F1E" stop-opacity=".06" offset="68%"/><stop stop-color="#F9A51D" stop-opacity=".02" offset="82%"/><stop stop-color="#FAA71D" stop-opacity="0" offset="100%"/></linearGradient><linearGradient x1="64.533%" y1="5.03%" x2="37.047%" y2="98.862%" id="b"><stop stop-color="#D4202C" offset="0%"/><stop stop-color="#DC3D29" stop-opacity=".79" offset="10%"/><stop stop-color="#E45926" stop-opacity=".58" offset="20%"/><stop stop-color="#EB7123" stop-opacity=".4" offset="32%"/><stop stop-color="#F08521" stop-opacity=".25" offset="43%"/><stop stop-color="#F5941F" stop-opacity=".14" offset="55%"/><stop stop-color="#F89F1E" stop-opacity=".06" offset="68%"/><stop stop-color="#F9A51D" stop-opacity=".02" offset="82%"/><stop stop-color="#FAA71D" stop-opacity="0" offset="100%"/></linearGradient></defs><path d="M81.604 20a8.364 8.364 0 0 0-7.338 4.412l-.19.338-6.606 13.059-8.365 16.5 5.474 10.809.308.603a8.564 8.564 0 0 0 3.61 3.397 8.564 8.564 0 0 0 3.655-3.456l.294-.603 16.438-32.353.397-.78A8.264 8.264 0 0 0 90 28.515a8.45 8.45 0 0 0-2.431-6.006A8.416 8.416 0 0 0 81.604 20ZM30.91 35.706 25.45 24.94l-.308-.53a8.609 8.609 0 0 0-3.61-3.529 8.637 8.637 0 0 0-3.685 3.53l-.293.588L1.116 57.368l-.397.78a8.448 8.448 0 0 0 4.088 10.734 8.416 8.416 0 0 0 10.986-3.294l.176-.338 6.62-13.059 8.35-16.485h-.03Z" fill="#FF5100"/><path d="M81.59 0a8.408 8.408 0 0 0-7.339 4.412l-.176.338-6.605 13.059-8.365 16.5 5.474 10.809.308.603a8.564 8.564 0 0 0 3.61 3.397 8.637 8.637 0 0 0 3.655-3.456l.294-.603 16.438-32.353.397-.78A8.264 8.264 0 0 0 90 8.515a8.45 8.45 0 0 0-2.437-6.011A8.416 8.416 0 0 0 81.59 0Z" fill="url(#a)" transform="translate(0 20)"/><path d="M8.425 50a8.378 8.378 0 0 0 7.338-4.412l.176-.338 6.62-13.059 8.366-16.5L25.45 4.882l-.293-.47A8.564 8.564 0 0 0 21.53.882a8.476 8.476 0 0 0-3.684 3.53l-.308.603L1.116 37.368l-.397.78A8.265 8.265 0 0 0 0 41.557C0 46.222 3.772 50 8.425 50Z" fill="url(#b)" transform="translate(0 20)"/><path d="M30.91 35.706 25.45 24.94l-.308-.53a8.476 8.476 0 0 0-3.61-3.529A8.438 8.438 0 0 1 25.215 20h11.462a8.48 8.48 0 0 1 7.339 4.338l.308.603 14.794 29.412 5.46 10.765.294.603a8.637 8.637 0 0 0 3.625 3.397A8.411 8.411 0 0 1 64.77 70H53.322a8.48 8.48 0 0 1-7.339-4.324l-.293-.602-14.78-29.368Z" fill="#FF8C44"/></svg>