<svg xmlns="http://www.w3.org/2000/svg" viewBox="0 0 90 90"><path fill="#005EB8" d="M0 0h90v90H0z"/><path d="M86.629 31.292 84.737 37.1a14.852 14.852 0 0 0-6.465-1.334c-3.107 0-5.63.456-5.63 2.8 0 4.134 11.383 2.592 11.383 11.452 0 8.063-7.522 10.156-14.324 10.156a32.999 32.999 0 0 1-9.073-1.51l1.85-5.936c1.55 1.006 4.662 1.675 7.245 1.675 2.437 0 6.256-.46 6.256-3.469 0-4.688-11.383-2.928-11.383-11.153 0-7.526 6.64-9.802 13.066-9.802 3.614 0 7.015.38 8.988 1.279m-22.579-.759-6.09 29.167h-7.85l2.604-12.49H43.47l-2.63 12.49h-7.85L39.085 30.5h7.85l-2.306 11.157h9.282l2.31-11.157zm-27.884 0-6.214 29.167h-9.75l-6.13-20.183h-.085L9.934 59.666H2.557L8.801 30.5h9.802l6.009 20.226h.08l4.1-20.226z" fill="#FFF"/></svg>