<svg xmlns="http://www.w3.org/2000/svg" viewBox="0 0 90 90"><path fill="#F3C4D7" opacity=".976" d="M0 0h90v90H0z"/><path d="M45 78a21.457 21.457 0 0 1-15.273-6.37l-14.4-14.5c-8.436-8.494-8.436-22.265 0-30.76 8.15-8.206 21.192-8.484 29.673-.832 8.481-7.652 21.524-7.374 29.673.833 8.436 8.494 8.436 22.265 0 30.759l-14.4 14.5A21.457 21.457 0 0 1 45 78" fill="#FF69AD"/><path d="M40.755 38.362c0 .945-.76 1.71-1.698 1.71a1.704 1.704 0 0 1-1.698-1.71c0-.944.76-1.71 1.698-1.71s1.698.766 1.698 1.71" fill="#461036"/><path d="M40.755 38.362c0 .945-.76 1.71-1.698 1.71a1.704 1.704 0 0 1-1.698-1.71c0-.944.76-1.71 1.698-1.71s1.698.766 1.698 1.71Z" stroke="#461036" stroke-width="1.63"/><path d="M52.641 38.362c0 .945-.76 1.71-1.698 1.71a1.704 1.704 0 0 1-1.698-1.71c0-.944.76-1.71 1.698-1.71s1.698.766 1.698 1.71" fill="#461036"/><path d="M52.641 38.362c0 .945-.76 1.71-1.698 1.71a1.704 1.704 0 0 1-1.698-1.71c0-.944.76-1.71 1.698-1.71s1.698.766 1.698 1.71Z" stroke="#461036" stroke-width="1.63"/><path d="M39.06 45.204c2.718 4.466 9.162 4.466 11.88 0" stroke="#461036" stroke-linecap="round" stroke-linejoin="round" stroke-width="2.717"/><path d="M72.17 43.492c0-4.722-3.802-8.55-8.49-8.55-4.69 0-8.491 3.828-8.491 8.55 0 4.722 3.801 8.55 8.49 8.55 4.69 0 8.49-3.828 8.49-8.55m-37.358 0c0-4.722-3.801-8.55-8.49-8.55-4.69 0-8.49 3.828-8.49 8.55 0 4.722 3.8 8.55 8.49 8.55 4.689 0 8.49-3.828 8.49-8.55" fill="#E34198"/><path d="M39.06 45.204c2.718 4.466 9.162 4.466 11.88 0" stroke="#461036" stroke-linecap="round" stroke-linejoin="round" stroke-width="2.717"/></svg>