<svg xmlns="http://www.w3.org/2000/svg" viewBox="0 0 90 90"><path fill="#FFF" d="M0 0h90v90H0z"/><path d="m52.29 52.693 14.449-13.557c-3.001-11.482-14.922-18.403-26.624-15.458-5.27 1.326-9.848 4.531-12.84 8.99.224-.005 25.015 20.025 25.015 20.025Z" fill="#0364B8"/><path d="M36.692 35.22v.003a17.663 17.663 0 0 0-9.193-2.56c-.075 0-.148.004-.223.005-9.66.118-17.394 7.896-17.275 17.373a16.94 16.94 0 0 0 3.143 9.604l21.647-2.66 16.596-13.13-14.695-8.635Z" fill="#0078D4"/><path d="M66.739 39.136a14.401 14.401 0 0 0-6.596 1.106v-.001l-8.756 3.615 9.653 11.698 17.257 4.116c3.724-6.783 1.138-15.244-5.775-18.897a14.425 14.425 0 0 0-5.783-1.637Z" fill="#1490DF"/><path d="M13.144 59.645c3.269 4.61 8.631 7.358 14.355 7.355h38.28c5.23.001 10.037-2.814 12.518-7.33l-26.91-15.814-38.243 15.789Z" fill="#28A8EA"/></svg>