<svg xmlns="http://www.w3.org/2000/svg" viewBox="0 0 90 90"><defs><linearGradient x1="31.533%" y1="107.25%" x2="56.499%" y2="17.395%" id="a"><stop stop-color="#0083B9" offset="0%"/><stop stop-color="#0FF" offset="49.6%"/><stop stop-color="#00F500" offset="99.5%"/></linearGradient><linearGradient x1="42.81%" y1="85.092%" x2="67.774%" y2="-4.771%" id="b"><stop stop-color="#0083B9" offset="0%"/><stop stop-color="#0FF" offset="49.6%"/><stop stop-color="#00F500" offset="99.5%"/></linearGradient><linearGradient x1="-114.95%" y1="125.468%" x2="156.012%" y2="-1.71%" id="c"><stop stop-color="#0083B9" offset="0%"/><stop stop-color="#0FF" offset="49.6%"/><stop stop-color="#00F500" offset="99.5%"/></linearGradient><linearGradient x1="-45.466%" y1="98.293%" x2="144.284%" y2="-12.456%" id="d"><stop stop-color="#0083B9" offset="0%"/><stop stop-color="#0FF" offset="49.6%"/><stop stop-color="#00F500" offset="99.5%"/></linearGradient></defs><path fill="#121217" d="M0 0h90v90H0z"/><path d="M33.937 46.647c2.227-.472 4.104-1.408 5.611-2.833 2.26-2.13 2.579-5 2.579-8.604V19.134c0-3.604-.32-6.473-2.579-8.604-1.51-1.424-3.386-2.362-5.611-2.833V0c3.674.529 6.707 1.908 9.088 4.156 3.114 2.936 5.838 6.891 5.838 11.862v21.966c0 4.97-2.724 8.924-5.838 11.862-2.381 2.246-5.414 3.628-9.088 4.156v-7.355Z" fill="url(#a)" transform="translate(20.57 18)"/><path d="M5.837 4.156C8.216 1.91 11.252.529 14.924 0v7.697c-2.225.473-4.101 1.409-5.611 2.833-2.257 2.13-2.581 4.982-2.581 8.55v16.13c0 3.605.324 6.474 2.58 8.604 1.51 1.425 3.387 2.36 5.612 2.833V54c-3.672-.529-6.705-1.908-9.087-4.156C2.725 46.908 0 42.952 0 37.982v-22.04c0-4.921 2.725-8.85 5.837-11.786Z" fill="url(#b)" transform="translate(20.57 18)"/><path d="m19.208 6.766 2.502-4.012L16.49 0l-2.2 4.17c-.32.604-.92.967-1.604.967s-1.285-.36-1.605-.968L8.881 0 3.71 2.73l3.595 5.76 11.902-1.723v-.002Z" fill="url(#c)" transform="translate(32.488 32.438)"/><path d="M25.704 9.664 0 9.887v5.19l8.055-.027-4.345 6.964 5.17 2.73 2.201-4.17c.32-.605.92-.968 1.604-.968s1.285.363 1.605.968l2.2 4.17 5.22-2.755-3.521-5.643-6.75-1.305 14.263-.047V9.668l.002-.004Z" fill="url(#d)" transform="translate(32.488 32.438)"/></svg>