<svg xmlns="http://www.w3.org/2000/svg" viewBox="0 0 90 90"><path fill="#FFF" d="M0 0h90v90H0z"/><path fill="#B4BACD" d="M0 0h90v90H0z"/><path d="M6.38 45c0 21.33 17.29 38.62 38.62 38.62S83.62 66.33 83.62 45 66.33 6.38 45 6.38 6.38 23.67 6.38 45Z" fill="#FFF"/><path d="M45 14.655c16.759 0 30.345 13.586 30.345 30.345 0 16.76-13.586 30.345-30.345 30.345S14.655 61.759 14.655 45 28.241 14.655 45 14.655" fill="#1A8CFF"/><path d="M5 45c0 22.092 17.908 40 40 40s40-17.908 40-40S67.092 5 45 5 5 22.908 5 45Zm1.38 0C6.38 23.672 23.667 6.38 45 6.38c21.332 0 38.62 17.292 38.62 38.62 0 21.328-17.288 38.62-38.62 38.62C23.668 83.62 6.38 66.329 6.38 45Z" opacity=".5"/><path d="M83.566 42.931c.036.685.055 1.375.055 2.069C83.62 66.33 66.33 83.62 45 83.62 23.67 83.62 6.38 66.33 6.38 45c0-.694.018-1.384.054-2.069C7.509 63.299 24.364 79.483 45 79.483c20.476 0 37.231-15.935 38.538-36.082l.028-.47ZM45 10.517c18.663 0 33.793 15.13 33.793 33.793 0 10.435-4.729 19.764-12.16 25.963 6.208-5.79 10.091-14.044 10.091-23.204 0-17.52-14.203-31.724-31.724-31.724-17.52 0-31.724 14.203-31.724 31.724 0 9.16 3.882 17.413 10.09 23.204-7.43-6.2-12.16-15.529-12.16-25.963 0-18.663 15.13-33.793 33.794-33.793Z" fill-opacity=".052"/><path d="M45 14.655c16.761 0 30.345 13.588 30.345 30.345 0 16.757-13.584 30.345-30.345 30.345-16.593 0-30.073-13.317-30.34-29.843L14.654 45c0-16.757 13.584-30.345 30.345-30.345Zm0 1.38c-15.997 0-28.966 12.968-28.966 28.965 0 15.998 12.969 28.966 28.966 28.966 15.997 0 28.966-12.968 28.966-28.966 0-15.997-12.969-28.966-28.966-28.966Z" opacity=".256"/><path d="M45.154 20.862a24.205 24.205 0 0 0-24.292 24.292c0 13.227 10.857 23.984 24.292 23.984 13.177 0 23.984-10.807 23.984-23.984 0-13.435-10.757-24.292-23.984-24.292Zm-.002 1.38c12.417 0 22.607 10.189 22.607 22.91 0 12.418-10.19 22.607-22.607 22.607-12.721 0-22.91-10.19-22.91-22.607a22.826 22.826 0 0 1 22.91-22.91Z" fill-opacity=".25"/><path d="M45.152 22.241c12.417 0 22.607 10.19 22.607 22.911 0 12.418-10.19 22.607-22.607 22.607-12.721 0-22.91-10.19-22.91-22.607a22.826 22.826 0 0 1 22.91-22.91Z" fill="#F7F7F7"/><path d="M55.345 45c0 5.713-4.632 10.345-10.345 10.345-5.713 0-10.345-4.632-10.345-10.345 0-5.713 4.632-10.345 10.345-10.345 5.713 0 10.345 4.632 10.345 10.345Z" fill-opacity=".05"/><path d="M45 33.276c-6.475 0-11.724 5.249-11.724 11.724 0 6.475 5.249 11.724 11.724 11.724 6.475 0 11.724-5.249 11.724-11.724 0-6.475-5.249-11.724-11.724-11.724Zm0 1.38c5.713 0 10.345 4.63 10.345 10.344 0 5.713-4.632 10.345-10.345 10.345-5.713 0-10.345-4.632-10.345-10.345 0-5.713 4.632-10.345 10.345-10.345Z" fill="#FFF"/><path d="M45 34.655c5.713 0 10.345 4.632 10.345 10.345 0 5.713-4.632 10.345-10.345 10.345-5.713 0-10.345-4.632-10.345-10.345 0-5.713 4.632-10.345 10.345-10.345Zm0 1.38A8.965 8.965 0 0 0 36.034 45 8.965 8.965 0 0 0 45 53.966 8.965 8.965 0 0 0 53.966 45 8.965 8.965 0 0 0 45 36.034Z" fill-opacity=".15"/><path d="M48.846 27.069h-7.692c-1.705 0-3.05 1.493-3.05 3.291v7.443c0 .677.244 1.33.686 1.822l1.131 1.254c.026.03.026.111 0 .141l-1.13 1.254a2.724 2.724 0 0 0-.688 1.823V59.64c0 1.797 1.346 3.29 3.05 3.29h7.693c1.705 0 3.05-1.493 3.05-3.291v-7.443a2.724 2.724 0 0 0-.686-1.822l-1.131-1.254c-.026-.03-.026-.111 0-.141l1.13-1.254a2.726 2.726 0 0 0 .688-1.823V30.36c0-1.798-1.346-3.291-3.05-3.291Zm-.087 1.405c.97 0 1.758.893 1.758 1.994v15.43c0 .352-.124.69-.343.94l-1.1 1.245c-.457.518-.457 1.36 0 1.88l1.1 1.244c.22.249.343.587.343.94v7.385c0 1.1-.787 1.994-1.758 1.994H41.24c-.97 0-1.758-.894-1.758-1.994v-15.43c0-.352.124-.69.343-.94l1.1-1.245a1.46 1.46 0 0 0 0-1.88l-1.1-1.244a1.424 1.424 0 0 1-.343-.94v-7.386c0-1.1.787-1.993 1.758-1.993h7.518Z" fill="#FFF"/><path d="M39.483 37.841v-7.396c0-1.103.787-1.997 1.758-1.997h7.518c.97 0 1.758.894 1.758 1.996V45.9c.003.345-.119.68-.343.941l-1.1 1.248a1.463 1.463 0 0 0 0 1.882l1.1 1.247c.22.25.343.589.343.94v7.399c0 1.102-.787 1.996-1.758 1.996H41.24c-.97 0-1.758-.894-1.758-1.996V44.1c0-.353.124-.691.343-.941l1.1-1.248a1.463 1.463 0 0 0 0-1.882l-1.1-1.247a1.428 1.428 0 0 1-.343-.94v-.002Z" fill="#0A2D4D"/><path d="M48.759 28.448c.97 0 1.758.894 1.758 1.996V45.9c.003.345-.119.68-.343.941l-1.1 1.248a1.463 1.463 0 0 0 0 1.882l1.1 1.247c.22.25.343.589.343.94v7.399c0 1.102-.787 1.996-1.758 1.996H41.24c-.97 0-1.758-.894-1.758-1.996V44.1c0-.353.124-.691.343-.941l1.1-1.248a1.463 1.463 0 0 0 0-1.882l-1.1-1.247a1.428 1.428 0 0 1-.343-.94v-7.399c0-1.102.787-1.996 1.758-1.996h7.518Zm-.199 1.417-7.12-.01c-.279 0-.54.263-.574.633l-.004.081V37.9c0 .022.005.04.01.054l.01.016 1.152 1.237a2.66 2.66 0 0 1 .094 3.489l-.094.105-1.151 1.238a.08.08 0 0 0-.017.04l-.003.03V59.43c0 .386.243.672.518.709l.06.004 7.12.01c.278 0 .54-.262.574-.633l.004-.08v-7.332a.135.135 0 0 0-.01-.054l-.01-.016-1.152-1.237a2.66 2.66 0 0 1-.093-3.488l.093-.106 1.152-1.238a.078.078 0 0 0 .017-.039l.003-.03V30.578c0-.385-.244-.672-.519-.709l-.06-.004Z" fill-opacity=".4"/></svg>