<svg xmlns="http://www.w3.org/2000/svg" viewBox="0 0 90 90"><path fill="#FFF" d="M0 0h90v90H0z"/><path d="m24.06 32.165 6.537 3.774c5.055 2.918 6.788 9.382 3.87 14.437-.257.444-.541.863-.85 1.254l-15.596-9.004a6.037 6.037 0 0 1-2.21-8.251 6.04 6.04 0 0 1 8.25-2.21Z" fill="#3D53F6" opacity=".8"/><path d="m24.06 58.11 6.537-3.774c5.055-2.918 6.788-9.382 3.87-14.437a10.606 10.606 0 0 0-.85-1.254l-15.596 9.004a6.037 6.037 0 0 0-2.21 8.251 6.04 6.04 0 0 0 8.25 2.21Zm41.88-25.945-6.537 3.774c-5.055 2.918-6.788 9.382-3.87 14.437.257.444.541.863.85 1.254l15.596-9.004a6.037 6.037 0 0 0 2.21-8.251 6.04 6.04 0 0 0-8.25-2.21Z" fill="#3D53F6" opacity=".5"/><path d="m65.94 58.11-6.537-3.774c-5.055-2.918-6.788-9.382-3.87-14.437.257-.444.541-.862.85-1.254l15.596 9.004a6.037 6.037 0 0 1 2.21 8.251 6.04 6.04 0 0 1-8.25 2.21Z" fill="#3D53F6" opacity=".8"/><path d="M45 51.04a6.04 6.04 0 1 0 0-12.078 6.04 6.04 0 0 0 0 12.078Z" fill="#FF2F1D"/><path d="m32.028 65.94 3.774-6.537c2.918-5.055 9.382-6.788 14.436-3.87.445.257.863.541 1.255.85l-9.005 15.596a6.037 6.037 0 0 1-8.25 2.21 6.04 6.04 0 0 1-2.21-8.25Z" fill="#FF2F1D" opacity=".8"/><path d="m57.972 65.94-3.774-6.537c-2.918-5.055-9.382-6.788-14.436-3.87-.445.257-.863.541-1.255.85l9.005 15.596a6.037 6.037 0 0 0 8.251 2.21 6.04 6.04 0 0 0 2.21-8.25Z" fill="#FF2F1D" opacity=".5"/><path d="m32.028 24.06 3.774 6.537c2.918 5.055 9.382 6.788 14.436 3.87.445-.257.863-.541 1.255-.85l-9.005-15.596a6.037 6.037 0 0 0-8.25-2.21 6.04 6.04 0 0 0-2.21 8.25Z" fill="#3D53F6" opacity=".5"/><path d="m57.972 24.06-3.774 6.537c-2.918 5.055-9.382 6.788-14.436 3.87a10.61 10.61 0 0 1-1.255-.85l9.005-15.596a6.037 6.037 0 0 1 8.251-2.21 6.04 6.04 0 0 1 2.21 8.25Z" fill="#3D53F6" opacity=".8"/></svg>