<svg xmlns="http://www.w3.org/2000/svg" viewBox="0 0 90 90"><path fill="#FFF" d="M0 0h90v90H0z"/><path d="M42.55 10.055c-4.007.468-6.787 1.033-10.588 2.174a62.517 62.517 0 0 0-10.123 4.023c-4.203 2.098-8.395 4.729-9.492 5.946-.608.685-1.119 1.75-1.25 2.61-.13.912-.13 33.743 0 33.83.055.033 14.728 4.849 32.605 10.708L76.21 80H79l-.033-17.416-.032-17.426-.26-.815c-.36-1.153-1.01-2.457-1.565-3.153-.695-.87-26.859-29.45-27.337-29.863a6.683 6.683 0 0 0-1.042-.674c-1.119-.565-1.716-.663-3.9-.652-1.075.01-2.095.043-2.28.054Zm2.662 27.439 28.835 9.436.033 6.599c.022 5.414 0 6.588-.12 6.544-.075-.032-13.174-4.37-29.107-9.653l-28.966-9.6V27.927l.25.055c.13.043 13.218 4.315 29.075 9.512Zm-.26 15.317c15.9 5.262 28.965 9.578 29.03 9.578.087 0 .12 1.598.12 5.935 0 4.947-.022 5.925-.152 5.882-.076-.033-13.175-4.327-29.107-9.545l-28.956-9.49v-6.023c0-3.305.033-5.99.087-5.969.044.033 13.088 4.36 28.977 9.632Z" fill="#BC2E24"/></svg>