<svg xmlns="http://www.w3.org/2000/svg" viewBox="0 0 90 90"><path fill="#FFF" d="M0 0h90v90H0z"/><path d="M29.074 12.5h25.974c11.246.97 15.68 7.23 14.606 15.661l-.085.6a23.14 23.14 0 0 1-.224 1.217c-2.273 10.744-6.937 15.085-13.543 17.21l-.597.185-.302.088-.612.168c-.206.054-.413.106-.622.157l-.633.149c-1.438.324-2.918.488-4.381.564l-.674.03-.671.018-.334.005-.663.005-.981-.004-1.278-.02-1.832-.037-.867-.009-.558.001-.272.004-.53.013-.51.023c-2.418.138-4.094.68-4.392 2.436L32.192 71h-12.36a2 2 0 0 1-1.978-2.304l8.255-53.652a3 3 0 0 1 2.965-2.544Z" fill="#003085"/><path d="M41.302 27H61.96c9.418.743 12.663 6.717 12.012 13.754l-.058.543c-.033.273-.07.547-.115.822l-.095.552c-.034.185-.07.37-.11.555-1.882 8.95-5.868 12.912-11.282 14.863l-.575.198-.586.184c-.098.03-.197.059-.296.087l-.6.164a17.05 17.05 0 0 1-.305.078l-.616.146a24.68 24.68 0 0 1-3.438.524l-.621.045-.6.032-.576.02-.824.018-1.494.02-.453.012-.43.02c-.07.003-.138.008-.206.013l-.395.036c-1.537.17-2.52.686-2.93 2.348L45.38 75.44A3 3 0 0 1 42.412 78h-9.086a2 2 0 0 1-1.978-2.3l6.988-46.15A3 3 0 0 1 41.302 27Z" fill="#019CDE"/><path d="M69.56 28.814c-.06.384-.132.772-.215 1.164-2.579 12.187-8.234 16.136-16.309 17.957-7.882 1.777-17.155-1.268-17.922 2.897l3.222-21.281A3 3 0 0 1 41.302 27H62.96c2.685.212 4.867.848 6.602 1.814Z" fill="#021F69"/></svg>