<svg xmlns="http://www.w3.org/2000/svg" viewBox="0 0 90 90"><path fill="#FFF" d="M0 0h90v90H0z"/><path d="M47.769 30.021 47.723 72l-11.287-3.658V19l14.407 3.796c9.222 2.47 14.865 7.27 14.773 15.685-.092 9.786-4.634 13.718-13.489 11.158V30.34c0-2.333-4.358-2.47-4.358-.32Z" fill="#DE0029"/><path d="m31.252 60.201-5.323 1.784c-3.441 1.19-6.377-1.6-3.211-2.744l2.569-.914-9.681-3.064c-2.982 1.006-5.781 3.155-5.597 6.174.183 3.063 7.203 3.795 12.617 4.664 5.047.823 9.635.366 13.81-1.098v-3.155L31.252 60.2ZM47.815 72l9.864-3.43-9.956-3.155v6.356l.092.229Z" fill="#F3C202"/><path d="m74.058 62.809.184-.046c4.313-1.509 6.148-3.613 5.69-5.579-.735-3.292-6.011-5.076-14.132-5.67-5.827-.412-11.562.868-17.16 2.789l-.917.32 10.048 3.11 5.873-1.967c6.148-1.143 8.626.869 2.707 2.744l-2.937 1.005 10.644 3.294ZM36.436 48.267l-4.45 1.509 4.45 1.372v-2.88Z" fill="#326DB3"/><path d="m57.679 68.57 16.38-5.761-10.645-3.294-15.691 5.35v.55l9.956 3.155ZM36.436 58.464 31.252 60.2l5.184 1.647v-3.384Zm11.287 2.699v-6.54l10.048 3.11-10.048 3.43Zm-22.436-2.836 11.15-3.978v-3.201l-4.451-1.372-16.15 5.441c-.047 0-.138.046-.23.046l9.681 3.064Z" fill="#00AA9E"/></svg>