<svg xmlns="http://www.w3.org/2000/svg" viewBox="0 0 90 90"><path fill="#F27777" d="M0 0h90v90H0z"/><path d="M21.9 21.98c3.997.88 7.834 2.318 11.27 4.237a25.89 25.89 0 0 0-9.99 9.032c-1.6-2.158-2.478-4.876-2.478-7.753 0-1.999.4-3.837 1.199-5.516Z" fill="#FFF"/><path d="M69.298 63.544a4.469 4.469 0 0 1-4.476 4.476 4.469 4.469 0 0 1-4.476-4.476v-3.597H29.574v3.597a4.469 4.469 0 0 1-4.476 4.476 4.469 4.469 0 0 1-4.476-4.476V49.876c0-13.189 10.23-24.379 23.419-24.858 13.828-.48 25.177 10.55 25.177 24.298l.08 14.228Z" fill="#FFF"/><path d="M66.82 35.249a25.89 25.89 0 0 0-9.99-9.032A42.547 42.547 0 0 1 68.1 21.98c.799 1.679 1.198 3.517 1.198 5.516 0 2.877-.959 5.515-2.477 7.753Z" fill="#FFF"/><path d="M55.63 44.52c-.32-.16-.639-.08-.799.16-.32.48-.72.8-1.279 1.12v-.4c0-1.12-.4-2.158-1.039-2.958-.48-.72-1.279-1.119-2.238-1.119-1.518 0-2.797 1.28-2.797 2.798 0 .64.24 1.279.64 1.758.479.56 1.038 1.04 1.758 1.359-.48.24-.96.4-1.519.4-.64 0-1.119.56-1.119 1.119 0 .64.48 1.119 1.119 1.119h.56c1.758 0 3.357-1.04 4.076-2.478 1.199-.32 2.158-1.12 2.797-2.158.24-.16.16-.56-.16-.72Zm-4.555 1.52c-.72-.24-1.36-.64-1.759-1.28-.16-.16-.24-.4-.24-.64 0-.639.48-1.118 1.12-1.118.559 0 1.118.48 1.118 1.039 0 .16.08.32.08.56.08.479-.08 1.038-.32 1.438Z" fill="#F27777"/></svg>