<svg xmlns="http://www.w3.org/2000/svg" viewBox="0 0 90 90"><defs><linearGradient x1="157.204%" y1="71.573%" x2="82.3%" y2="13.387%" id="a"><stop stop-color="#00CDFF" offset="0%"/><stop stop-color="#009FFF" offset="100%"/></linearGradient></defs><path d="M86.018 55.1c-1.873 2.127-11.927 9.334-28.002 16.215-4.48 1.918-10.657 2.694-13.99 2.685-3.333-.01-9.562-.763-14.042-2.68C13.909 64.439 3.855 56.124 1.982 53.997c-3.594-4.08-2.303-45.866 3.9-52.215 6.203-6.35 30.895 6.35 30.895 6.35l7.25-.012 7.197.007s24.69-12.699 30.894-6.35c6.203 6.35 7.494 49.243 3.9 53.323Z" fill="url(#a)" transform="translate(1 8)"/><path d="M65.503 66.93c-.011-6.815-10.258-11.818-20.516-11.818S24.46 60.115 24.471 66.93c.011 6.815 10.285 11.818 20.555 11.818s20.488-5.003 20.477-11.818Z" fill="#FFF"/><path d="M45.179 73.038c-3.56 0-8.982-5.516-7.1-7.493 1.88-1.977 12.486-1.84 14.23 0 1.743 1.84-3.571 7.493-7.13 7.493Z" fill="#009FFF"/><path d="M5.749 61.026c-1.803-3.024-1.433-8.012-.934-8.367 1.19-.848 14.958-8.459 22.3-12.517a1293.89 1293.89 0 0 0 4.396-2.435c2.083-1.175 5.263 1.493 6.266 3.619 1.002 2.125-.054 8.247-.054 8.247s-4.28-4.746-6.212-3.656c-1.933 1.09-18.772 10.638-20.574 11.712-1.802 1.076 0 6.87 0 6.87S6.807 62.8 5.75 61.026Zm78.503-.004c1.802-3.025 1.432-8.012.934-8.367-1.19-.848-14.958-8.459-22.3-12.517-2.257-1.247-3.907-2.16-4.397-2.436-2.083-1.175-5.263 1.494-6.265 3.62-1.003 2.125.053 8.247.053 8.247s4.28-4.746 6.212-3.656c1.933 1.09 18.772 10.637 20.574 11.712 1.802 1.075 0 6.87 0 6.87s4.13-1.698 5.189-3.473Zm-3.419-27.141c1.294-.302-.087-15.895-4.42-18.446-4.334-2.55-16.691 4.182-16.282 5.7.41 1.52 19.408 13.049 20.702 12.746ZM13.588 15.44c-4.333 2.55-5.714 18.143-4.42 18.446 1.293.302 20.292-11.228 20.702-12.746.409-1.52-11.948-8.252-16.282-5.7Z" fill="#FFF"/></svg>