<svg xmlns="http://www.w3.org/2000/svg" viewBox="0 0 90 90"><path fill="#FFF" d="M0 0h90v90H0z"/><path d="M67.427 22.63a.673.673 0 0 0-.606-.569c-.251-.02-5.583-.42-5.583-.42s-3.703-3.71-4.11-4.12c-.406-.41-1.2-.286-1.509-.194-.045.014-.809.251-2.072.646-1.237-3.592-3.42-6.893-7.26-6.893-.107 0-.216.005-.325.01C44.87 9.634 43.517 9 42.348 9c-8.947 0-13.22 11.286-14.56 17.02-3.477 1.088-5.947 1.86-6.262 1.96-1.94.615-2.002.676-2.257 2.521C19.077 31.898 14 71.52 14 71.52L53.563 79 75 74.32s-7.525-51.339-7.572-51.69ZM51.36 18.654 48.012 19.7c.002-.238.003-.472.003-.729 0-2.232-.307-4.03-.8-5.454 1.979.25 3.297 2.523 4.145 5.137Zm-6.6-4.694c.55 1.39.908 3.387.908 6.081l-.002.391-6.914 2.16c1.331-5.184 3.827-7.688 6.008-8.632Zm-2.658-2.54c.386 0 .775.133 1.148.391-2.868 1.362-5.94 4.79-7.239 11.638l-5.465 1.708c1.52-5.223 5.13-13.737 11.556-13.737Z" fill="#95BF46"/><path d="M66.821 22.061c-.251-.02-5.583-.42-5.583-.42s-3.703-3.71-4.11-4.12a1.011 1.011 0 0 0-.571-.265L53.565 79 75 74.32s-7.525-51.339-7.573-51.69a.673.673 0 0 0-.606-.569" fill="#5E8E3E"/><path d="m46.286 34.014-2.643 7.934S41.327 40.7 38.488 40.7c-4.161 0-4.37 2.636-4.37 3.3 0 3.624 9.36 5.012 9.36 13.5 0 6.678-4.197 10.978-9.857 10.978-6.791 0-10.264-4.265-10.264-4.265l1.818-6.063s3.57 3.093 6.583 3.093c1.968 0 2.769-1.564 2.769-2.707 0-4.727-7.68-4.937-7.68-12.704 0-6.538 4.65-12.864 14.036-12.864 3.617 0 5.403 1.046 5.403 1.046" fill="#FFF"/></svg>