<svg xmlns="http://www.w3.org/2000/svg" viewBox="0 0 90 90"><path fill="#0051E6" d="M0 0h90v90H0z"/><path d="M73.7 47.27c1.44 2.124 2.3 4.718 2.3 7.916C75.907 66.994 65.756 75 43.92 75 30.26 75 15.254 70.997 14 55.723v-.76h20.465l-4.53 12.858 14.937-9.996 14.937 9.996-3.88-11.047c-.603-1.14-2.16-1.767-2.16-1.767-8.153-4.36-37.91-1.99-37.91-21.267C15.858 19.227 31.677 15 44.081 15c12.986 0 28.224 2.818 29.595 17.868v.581H50.633L44.92 17.26l-5.715 16.19H20.737l10.314 6.844c3.02-1.163 6.248-1.678 9.477-2.013a62.463 62.463 0 0 1 10.43-.201 54.1 54.1 0 0 1 8.688 1.23c2.579.581 5.204 1.23 7.55 2.46 2.625 1.386 4.925 3.153 6.504 5.5Z" fill="#FFF"/></svg>