<svg xmlns="http://www.w3.org/2000/svg" viewBox="0 0 90 90"><g fill="#647F23"><path d="M3.146 44.996C3.146 21.922 21.92 3.146 45 3.146c23.078 0 41.854 18.776 41.854 41.85C86.854 68.077 68.08 86.85 45 86.85S3.146 68.077 3.146 44.996ZM45 89c24.261 0 44-19.74 44-44.004C89 20.738 69.261 1 45 1 20.738 1 1 20.738 1 44.996 1 69.259 20.738 89 45 89Z"/><path d="M35.283 44.996a2.145 2.145 0 1 0 4.291 0c0-1.185-.96-2.143-2.146-2.143a2.143 2.143 0 0 0-2.145 2.143Zm8.644 37.548c-20.248-.569-36.488-17.16-36.488-37.548h16.098c0-11.49 9.035-20.877 20.39-21.435v58.983Zm6.498-37.548a2.146 2.146 0 1 0 4.294 0 2.143 2.143 0 0 0-2.147-2.143 2.143 2.143 0 0 0-2.147 2.143Zm32.137 0c0 20.388-16.24 36.98-36.489 37.548V23.56c11.357.558 20.39 9.945 20.39 21.435h16.099Z"/></g></svg>