<svg xmlns="http://www.w3.org/2000/svg" viewBox="0 0 90 90"><path fill="#FFF" d="M0 0h90v90H0z"/><g fill="#B4B4B5"><path d="m10 47.34 4.645-.431c.286 1.546.856 2.684 1.71 3.414.853.73 2.012 1.09 3.477 1.083 1.54 0 2.703-.328 3.492-.968.788-.641 1.167-1.406 1.167-2.262a2.175 2.175 0 0 0-.482-1.435c-.33-.382-.902-.729-1.72-1.004-.564-.213-1.84-.552-3.827-1.054-2.573-.624-4.362-1.406-5.397-2.326a6.194 6.194 0 0 1-2.185-4.768 5.94 5.94 0 0 1 1.03-3.37 6.444 6.444 0 0 1 2.969-2.406c1.287-.533 2.838-.813 4.673-.813 2.973 0 5.213.651 6.721 1.953 1.505 1.322 2.291 3.056 2.366 5.231l-4.809.16c-.212-1.195-.639-2.063-1.319-2.598-.68-.536-1.688-.799-3.017-.799-1.389 0-2.479.282-3.26.861a1.703 1.703 0 0 0-.762 1.449 1.793 1.793 0 0 0 .711 1.434c.598.517 2.07 1.04 4.396 1.578 2.328.538 4.05 1.12 5.161 1.707a6.648 6.648 0 0 1 2.622 2.415c.624.997.95 2.274.95 3.773 0 1.35-.396 2.672-1.139 3.804a6.855 6.855 0 0 1-3.207 2.642c-1.384.561-3.106.863-5.168.863-3.002 0-5.305-.696-6.921-2.087-1.616-1.392-2.563-3.405-2.877-6.047Z"/><path d="M28.704 37.907h4.823l4.119 12.158 4.013-12.158h4.7L40.33 54.371l-1.107 3.002a12.05 12.05 0 0 1-1.138 2.286 4.74 4.74 0 0 1-1.244 1.291 5.856 5.856 0 0 1-1.727.76 8.945 8.945 0 0 1-2.327.29c-.868-.004-1.732-.1-2.578-.29l-.376-3.555c.633.14 1.28.215 1.929.223 1.049 0 1.83-.306 2.334-.92a6.582 6.582 0 0 0 1.163-2.38l-6.555-17.17Zm33.463 17.126h-4.539v-8.717c0-1.836-.094-3.02-.294-3.567a2.508 2.508 0 0 0-.965-1.263 2.789 2.789 0 0 0-1.594-.45 3.736 3.736 0 0 0-2.144.651c-.614.4-1.074.995-1.302 1.688-.241.717-.352 2.013-.352 3.93v7.73h-4.52V37.907h4.197v2.508c1.51-1.896 3.405-2.833 5.694-2.833a7.212 7.212 0 0 1 2.773.528 4.623 4.623 0 0 1 1.895 1.382c.428.563.733 1.208.895 1.894.197 1.002.283 2.023.256 3.043v10.604Zm.026-8.743a9.223 9.223 0 0 1 1.124-4.376 7.71 7.71 0 0 1 3.176-3.223 9.47 9.47 0 0 1 4.582-1.104c2.617 0 4.756.84 6.417 2.52 1.66 1.68 2.497 3.804 2.508 6.371 0 2.59-.846 4.727-2.53 6.437-1.683 1.709-3.81 2.56-6.366 2.56a10.142 10.142 0 0 1-4.527-1.069 7.306 7.306 0 0 1-3.272-3.124c-.738-1.365-1.109-3.029-1.112-4.993Zm4.647.239c0 1.709.403 3.014 1.225 3.901a3.999 3.999 0 0 0 3.015 1.368 4 4 0 0 0 3.014-1.368c.803-.887 1.206-2.209 1.206-3.923s-.403-2.986-1.206-3.88a4.018 4.018 0 0 0-3.014-1.358 4.018 4.018 0 0 0-3.015 1.358c-.82.884-1.225 2.192-1.225 3.89v.012Z"/></g></svg>