<svg xmlns="http://www.w3.org/2000/svg" viewBox="0 0 90 90"><path fill="#FFF" d="M0 0h90v90H0z"/><path d="M45 8C24.563 8 8 24.565 8 45c0 20.436 16.563 37 37 37s37-16.564 37-37C82 24.565 65.437 8 45 8Zm0 12.333c13.625 0 24.667 11.045 24.667 24.667 0 13.622-11.042 24.667-24.667 24.667-13.625 0-24.667-11.045-24.667-24.667 0-13.622 11.042-24.667 24.667-24.667Zm0 12.334c-6.812 0-12.333 5.522-12.333 12.333S38.187 57.333 45 57.333c6.812 0 12.333-5.521 12.333-12.333 0-6.81-5.52-12.333-12.333-12.333Z" fill="#C00"/></svg>