<svg xmlns="http://www.w3.org/2000/svg" viewBox="0 0 90 90"><path fill="#FFF" d="M0 0h90v90H0z"/><path d="M54.477 41.406 52.13 55.038c-.486 2.454-2.117 3.114-3.567 3.114H37.706l4.58-24.966c-4.568-2.07-9.238-3.42-12.95-3.42-3.537 0-6.406.948-8.316 3.21-1.347 1.614-2.02 3.606-2.02 5.97 0 7.098 5.64 16.944 15.303 24.978C42.91 71.022 52.384 75 59.275 75c3.439 0 6.21-1.044 8.036-3.12 1.432-1.608 2.008-3.696 2.008-6.06 0-6.9-5.683-16.566-14.842-24.414Z" fill="#F96449"/><path d="M34.976 15c-1.722 0-3.154 1.146-3.536 2.94l-1.528 8.226h13.653L37.7 58.146h10.863c1.45 0 3.081-.666 3.567-3.114l4.967-28.866h9.826c1.729 0 3.16-1.134 3.542-2.934L72 15H34.976Z" fill="#0D54FF"/></svg>