<svg xmlns="http://www.w3.org/2000/svg" viewBox="0 0 90 90"><defs><linearGradient x1="0%" y1="47.361%" x2="100%" y2="52.639%" id="a"><stop stop-color="#B96FA7" offset="0%"/><stop stop-color="#DB6F51" offset="100%"/></linearGradient></defs><path fill="#1A1E20" d="M0 0h90v90H0z"/><path d="M16.19 53.742V40.445h4.807v-2.773H8v2.773h4.808v13.297h3.381Zm9.888.258c.889 0 1.661-.113 2.317-.34.656-.227 1.206-.524 1.65-.89.444-.365.794-.76 1.05-1.185.257-.426.432-.836.526-1.231l.028-.12-3.035.004-.031.067c-.075.17-.215.353-.42.55a2.61 2.61 0 0 1-.81.504c-.335.14-.737.209-1.208.209-.584 0-1.088-.129-1.512-.386a2.515 2.515 0 0 1-.977-1.113c-.227-.485-.341-1.068-.341-1.75l.001.106 8.434-.001v-1.007c0-1.231-.236-2.305-.706-3.222a5.124 5.124 0 0 0-2.01-2.135c-.868-.507-1.899-.76-3.09-.76-1.193 0-2.228.26-3.106.782-.878.522-1.558 1.258-2.04 2.21-.48.952-.721 2.075-.721 3.369 0 1.308.241 2.435.724 3.382a5.161 5.161 0 0 0 2.067 2.188c.896.513 1.965.769 3.21.769Zm2.533-7.617h-5.26l.027-.21c.043-.263.106-.506.19-.729l.093-.217c.23-.49.547-.862.95-1.115a2.55 2.55 0 0 1 1.388-.38c.525 0 .985.122 1.381.368s.706.613.93 1.1c.127.278.218.596.273.952l.028.231Zm8.321 7.36v-7.035c0-.55.098-1.026.294-1.431a2.23 2.23 0 0 1 .836-.945c.361-.225.791-.338 1.29-.338.765 0 1.33.221 1.696.663.366.441.55 1.086.55 1.933v7.152h3.269v-7.877c0-1.45-.36-2.574-1.079-3.37-.718-.797-1.758-1.196-3.118-1.196-.887 0-1.631.194-2.232.582-.6.388-1.046.917-1.336 1.586h-.17v-1.91h-3.27v12.185h3.27Zm14.728.206c.581 0 1.11-.085 1.589-.256a3.745 3.745 0 0 0 1.25-.734 3.6 3.6 0 0 0 .852-1.147h.17v1.93h3.27V37h-3.27v6.545h-.17a3.506 3.506 0 0 0-.857-1.175 3.892 3.892 0 0 0-1.266-.754 4.505 4.505 0 0 0-1.57-.266c-1.032 0-1.92.251-2.662.754-.743.502-1.314 1.222-1.714 2.161-.4.94-.6 2.064-.6 3.373v.02c0 1.3.202 2.421.606 3.362.404.94.979 1.664 1.724 2.17.746.506 1.629.759 2.648.759Zm1.109-2.695c-.567 0-1.057-.144-1.471-.432-.414-.289-.732-.702-.955-1.24-.223-.539-.335-1.18-.335-1.924v-.02c0-.744.112-1.384.335-1.92.224-.537.543-.95.958-1.239.414-.289.904-.434 1.468-.434s1.054.145 1.469.436c.415.29.737.703.966 1.24.23.536.344 1.177.344 1.923v.02c0 .739-.114 1.378-.34 1.916-.227.539-.549.952-.965 1.24-.416.29-.907.434-1.474.434ZM66.803 54c.889 0 1.661-.113 2.317-.34.656-.227 1.206-.524 1.65-.89a4.68 4.68 0 0 0 1.051-1.185c.257-.426.431-.836.525-1.231l.028-.12-3.035.004-.031.067c-.075.17-.215.353-.42.55a2.61 2.61 0 0 1-.81.504c-.335.14-.737.209-1.208.209-.584 0-1.088-.129-1.512-.386a2.515 2.515 0 0 1-.977-1.113c-.227-.485-.341-1.068-.341-1.75l.001.106 8.434-.001v-1.007c0-1.231-.236-2.305-.706-3.222a5.124 5.124 0 0 0-2.01-2.135c-.868-.507-1.899-.76-3.09-.76-1.193 0-2.228.26-3.106.782-.878.522-1.558 1.258-2.04 2.21-.48.952-.721 2.075-.721 3.369 0 1.308.241 2.435.724 3.382a5.161 5.161 0 0 0 2.067 2.188c.896.513 1.966.769 3.21.769Zm2.534-7.617h-5.261l.027-.21c.043-.263.106-.506.19-.729l.093-.217c.23-.49.547-.862.95-1.115.404-.254.867-.38 1.388-.38.525 0 .985.122 1.381.368s.706.613.93 1.1c.127.278.218.596.273.952l.029.231Zm8.32 7.36v-6.819c0-.579.118-1.075.353-1.487a2.354 2.354 0 0 1 1.008-.95c.437-.22.955-.33 1.556-.33A5.612 5.612 0 0 1 82 44.34V41.5a3.416 3.416 0 0 0-.53-.11 4.733 4.733 0 0 0-.626-.04c-.775 0-1.423.189-1.945.566-.522.377-.88.908-1.072 1.592h-.17v-1.951h-3.27v12.185h3.27Z" fill="url(#a)"/></svg>