<svg xmlns="http://www.w3.org/2000/svg" viewBox="0 0 90 90"><path fill="#FFF" d="M0 0h90v90H0z"/><path d="M55.848 45.874v-1.717H66a10.783 10.783 0 0 0-3.09-6.707 10.792 10.792 0 0 0-13.395-1.487 10.725 10.725 0 0 0-4.413 5.596 10.676 10.676 0 0 0 .084 7.114 10.714 10.714 0 0 0 4.542 5.492 10.783 10.783 0 0 0 13.354-1.795A10.687 10.687 0 0 0 66 45.875H55.848Z" fill="#58B3CD"/><path d="M35.245 64.783h1.72V75a10.79 10.79 0 0 0 6.724-3.11 10.86 10.86 0 0 0 3.1-6.477 10.896 10.896 0 0 0-1.61-7.005 10.744 10.744 0 0 0-5.608-4.442 10.653 10.653 0 0 0-7.132.084 10.75 10.75 0 0 0-5.505 4.571 10.885 10.885 0 0 0-1.45 7.041 10.846 10.846 0 0 0 3.25 6.402A10.69 10.69 0 0 0 35.242 75l.002-10.217Z" fill="#1AB96D"/><path d="m36.86 25.89-1.213-1.2 7.21-7.13a10.907 10.907 0 0 0-7.67-2.541 10.87 10.87 0 0 0-7.31 3.423 10.65 10.65 0 0 0-2.875 7.477 10.646 10.646 0 0 0 3.172 7.36 10.884 10.884 0 0 0 7.442 3.133 10.903 10.903 0 0 0 7.564-2.84 10.671 10.671 0 0 0 3.462-7.228 10.628 10.628 0 0 0-2.572-7.585l-7.21 7.13Z" fill="#010A59"/></svg>