<svg xmlns="http://www.w3.org/2000/svg" viewBox="0 0 90 90"><path fill="#7B46D1" d="M0 0h90v90H0z"/><path d="M62.6 25.887c3.103 0 5.639 2.536 5.639 5.639v8.46H52.05v29.653h-8.454c-3.008 0-5.644-2.39-5.644-5.64V39.986H27.4c-3.206 0-5.64-2.6-5.64-5.638v-8.46H62.6ZM43.592 39.985h-2.82v24.014c0 1.762 1.48 2.821 2.82 2.821V39.985Zm5.64 0h-2.82v26.833h2.82V39.985Zm16.152-5.655H24.548c0 1.393 1.087 2.834 2.854 2.834h37.982V34.33ZM62.6 28.706H24.576v2.82h40.837c0-1.512-1.209-2.82-2.813-2.82Z" fill="#FFF"/></svg>