<svg xmlns="http://www.w3.org/2000/svg" viewBox="0 0 90 90"><path d="M0 0h90v90H0z"/><path d="M44.994 15c-2.67 6.547-4.282 10.83-7.256 17.183 1.824 1.933 4.062 4.183 7.696 6.724-3.907-1.607-6.573-3.221-8.565-4.896C33.063 41.95 27.101 53.26 15 75c9.51-5.49 16.883-8.874 23.754-10.165a17.406 17.406 0 0 1-.451-4.073l.01-.305c.152-6.092 3.322-10.777 7.076-10.459 3.755.318 6.674 5.518 6.523 11.61a17.207 17.207 0 0 1-.384 3.272C58.324 66.209 65.618 69.585 75 75c-1.85-3.405-3.501-6.475-5.078-9.398-2.484-1.925-5.075-4.43-10.36-7.142 3.633.944 6.234 2.032 8.261 3.25C51.791 31.864 50.493 27.9 44.994 15Z" fill="#FFF"/></svg>