<svg xmlns="http://www.w3.org/2000/svg" viewBox="0 0 90 90"><path fill="#1488CA" d="M0 0h90v90H0z"/><g fill="#FFF"><path d="M72.192 32.941c-4.128 0-13.91 4.943-13.91 6.83 0 1.887 6.058-.09 9.917-.539 2.243-.27 4.846-.584 6.64.314 1.302-.314 4.084-.808 5.071-.134v-6.875c-.493.764-1.256 1.663-2.288 2.786.045 0-1.301-2.382-5.43-2.382Zm7.045 11.279s-.628.09-.27-1.034c.315-1.078-.089-3.01-2.826-2.471.494.719.808 1.707.808 3.055 0 1.977-1.077 3.82-3.096 5.751h6.102v-5.84c-.18.134-.404.314-.718.538Z"/><path d="M26.692 40.85c-7.269 7.323-4.756 7.683-3.859 7.683.898 0 3.276-.09 29.391-20.264 0 0 1.257-.854 3.231-.854s2.603.09.628 1.752C54.11 30.83 42.936 41.21 37.237 47.275c-.763.809-1.346 1.528-1.884 2.157h14.673c3.903-1.977 7.673-3.865 9.378-4.628 0 0-3.366.763-6.641.629-3.276-.135-4.532-3.146.09-6.516 4.621-3.37 17.05-9.66 25.532-10.154 0 0 .852-.045 1.525.27v-1.798c0-1.977-1.615-3.235-3.59-3.235H13.59c-1.975.09-3.59 1.348-3.59 3.28v7.638c4.173-2.111 17.77-8.896 23.737-8.896 7.135 0 .225 7.504-7.045 14.828Zm-2.064 10.963c-3.5 2.561-5.968 3.774-7.628 4.313h12.16c.18-1.168.673-2.606 1.795-4.313h-6.327Z"/><path d="M40.154 40.76s-5.564 3.37-12.475 8.672h5.026c5.25-6.695 7.449-8.672 7.449-8.672Zm5.295 11.053H33.827c-1.346 2.606-.36 3.684.09 4.134.09.09.18.135.314.224h2.961c.629-.18 1.302-.449 1.885-.853.718-.495 3.276-1.887 6.372-3.505ZM29.744 32.447c2.019-2.157 2.782-3.999-.36-3.37-3.006.63-10.679 2.92-19.384 8.897v11.502h3.59c3.859-5.257 14.224-14.917 16.154-17.029Zm41.102 19.366c-1.974 1.393-4.442 2.83-7.359 4.313H79.91v-4.313h-9.064Zm-58.692 0H10v4.313h2.917c-.943-.629-1.795-1.932-.763-4.313Zm18.936 9.031s-1.212-.674-1.75-2.291H10v5.212C10 65.742 11.615 67 13.59 67h14.359c-.539-.854-.225-2.606 3.14-6.156Zm22.48.225c-7.223 3.37-12.966 5.077-16.96 5.931h39.8c1.975 0 3.59-1.303 3.59-3.235v-5.212H58.865c-1.705.809-3.455 1.617-5.294 2.516Zm-16.692.314c-2.019 2.292 2.064 4.988 17.635-2.875H40.019c-1.525 1.258-2.602 2.246-3.14 2.875Zm6.192-5.212H59c3.096-1.707 5.43-3.145 7.18-4.313H49.621c-2.513 1.483-4.667 2.965-6.551 4.313Zm28.135-9.66c.09-2.112-1.974-2.292-1.974-2.292-3.5-.27-8.077 1.663-8.077 1.663a103.632 103.632 0 0 0-7.404 3.55h15.48c2.469-2.157 1.975-2.921 1.975-2.921Z"/></g></svg>