<svg xmlns="http://www.w3.org/2000/svg" viewBox="0 0 90 90"><defs><linearGradient x1="29.447%" y1="36.325%" x2="64.151%" y2="56.032%" id="a"><stop stop-color="#7C41A4" offset="0%"/><stop stop-color="#5F3692" offset="100%"/></linearGradient><linearGradient x1="64.534%" y1="39.127%" x2="35.456%" y2="60.852%" id="b"><stop stop-color="#7C41A4" offset="0%"/><stop stop-color="#5F3692" offset="100%"/></linearGradient></defs><path fill="#FFF" d="M0 0h90v90H0z"/><path d="M22.618 48.937c-5.436-2.582-7.736-9.052-5.136-14.452l9.415-19.553C32.097 4.132 45.127-.435 56 4.729L37.17 43.836c-2.6 5.4-9.115 7.683-14.552 5.101Z" fill="url(#a)" transform="translate(17 20)"/><path d="M5.458 1.454C10.677-1.54 17.35.237 20.363 5.42l16.368 28.156c3.013 5.183 1.225 11.81-3.994 14.804-5.219 2.992-11.893 1.216-14.906-3.967L1.464 16.257C-1.55 11.074.239 4.447 5.458 1.454Z" fill="url(#b)" transform="translate(17 20)"/></svg>