<svg xmlns="http://www.w3.org/2000/svg" viewBox="0 0 90 90"><path fill="#FFF" d="M0 0h90v90H0z"/><path d="M48.66 15.692a7.352 7.352 0 0 1 4.833-.488 7.387 7.387 0 0 1 4.09 2.633 7.455 7.455 0 0 1 1.575 4.3l.005.313v15.086h3.47a7.34 7.34 0 0 1 3.534.909l.29.169.263.168a7.4 7.4 0 0 1 2.713 3.314 7.45 7.45 0 0 1 .43 4.269 7.422 7.422 0 0 1-1.995 3.793 7.353 7.353 0 0 1-3.755 2.045 7.33 7.33 0 0 1-4.253-.394 7.378 7.378 0 0 1-3.32-2.699 7.439 7.439 0 0 1-1.265-3.787l-.01-.313v-3.563h-8.563l.072.134a7.435 7.435 0 0 1 .805 3.248l-.002.34-.016.313a7.421 7.421 0 0 1-2.135 4.7 7.326 7.326 0 0 1-8.256 1.505l-.3-.146-.127-.069v8.704h15.053a7.332 7.332 0 0 1 4.066 1.229l.254.177.247.188a7.407 7.407 0 0 1 2.599 4.096 7.439 7.439 0 0 1-.486 4.833 7.382 7.382 0 0 1-3.363 3.49 7.32 7.32 0 0 1-4.793.64 7.354 7.354 0 0 1-4.153-2.487 7.438 7.438 0 0 1-1.072-7.816l.145-.303.07-.133h-8.57v3.568a7.443 7.443 0 0 1-.934 3.544l-.17.291-.17.263a7.378 7.378 0 0 1-3.323 2.7 7.333 7.333 0 0 1-4.255.393 7.358 7.358 0 0 1-3.756-2.047 7.425 7.425 0 0 1-1.996-3.796 7.45 7.45 0 0 1 .432-4.271 7.403 7.403 0 0 1 2.716-3.315 7.343 7.343 0 0 1 3.778-1.237l.311-.006h3.473V44.944a7.43 7.43 0 0 1 1.73-4.768l.214-.246.213-.223a7.349 7.349 0 0 1 4.903-2.165l.307-.006h15.053v-8.56l-.126.07a7.359 7.359 0 0 1-2.926.802l-.342.012-.311-.002a7.367 7.367 0 0 1-4.54-1.738 7.44 7.44 0 0 1-2.485-4.192 7.467 7.467 0 0 1 .637-4.839 7.411 7.411 0 0 1 3.207-3.26l.28-.138Zm3.136 48.395c-.687 0-1.358.204-1.929.588a3.493 3.493 0 0 0-1.281 1.569 3.52 3.52 0 0 0 .752 3.815 3.45 3.45 0 0 0 3.782.758 3.477 3.477 0 0 0 1.56-1.287c.34-.511.538-1.103.578-1.702l.008-.224-.008-.245a3.52 3.52 0 0 0-1.009-2.246 3.472 3.472 0 0 0-2.453-1.026Zm-23.098.054a3.467 3.467 0 0 0-1.778.956 3.521 3.521 0 0 0-.755 3.815 3.501 3.501 0 0 0 1.28 1.57 3.455 3.455 0 0 0 4.382-.434 3.51 3.51 0 0 0 .434-4.418 3.478 3.478 0 0 0-1.558-1.289 3.45 3.45 0 0 0-2.005-.2Zm10.845-22.64a3.465 3.465 0 0 0-1.78.953 3.52 3.52 0 0 0-.759 3.816 3.49 3.49 0 0 0 1.28 1.57 3.456 3.456 0 0 0 1.701.583l.228.007h.28l.176-.018a3.465 3.465 0 0 0 1.83-.835l.168-.158a3.515 3.515 0 0 0 1.02-2.476 3.516 3.516 0 0 0-.581-1.947 3.48 3.48 0 0 0-1.557-1.292 3.452 3.452 0 0 0-2.006-.204Zm22.412.001a3.464 3.464 0 0 0-1.777.957 3.52 3.52 0 0 0-.752 3.815 3.5 3.5 0 0 0 1.28 1.569c.509.34 1.096.54 1.702.58l.228.007h.275l.18-.018a3.467 3.467 0 0 0 1.832-.84l.167-.159a3.517 3.517 0 0 0 1.016-2.48c0-.693-.204-1.37-.587-1.946A3.478 3.478 0 0 0 63.96 41.7a3.45 3.45 0 0 0-2.005-.198Zm-10.84-22.485a3.464 3.464 0 0 0-1.777.956 3.52 3.52 0 0 0-.752 3.815c.263.64.71 1.186 1.28 1.57a3.456 3.456 0 0 0 4.381-.437 3.516 3.516 0 0 0 .432-4.419 3.478 3.478 0 0 0-1.559-1.287 3.45 3.45 0 0 0-2.005-.198Z" fill="#FF2424"/></svg>