<svg xmlns="http://www.w3.org/2000/svg" viewBox="0 0 90 90"><defs><linearGradient x1="17.752%" y1="7.546%" x2="76.594%" y2="83.722%" id="a"><stop stop-color="#69C294" offset="0%"/><stop stop-color="#69B3BD" offset="100%"/></linearGradient><linearGradient x1="102.704%" y1="12.472%" x2=".108%" y2="87.768%" id="b"><stop stop-color="#6091CF" offset="0%"/><stop stop-color="#6A6BB0" offset="100%"/></linearGradient></defs><path fill="#FFF" d="M0 0h90v90H0z"/><path d="m40.119.001.036.002c3.757.142 5.56 1.005 12.167 4.287s12.86 3.28 13.6 4.455c.741 1.175-.224 7.667-.834 15.383-.815 10.29-.27 23.393-2.335 26.092C55.313 59.939 40.765 67 40.12 67c-.646-.001-15.195-7.063-22.634-16.782-2.065-2.698-1.52-15.801-2.334-26.09-.611-7.717-1.576-14.21-.835-15.384.74-1.175 6.993-1.174 13.6-4.455C34.522 1.007 36.326.144 40.083 0h.036v.001Z" fill="url(#a)" transform="translate(5 11)"/><path d="M64.737 30.18h-24.75V0l.037.002C43.8.145 45.613 1.008 52.253 4.29c6.64 3.282 12.924 3.281 13.668 4.456.744 1.174-.225 7.667-.839 15.383a159.05 159.05 0 0 0-.345 6.051ZM39.987 67c-.649-.001-15.27-7.063-22.747-16.782-1.683-2.188-1.642-11.216-2.002-20.039h24.75V67Z" fill="url(#b)" transform="translate(5 11)"/><path d="M57.024 58.043c-3.616 0-6.548-2.872-6.548-6.415s2.932-6.415 6.548-6.415 6.547 2.872 6.547 6.415-2.931 6.415-6.547 6.415Zm0-.845c3.14 0 5.686-2.494 5.686-5.57 0-3.077-2.546-5.571-5.686-5.571s-5.686 2.494-5.686 5.57c0 3.077 2.545 5.571 5.686 5.571Z" fill="#FFF"/><path d="m56.103 53.014 3.156-3.16a.435.435 0 0 1 .614.612l-3.77 3.775-1.69-1.693a.435.435 0 0 1 .615-.611l1.075 1.077ZM26.317 25.613v8.365c0 .094.075.17.168.17h12.269a.169.169 0 0 0 .168-.17v-8.365H26.317Zm.168-2.496h12.269c.556 0 1.008.456 1.008 1.018v9.843c0 .563-.452 1.018-1.008 1.018h-12.27a1.013 1.013 0 0 1-1.008-1.018v-9.843c0-.562.452-1.018 1.009-1.018Zm.336 1.867a.591.591 0 0 0 .588-.594.591.591 0 0 0-.588-.594.591.591 0 0 0-.589.594c0 .328.264.594.589.594Zm1.848 0a.591.591 0 0 0 .589-.594.591.591 0 0 0-.589-.594.591.591 0 0 0-.588.594c0 .328.264.594.588.594ZM53.9 22.528a.423.423 0 0 0-.427.419V33.74c0 .231.192.419.427.419h6.247a.423.423 0 0 0 .427-.419V22.947a.423.423 0 0 0-.427-.419H53.9Zm0-.837h6.247c.708 0 1.282.562 1.282 1.256V33.74c0 .693-.574 1.255-1.282 1.255H53.9a1.268 1.268 0 0 1-1.281-1.255V22.947c0-.694.574-1.256 1.281-1.256Zm2.307 1.925a.38.38 0 0 1-.384-.376.38.38 0 0 1 .384-.377h1.62a.38.38 0 0 1 .385.377.38.38 0 0 1-.384.376h-1.621Zm.854 10.209a.846.846 0 0 1-.854-.837c0-.462.382-.837.854-.837s.854.375.854.837a.846.846 0 0 1-.854.837ZM36.984 52.38a.327.327 0 0 1-.47.01.345.345 0 0 1-.01-.48c.092-.097.166-.212.225-.35.458-1.068.208-2.556-.668-3.253-.9-.717-2.289-1.143-3.654-1.007a.334.334 0 0 1-.363-.305.338.338 0 0 1 .298-.37c1.537-.155 3.094.324 4.127 1.146 1.134.903 1.441 2.727.869 4.062-.09.21-.209.392-.354.547Zm-4.686 2.876a.342.342 0 0 1-.193.439.33.33 0 0 1-.428-.197c-.59-1.58-.16-3.032.797-3.828.336-.28.733-.42 1.308-.518.102-.017.149-.024.372-.057.904-.132 1.108-.25 1.108-.744 0-1.191-1.213-1.807-2.988-1.427-1.532.328-2.616 1.643-2.919 3.08-.21.995-.182 2.107.085 3.341a.34.34 0 0 1-.253.405.332.332 0 0 1-.396-.258c-.287-1.325-.316-2.535-.086-3.63.354-1.681 1.618-3.214 3.433-3.603 2.135-.458 3.789.382 3.789 2.092 0 .524-.203.896-.587 1.119-.265.154-.522.215-1.092.298-.218.032-.262.038-.358.055-.47.08-.77.185-.997.374-.74.616-1.079 1.762-.595 3.06Zm1.284 1.977a.345.345 0 0 1-.014.48.327.327 0 0 1-.47-.015 8.083 8.083 0 0 1-.94-1.226.344.344 0 0 1 .104-.468c.156-.1.36-.052.458.106.227.368.513.743.862 1.123Zm2.726-3.42a.338.338 0 0 1 .284.383.334.334 0 0 1-.374.29c-.733-.102-.98-.004-.98.204 0 .309.211.466.794.492a.337.337 0 0 1 .318.354.335.335 0 0 1-.346.325c-.9-.04-1.43-.436-1.43-1.17 0-.385.198-.677.55-.817.29-.115.68-.13 1.184-.06Zm-4.82 2.979a.345.345 0 0 1-.084.473.328.328 0 0 1-.462-.086 6.417 6.417 0 0 1-.84-1.82c-.334-1.143-.244-2.494.215-3.581a.33.33 0 0 1 .437-.177.343.343 0 0 1 .173.446c-.398.943-.477 2.13-.189 3.117.18.614.43 1.157.75 1.628Zm-.094-5.537a.327.327 0 0 1-.468.041.345.345 0 0 1-.04-.478c.44-.537 1.332-.908 2.682-1.15a.333.333 0 0 1 .384.275.34.34 0 0 1-.27.393c-1.208.217-1.974.536-2.288.919Zm5.061-5.162c.155.1.202.31.104.468a.328.328 0 0 1-.458.106c-.51-.328-.87-.52-1.34-.683-.616-.215-1.327-.33-2.197-.33-1.397 0-2.717.616-3.708 1.564a.327.327 0 0 1-.47-.016.345.345 0 0 1 .016-.48c1.107-1.058 2.583-1.747 4.162-1.747.941 0 1.724.126 2.411.365.528.184.93.398 1.48.753Zm-1.5 10.464c.15.107.188.318.083.472a.328.328 0 0 1-.463.085c-1.478-1.053-2.04-2.174-1.575-3.32a1.8 1.8 0 0 1 .923-.972c.305-.149.568-.219 1.165-.342l.028-.005c.18-.037.276-.058.38-.083a.332.332 0 0 1 .4.254.34.34 0 0 1-.249.408c-.113.027-.214.048-.4.087l-.028.005c-1.037.213-1.393.386-1.605.91-.321.79.09 1.609 1.341 2.5Zm-3.729-9.708a.331.331 0 0 1 .414.228.341.341 0 0 1-.223.422 5.195 5.195 0 0 0-.351.122c-.454.175-1.056.59-1.558 1.117-.63.66-1.067 1.443-1.23 2.303a.333.333 0 0 1-.39.269.34.34 0 0 1-.263-.398c.19-1 .692-1.898 1.407-2.648.568-.597 1.25-1.067 1.799-1.279.13-.05.263-.096.395-.136Z" fill="#FFF"/><path d="M5.002 51.865c3.768.708 6.498 1.062 8.188 1.062h5.143v9.63H13.19c-2.691 0-5.421-.35-8.19-1.051l2.521-4.515-2.52-5.126Z" fill="#6165A0"/><path fill="#292C55" d="M18.308 53.053h.025v9.504h-.37l-3.86-4.752z"/><path d="m84.998 51.865-2.52 5.126L85 61.506c-2.769.7-5.499 1.05-8.19 1.05h-5.143v-9.63h5.143c1.69 0 4.42-.353 8.188-1.06Z" fill="#6165A0"/><path fill="#292C55" d="m71.667 52.958 4.515 4.848-4.145 4.75h-.37z"/><path d="M14.048 57.805c10.357 2.543 20.714 3.814 31.071 3.814 10.357 0 20.714-1.271 31.071-3.814v10.679c-10.357 2.543-20.714 3.814-31.071 3.814-10.357 0-20.714-1.271-31.071-3.814V57.805Z" fill="#444884"/><path d="M29.28 65.138a.28.28 0 0 1 .067.21.387.387 0 0 1-.03.112c-.353.839-.71 1.677-1.07 2.514a.266.266 0 0 1-.128.135.282.282 0 0 1-.181.024c-.108-.015-.185-.08-.234-.195-.17-.554-.34-1.109-.508-1.663a382.14 382.14 0 0 1-.685 1.578.287.287 0 0 1-.258.16.272.272 0 0 1-.173-.052.251.251 0 0 1-.106-.149c-.245-.88-.487-1.76-.726-2.642a.357.357 0 0 1-.009-.114.288.288 0 0 1 .093-.196.26.26 0 0 1 .206-.068c.134.01.216.077.246.2.184.686.37 1.372.557 2.058l.669-1.44a.26.26 0 0 1 .272-.16c.118.008.195.073.23.195l.478 1.499c.276-.646.55-1.291.82-1.937.051-.117.145-.17.283-.162a.262.262 0 0 1 .187.093Zm2.872.754c-.168.117-.285.305-.35.565.584.03 1.167.058 1.75.084l.003-.047a.734.734 0 0 0-.259-.532.891.891 0 0 0-.562-.23.913.913 0 0 0-.582.16Zm1.895 1.074a.284.284 0 0 1-.2.066c-.697-.03-1.395-.063-2.092-.1.013.292.112.53.296.715.184.184.416.283.694.297.191.009.348-.012.47-.062.121-.05.23-.117.325-.2a.337.337 0 0 1 .175-.047c.067.003.123.03.166.08a.23.23 0 0 1 .062.169c-.003.084-.046.157-.128.222a1.4 1.4 0 0 1-.473.271 1.513 1.513 0 0 1-.591.093 1.726 1.726 0 0 1-.842-.245 1.409 1.409 0 0 1-.538-.596 1.679 1.679 0 0 1-.157-.833c.018-.334.101-.622.25-.868.15-.245.339-.429.568-.553a1.38 1.38 0 0 1 1.427.063 1.553 1.553 0 0 1 .684 1.35.255.255 0 0 1-.096.178Zm4.24 1.03a.972.972 0 0 0 .352-.391 1.28 1.28 0 0 0 .135-.561 1.271 1.271 0 0 0-.11-.564.963.963 0 0 0-.332-.402.882.882 0 0 0-.487-.155.89.89 0 0 0-.501.13.964.964 0 0 0-.352.38c-.086.163-.132.35-.138.56-.006.21.029.4.105.57.077.17.187.305.332.407a.88.88 0 0 0 .497.16c.183.005.35-.04.5-.134Zm.358-2.37c.213.144.38.34.499.59.12.25.176.529.17.84-.006.31-.073.589-.204.836-.13.248-.306.44-.529.574a1.316 1.316 0 0 1-.728.19 1.343 1.343 0 0 1-1.003-.506l-.005.174a.28.28 0 0 1-.296.277.278.278 0 0 1-.272-.295l.123-3.882a.287.287 0 0 1 .083-.204.263.263 0 0 1 .202-.074.268.268 0 0 1 .2.09.284.284 0 0 1 .074.205l-.043 1.455c.099-.14.24-.259.424-.357a1.16 1.16 0 0 1 .583-.14c.268.008.508.083.722.227Zm4.658 2.442a.965.965 0 0 0 .34-.393c.082-.167.123-.356.124-.567 0-.206-.04-.393-.121-.56a.992.992 0 0 0-.337-.398.865.865 0 0 0-.494-.149.877.877 0 0 0-.495.14.969.969 0 0 0-.34.392 1.282 1.282 0 0 0-.127.565c-.002.211.037.4.117.568.08.168.192.3.336.397.145.096.31.145.498.146a.884.884 0 0 0 .499-.14Zm.923-2.478c.054.054.08.124.08.212l.003 2.59a.28.28 0 0 1-.287.286.27.27 0 0 1-.28-.287v-.155c-.104.14-.246.257-.426.354a1.19 1.19 0 0 1-.58.144 1.353 1.353 0 0 1-.738-.214 1.426 1.426 0 0 1-.514-.587 1.834 1.834 0 0 1-.178-.84c.003-.31.069-.59.196-.837s.299-.439.517-.576c.218-.138.456-.206.716-.204a1.318 1.318 0 0 1 1.01.469v-.143c0-.084.025-.153.077-.21a.26.26 0 0 1 .2-.083c.083 0 .151.027.204.081Zm4.881-.01a.284.284 0 0 1 .084.202l.033 1.587c.009.414-.098.737-.323.97-.225.234-.547.355-.966.361-.414.007-.737-.103-.967-.33-.23-.225-.346-.545-.35-.959l-.017-1.587c0-.08.025-.147.078-.204a.263.263 0 0 1 .197-.086.27.27 0 0 1 .204.081.283.283 0 0 1 .083.202l.02 1.587c.006.522.254.78.744.771.243-.004.427-.073.552-.206.125-.134.185-.33.18-.589l-.03-1.586a.284.284 0 0 1 .076-.205.263.263 0 0 1 .196-.087.27.27 0 0 1 .206.079Zm3.292.38.06 1.776c.007.2.1.296.279.289A.43.43 0 0 0 52.85 68a.437.437 0 0 1 .112-.025.164.164 0 0 1 .134.06.255.255 0 0 1 .06.165c.003.084-.042.157-.136.22a.597.597 0 0 1-.32.102 1.46 1.46 0 0 1-.363-.03.535.535 0 0 1-.3-.2c-.089-.111-.137-.282-.144-.512l-.058-1.802-.343.011a.251.251 0 0 1-.268-.254.246.246 0 0 1 .068-.187.257.257 0 0 1 .184-.077l.343-.011-.016-.501a.284.284 0 0 1 .073-.206.269.269 0 0 1 .2-.09.262.262 0 0 1 .2.077c.055.053.084.12.087.2l.017.5.49-.017a.252.252 0 0 1 .189.067c.05.048.078.11.08.185a.247.247 0 0 1-.067.188.257.257 0 0 1-.183.078l-.491.018Zm5.552.431.09 1.591a.28.28 0 0 1-.27.303.28.28 0 0 1-.297-.27l-.086-1.591c-.029-.517-.26-.762-.693-.74a.804.804 0 0 0-.568.255.74.74 0 0 0-.204.563L56 68.093a.281.281 0 0 1-.273.3.269.269 0 0 1-.294-.272l-.178-3.839a.285.285 0 0 1 .07-.206.261.261 0 0 1 .193-.093.268.268 0 0 1 .207.073c.055.053.085.12.089.199l.073 1.508c.091-.16.222-.3.394-.418a1.07 1.07 0 0 1 .558-.194c.692-.037 1.062.375 1.112 1.24Zm5.018-.377.125 1.618a.281.281 0 0 1-.264.308.28.28 0 0 1-.302-.264l-.121-1.612c-.018-.234-.085-.416-.202-.547-.117-.13-.295-.187-.535-.169a.89.89 0 0 0-.421.136.799.799 0 0 0-.282.301.714.714 0 0 0-.083.392l.111 1.613a.281.281 0 0 1-.267.306.27.27 0 0 1-.3-.266l-.17-2.548a.284.284 0 0 1 .067-.208.264.264 0 0 1 .192-.097.27.27 0 0 1 .21.069.283.283 0 0 1 .093.197l.014.208a1.3 1.3 0 0 1 .4-.433c.175-.122.367-.191.575-.207.706-.053 1.093.346 1.16 1.203Z" fill="#FFF"/></svg>