<svg xmlns="http://www.w3.org/2000/svg" viewBox="0 0 90 90"><defs><linearGradient x1="50%" y1="0%" x2="50%" y2="100%" id="a"><stop stop-color="#67FF81" offset="0%"/><stop stop-color="#01B41F" offset="100%"/></linearGradient></defs><path fill="url(#a)" d="M0 0h90v90H0z"/><path d="M46 11.5c-17.95 0-32.5 14.55-32.5 32.5 0 4.249.819 8.393 2.39 12.252l.284.675a32.402 32.402 0 0 0 1.64 3.262l.131.223-4.422 16.563 16.967-4.41.14.077a32.316 32.316 0 0 0 8.121 3.045A32.56 32.56 0 0 0 46 76.5c17.95 0 32.5-14.55 32.5-32.5S63.95 11.5 46 11.5Zm0 5.5c14.912 0 27 12.088 27 27S60.912 71 46 71c-2.072 0-4.089-.233-6.026-.675a26.84 26.84 0 0 1-8.158-3.347l-.493-.312-10.052 2.613 2.613-9.786a26.942 26.942 0 0 1-2.9-5.315A26.923 26.923 0 0 1 19 44c0-14.912 12.088-27 27-27Z" fill="#FFF"/><path d="M32.406 42.116C30.664 38.958 30 36.412 30 34.693c0-1.72.422-2.213.851-2.612.429-.398 2.362-1.59 2.692-1.812.329-.222 1.586-.654 2.374.48.789 1.134 2.273 3.41 3.297 4.924 1.606 2.142.327 3.083-.087 3.646-.76 1.038-1.198 1.294-1.198 2.567 0 1.274 3.56 4.893 4.41 5.785.846.885 4.393 3.994 5.492 4.16 1.107.168 2.588-1.004 2.903-1.301 1.603-1.23 2.508-.298 3.246.108.738.405 4.074 2.484 5.107 3.184.973.7.912 1.783.912 1.783s-.692 2.02-2.25 3.567c-.382.38-1.033.828-2.675.828-1.641 0-3.395-.3-7.564-2.592-3.41-1.876-6.662-4.813-8.364-6.533-1.763-1.72-4.75-5.151-6.74-8.759Z" fill="#FFF"/></svg>