<svg xmlns="http://www.w3.org/2000/svg" viewBox="0 0 90 90"><path fill="#FFF" d="M0 0h90v90H0z"/><path d="M41.047 54.647a4.269 4.269 0 0 1-1.686-.35L27.633 49.2c-2.097-.907-3.042-3.316-2.111-5.36l5.226-11.434c.93-2.043 3.401-2.965 5.498-2.058l11.728 5.096c2.096.907 3.042 3.316 2.11 5.36l-5.226 11.434c-.696 1.515-2.22 2.408-3.811 2.408Zm-.711-2.494c.887.386 1.928-.007 2.323-.865l5.227-11.434c.396-.865-.008-1.88-.887-2.265l-11.736-5.096c-.887-.386-1.928.007-2.323.865l-5.227 11.434c-.396.865.008 1.88.887 2.265l11.736 5.096Z" fill="#089949"/><path d="M77.837 54.654H64.994c-2.294 0-4.163-1.822-4.163-4.06v-12.52c0-2.236 1.869-4.059 4.163-4.059h12.843c2.294 0 4.163 1.823 4.163 4.06v12.52c0 2.237-1.87 4.059-4.163 4.059ZM64.994 36.359c-.967 0-1.759.772-1.759 1.716v12.52c0 .943.792 1.715 1.76 1.715h12.842c.967 0 1.759-.772 1.759-1.715v-12.52c0-.944-.792-1.716-1.76-1.716H64.995Z" fill="#F9B21D"/><path d="m29.744 40.369-1.73 3.773a1.625 1.625 0 0 1-.066.114l.674 4.06c.154.935-.498 1.814-1.451 1.964L14.49 52.281a1.813 1.813 0 0 1-1.312-.3 1.679 1.679 0 0 1-.704-1.115l-2.052-12.363a1.7 1.7 0 0 1 .307-1.279 1.734 1.734 0 0 1 1.144-.686l12.681-2c.095-.015.19-.022.279-.022.843 0 1.598.6 1.737 1.443l.682 4.088 1.788-3.91-.095-.55c-.367-2.208-2.507-3.715-4.772-3.358l-12.681 2a4.092 4.092 0 0 0-2.705 1.623 3.952 3.952 0 0 0-.733 3.023l2.052 12.363a4.012 4.012 0 0 0 1.672 2.644 4.152 4.152 0 0 0 2.426.765c.22 0 .447-.014.674-.05l12.681-2.001c2.265-.357 3.812-2.444 3.446-4.652l-1.261-7.575Z" fill="#E42527"/><path d="m44.954 46.271 1.862-4.066-.528-3.78c-.066-.45.058-.9.344-1.265a1.74 1.74 0 0 1 1.166-.658l12.725-1.686a1.8 1.8 0 0 1 1.305.336c.058.043.11.093.16.135a4.221 4.221 0 0 1 2.134-1.172 4.01 4.01 0 0 0-.843-.836 4.224 4.224 0 0 0-3.079-.793l-12.74 1.687a4.12 4.12 0 0 0-2.748 1.565 3.966 3.966 0 0 0-.814 3.001l1.056 7.532Zm21.653 2.094L64.936 36.36c-.939.029-1.694.787-1.694 1.708v3.524l.99 7.089c.066.45-.059.9-.345 1.265-.286.364-.696.6-1.165.657L49.997 52.29a1.757 1.757 0 0 1-1.298-.336 1.674 1.674 0 0 1-.674-1.137l-.586-4.209-1.862 4.067.066.457a3.979 3.979 0 0 0 1.605 2.68 4.2 4.2 0 0 0 2.514.829c.19 0 .381-.015.572-.036l12.71-1.672c1.1-.143 2.082-.7 2.75-1.565.674-.865.96-1.93.813-3.002Z" fill="#226DB4"/><path d="m30.704 60.593 1.818-2.616h-1.495a.145.145 0 0 1-.147-.143v-.35c0-.079.066-.143.147-.143h2.455c.08 0 .147.064.147.143v.136a.141.141 0 0 1-.022.078l-1.782 2.616h1.598c.081 0 .147.064.147.143v.35a.145.145 0 0 1-.147.143H30.83a.145.145 0 0 1-.147-.143v-.129a.11.11 0 0 1 .022-.085Zm7.653-1.473c0-1.071.806-1.843 1.905-1.843 1.137 0 1.906.757 1.906 1.85 0 1.108-.784 1.873-1.92 1.873-1.144 0-1.891-.765-1.891-1.88Zm2.939.015c0-.65-.323-1.208-1.048-1.208-.733 0-1.012.579-1.012 1.236 0 .622.345 1.194 1.048 1.194.726-.007 1.012-.615 1.012-1.222Zm6.084-1.801h.542c.081 0 .147.064.147.143v1.33h1.54v-1.33c0-.079.065-.143.146-.143h.542c.081 0 .147.064.147.143V60.8a.145.145 0 0 1-.147.143h-.535a.145.145 0 0 1-.146-.143v-1.344h-1.54V60.8a.145.145 0 0 1-.146.143h-.543a.145.145 0 0 1-.146-.143v-3.323c-.008-.079.058-.143.139-.143Zm8.129 1.786c0-1.071.806-1.843 1.906-1.843 1.136 0 1.906.757 1.906 1.85 0 1.108-.785 1.873-1.92 1.873-1.144 0-1.892-.765-1.892-1.88Zm2.932.015c0-.65-.322-1.208-1.048-1.208-.733 0-1.012.579-1.012 1.236 0 .622.345 1.194 1.049 1.194.725-.007 1.011-.615 1.011-1.222Z"/></svg>