<svg xmlns="http://www.w3.org/2000/svg" viewBox="0 0 150 150"><path d="M142 0a8 8 0 0 1 8 8v134a8 8 0 0 1-8 8H8a8 8 0 0 1-8-8V8a8 8 0 0 1 8-8h134Z" fill="#FFF"/><path d="M142 0a8 8 0 0 1 8 8v134a8 8 0 0 1-8 8H8a8 8 0 0 1-8-8V8a8 8 0 0 1 8-8h134Zm0 1H8a7 7 0 0 0-6.996 6.76L1 8v134a7 7 0 0 0 6.76 6.996L8 149h134a7 7 0 0 0 6.996-6.76L149 142V8a7 7 0 0 0-6.76-6.996L142 1Z" fill="#E6E6E6"/><path fill="#FFF" d="M8 8h134v134H8z"/><path d="M52.667 14.948c0-1.096.888-1.985 1.985-1.985h.992c1.097 0 1.986.889 1.986 1.985v5.956c0 1.096.888 1.985 1.985 1.985h.992c1.097 0 1.986.889 1.986 1.985v.993c0 1.096.888 1.985 1.985 1.985h.992c1.097 0 1.986.889 1.986 1.985v15.882c0 1.096.888 1.985 1.985 1.985h.992c1.097 0 1.986.889 1.986 1.985v.992a1.985 1.985 0 0 1-1.986 1.986h-.992a1.985 1.985 0 0 0-1.985 1.985v.992a1.985 1.985 0 0 1-1.986 1.986h-.992a1.985 1.985 0 0 1-1.985-1.986V44.726a1.985 1.985 0 0 0-1.986-1.985h-.992a1.985 1.985 0 0 0-1.985 1.985v.993a1.985 1.985 0 0 1-1.986 1.985h-.992a1.985 1.985 0 0 1-1.985-1.985v-5.956c0-1.096.888-1.985 1.985-1.985h.992a1.985 1.985 0 0 0 1.986-1.985V34.8a1.985 1.985 0 0 0-1.986-1.985h-.992a1.985 1.985 0 0 1-1.985-1.985V14.948Zm24.814 0c0-1.096.89-1.985 1.986-1.985h.992c1.097 0 1.985.889 1.985 1.985v.993a1.985 1.985 0 0 1-1.985 1.985h-.992a1.985 1.985 0 0 1-1.986-1.985v-.993Zm9.926 0c0-1.096.89-1.985 1.986-1.985h.992c1.097 0 1.985.889 1.985 1.985v.993a1.985 1.985 0 0 1-1.985 1.985h-.992a1.985 1.985 0 0 1-1.986-1.985v-.993Zm-19.851 4.963c0-1.096.888-1.985 1.985-1.985h5.955c1.097 0 1.985.889 1.985 1.985V30.83c0 1.096.89 1.985 1.986 1.985h.992c1.097 0 1.985.889 1.985 1.985v.993c0 1.096.89 1.985 1.986 1.985h.992c1.097 0 1.985.889 1.985 1.985v10.918a1.985 1.985 0 0 1-1.985 1.986h-.992a1.985 1.985 0 0 1-1.986-1.986v-5.955a1.985 1.985 0 0 0-1.985-1.985h-.992a1.985 1.985 0 0 1-1.986-1.985v-.993a1.985 1.985 0 0 0-1.985-1.985h-.992a1.985 1.985 0 0 1-1.985-1.985V24.874a1.985 1.985 0 0 0-1.986-1.985h-.992a1.985 1.985 0 0 1-1.985-1.985v-.993Zm14.888 0c0-1.096.89-1.985 1.986-1.985h.992c1.097 0 1.985.889 1.985 1.985V30.83a1.985 1.985 0 0 1-1.985 1.985h-.992a1.985 1.985 0 0 1-1.986-1.985V19.91Zm9.926 0c0-1.096.89-1.985 1.986-1.985h.992c1.097 0 1.985.889 1.985 1.985v.993a1.985 1.985 0 0 1-1.985 1.985h-.992a1.985 1.985 0 0 1-1.986-1.985v-.993Zm0 9.926c0-1.096.89-1.985 1.986-1.985h.992c1.097 0 1.985.889 1.985 1.985v.993a1.985 1.985 0 0 1-1.985 1.985h-.992a1.985 1.985 0 0 1-1.986-1.985v-.993ZM87.407 34.8c0-1.096.89-1.985 1.986-1.985h.992c1.097 0 1.985.889 1.985 1.985v.993a1.985 1.985 0 0 1-1.985 1.985h-.992a1.985 1.985 0 0 1-1.986-1.985V34.8Zm4.963 4.963c0-1.096.89-1.985 1.986-1.985h.992c1.097 0 1.985.889 1.985 1.985v5.956a1.985 1.985 0 0 1-1.985 1.985h-.992a1.985 1.985 0 0 1-1.986-1.985v-5.956Zm-19.85 4.963c0-1.096.888-1.985 1.985-1.985h.992c1.097 0 1.985.889 1.985 1.985v.993a1.985 1.985 0 0 1-1.985 1.985h-.992a1.985 1.985 0 0 1-1.985-1.985v-.993Zm-59.556 9.926c0-1.097.889-1.985 1.985-1.985h5.956c1.096 0 1.985.888 1.985 1.985v5.955a1.985 1.985 0 0 1-1.985 1.986h-.993a1.985 1.985 0 0 1-1.985-1.986v-.992a1.985 1.985 0 0 0-1.985-1.985h-.993a1.985 1.985 0 0 1-1.985-1.986v-.992Zm19.852 0c0-1.097.889-1.985 1.985-1.985H45.72c1.096 0 1.985.888 1.985 1.985v.992a1.985 1.985 0 0 1-1.985 1.986h-.993a1.985 1.985 0 0 0-1.985 1.985v.992a1.985 1.985 0 0 1-1.985 1.986h-.993a1.985 1.985 0 0 0-1.985 1.985v.992c0 1.097.889 1.986 1.985 1.986h.993c1.096 0 1.985.888 1.985 1.985v.992c0 1.097.889 1.986 1.985 1.986h5.955a1.985 1.985 0 0 0 1.986-1.986v-.992c0-1.097.888-1.985 1.985-1.985h.992a1.985 1.985 0 0 0 1.986-1.986v-.992c0-1.097.888-1.985 1.985-1.985h5.955c1.097 0 1.986.888 1.986 1.985v.992a1.985 1.985 0 0 1-1.986 1.986h-.992a1.985 1.985 0 0 0-1.985 1.985v.992a1.985 1.985 0 0 1-1.986 1.986h-.992a1.985 1.985 0 0 0-1.985 1.985v.992a1.985 1.985 0 0 1-1.986 1.985H29.837a1.985 1.985 0 0 0-1.985 1.986v5.955a1.985 1.985 0 0 1-1.985 1.985h-.993a1.985 1.985 0 0 1-1.985-1.985v-5.955a1.985 1.985 0 0 0-1.985-1.986h-.993a1.985 1.985 0 0 1-1.985-1.985v-5.955c0-1.097.889-1.985 1.985-1.985h.993c1.096 0 1.985.888 1.985 1.985v.992c0 1.097.889 1.986 1.985 1.986h.993a1.985 1.985 0 0 0 1.985-1.986v-.992a1.985 1.985 0 0 0-1.985-1.985h-.993a1.985 1.985 0 0 1-1.985-1.986v-.992c0-1.097.889-1.985 1.985-1.985h5.956a1.985 1.985 0 0 0 1.985-1.986v-5.955Zm39.704 0c0-1.097.888-1.985 1.985-1.985h.992c1.097 0 1.985.888 1.985 1.985v.992a1.985 1.985 0 0 1-1.985 1.986h-.992a1.985 1.985 0 0 1-1.985-1.986v-.992Zm17.866-1.985c1.097 0 1.985.888 1.985 1.985v.992c0 1.097.89 1.986 1.986 1.986h5.955c1.096 0 1.985.888 1.985 1.985v10.918c0 1.097.89 1.986 1.985 1.986h5.956c1.096 0 1.985.888 1.985 1.985v.992a1.985 1.985 0 0 1-1.985 1.985h-5.956a1.985 1.985 0 0 0-1.985 1.986v10.918c0 1.097.89 1.985 1.985 1.985h.993a1.985 1.985 0 0 0 1.985-1.985V84.43c0-1.097.89-1.986 1.985-1.986h.993a1.985 1.985 0 0 0 1.985-1.985v-.992c0-1.097.889-1.986 1.985-1.986h.993c1.096 0 1.985.89 1.985 1.986v.992c0 1.097.889 1.985 1.985 1.985h5.956c1.096 0 1.985.89 1.985 1.986v.992c0 1.097.889 1.985 1.985 1.985h.993c1.096 0 1.985.89 1.985 1.986v.992a1.985 1.985 0 0 1-1.985 1.985h-.993a1.985 1.985 0 0 0-1.985 1.986v.992a1.985 1.985 0 0 1-1.985 1.985h-5.956a1.985 1.985 0 0 0-1.985 1.986v5.955c0 1.096.889 1.985 1.985 1.985h10.919c1.096 0 1.985.89 1.985 1.985v.993a1.985 1.985 0 0 1-1.985 1.985h-.993a1.985 1.985 0 0 0-1.985 1.985v.993c0 1.096.889 1.985 1.985 1.985h5.956c1.096 0 1.985.889 1.985 1.985v.993a1.985 1.985 0 0 1-1.985 1.985h-.993a1.985 1.985 0 0 0-1.985 1.985v5.956c0 1.096.889 1.985 1.985 1.985h.993c1.096 0 1.985.889 1.985 1.985v.993a1.985 1.985 0 0 1-1.985 1.985h-10.919a1.985 1.985 0 0 1-1.985-1.985v-.993a1.985 1.985 0 0 0-1.985-1.985h-10.919a1.985 1.985 0 0 0-1.985 1.985v.993a1.985 1.985 0 0 1-1.985 1.985h-.993a1.985 1.985 0 0 1-1.985-1.985v-5.956a1.985 1.985 0 0 0-1.985-1.985h-5.955a1.985 1.985 0 0 1-1.986-1.985v-.993c0-1.096.89-1.985 1.986-1.985h.992a1.985 1.985 0 0 0 1.985-1.985v-.993a1.985 1.985 0 0 0-1.985-1.985h-.992a1.985 1.985 0 0 1-1.986-1.985v-.993a1.985 1.985 0 0 0-1.985-1.985h-.992a1.985 1.985 0 0 1-1.986-1.985v-.993c0-1.096.89-1.985 1.986-1.985h.992a1.985 1.985 0 0 0 1.985-1.985V99.32a1.985 1.985 0 0 0-1.985-1.986h-.992a1.985 1.985 0 0 1-1.986-1.985v-.992c0-1.097.89-1.986 1.986-1.986h5.955a1.985 1.985 0 0 0 1.985-1.985v-.992a1.985 1.985 0 0 0-1.985-1.986H84.43a1.985 1.985 0 0 1-1.986-1.985v-.992c0-1.097.89-1.986 1.986-1.986h.992a1.985 1.985 0 0 0 1.985-1.985v-.992c0-1.097.89-1.986 1.986-1.986h5.955a1.985 1.985 0 0 0 1.985-1.985v-.992a1.985 1.985 0 0 0-1.985-1.985h-.992a1.985 1.985 0 0 1-1.986-1.986v-.992c0-1.097.89-1.985 1.986-1.985h.992a1.985 1.985 0 0 0 1.985-1.986v-.992a1.985 1.985 0 0 0-1.985-1.985h-.992a1.985 1.985 0 0 0-1.986 1.985v.992a1.985 1.985 0 0 1-1.985 1.986h-.992a1.985 1.985 0 0 1-1.986-1.986V54.652c0-1.097.89-1.985 1.986-1.985h.992Zm34.74 69.481h-.992a1.985 1.985 0 0 0-1.985 1.985v.993c0 1.096.889 1.985 1.985 1.985h.993a1.985 1.985 0 0 0 1.985-1.985v-.993a1.985 1.985 0 0 0-1.985-1.985Zm-4.962-4.963h-5.956a1.985 1.985 0 0 0-1.985 1.985v.993a1.985 1.985 0 0 1-1.985 1.985h-.993a1.985 1.985 0 0 0-1.985 1.985v.993c0 1.096.89 1.985 1.985 1.985h5.956a1.985 1.985 0 0 0 1.985-1.985v-.993c0-1.096.889-1.985 1.985-1.985h.993a1.985 1.985 0 0 0 1.985-1.985v-.993a1.985 1.985 0 0 0-1.985-1.985Zm-9.926-19.852H99.319a1.985 1.985 0 0 0-1.986 1.986v10.918c0 1.096.89 1.985 1.986 1.985h10.918a1.985 1.985 0 0 0 1.985-1.985V99.319a1.985 1.985 0 0 0-1.985-1.986Zm9.926-9.926h-.993a1.985 1.985 0 0 0-1.985 1.986v.992c0 1.097.889 1.985 1.985 1.985h.993a1.985 1.985 0 0 0 1.985-1.985v-.992a1.985 1.985 0 0 0-1.985-1.986ZM107.26 54.652c0-1.097.89-1.985 1.985-1.985h.993c1.096 0 1.985.888 1.985 1.985v.992a1.985 1.985 0 0 1-1.985 1.986h-.993a1.985 1.985 0 0 1-1.985-1.986v-.992Zm9.926 0c0-1.097.889-1.985 1.985-1.985h15.882c1.096 0 1.985.888 1.985 1.985v.992a1.985 1.985 0 0 1-1.985 1.986h-.993a1.985 1.985 0 0 0-1.985 1.985v.992a1.985 1.985 0 0 1-1.985 1.986h-.993a1.985 1.985 0 0 1-1.985-1.986v-.992a1.985 1.985 0 0 0-1.985-1.985h-.993a1.985 1.985 0 0 0-1.985 1.985v.992c0 1.097.889 1.986 1.985 1.986h.993c1.096 0 1.985.888 1.985 1.985v.992c0 1.097.889 1.986 1.985 1.986h.993c1.096 0 1.985.888 1.985 1.985v.992c0 1.097.889 1.986 1.985 1.986h.993c1.096 0 1.985.888 1.985 1.985v.992a1.985 1.985 0 0 1-1.985 1.985h-.993a1.985 1.985 0 0 0-1.985 1.986v.992a1.985 1.985 0 0 1-1.985 1.985h-.993a1.985 1.985 0 0 1-1.985-1.985v-.992a1.985 1.985 0 0 0-1.985-1.986h-5.956a1.985 1.985 0 0 1-1.985-1.985v-.992c0-1.097.889-1.985 1.985-1.985h.993a1.985 1.985 0 0 0 1.985-1.986v-.992a1.985 1.985 0 0 0-1.985-1.985h-.993a1.985 1.985 0 0 1-1.985-1.986v-.992a1.985 1.985 0 0 0-1.985-1.985h-.993a1.985 1.985 0 0 1-1.985-1.986v-.992c0-1.097.889-1.985 1.985-1.985h.993a1.985 1.985 0 0 0 1.985-1.986v-.992Zm-64.518 4.963c0-1.097.888-1.985 1.985-1.985h.992c1.097 0 1.986.888 1.986 1.985v.992a1.985 1.985 0 0 1-1.986 1.986h-.992a1.985 1.985 0 0 1-1.985-1.986v-.992Zm-9.926 4.963c0-1.097.889-1.985 1.985-1.985h5.955c1.097 0 1.986.888 1.986 1.985v.992a1.985 1.985 0 0 1-1.986 1.986h-5.955a1.985 1.985 0 0 1-1.985-1.986v-.992Zm34.74 0c0-1.097.89-1.985 1.986-1.985h.992c1.097 0 1.985.888 1.985 1.985v.992a1.985 1.985 0 0 1-1.985 1.986h-.992a1.985 1.985 0 0 1-1.986-1.986v-.992Zm29.778 0c0-1.097.89-1.985 1.985-1.985h.993c1.096 0 1.985.888 1.985 1.985v.992a1.985 1.985 0 0 1-1.985 1.986h-.993a1.985 1.985 0 0 1-1.985-1.986v-.992ZM72.52 69.54c0-1.097.888-1.985 1.985-1.985h.992c1.097 0 1.985.888 1.985 1.985v.992a1.985 1.985 0 0 1-1.985 1.986h-.992a1.985 1.985 0 0 1-1.985-1.986v-.992Zm-4.963 4.963c0-1.097.888-1.985 1.985-1.985h.992c1.097 0 1.986.888 1.986 1.985v.992a1.985 1.985 0 0 1-1.986 1.985h-.992a1.985 1.985 0 0 1-1.985-1.985v-.992Zm14.888 0c0-1.097.89-1.985 1.986-1.985h.992c1.097 0 1.985.888 1.985 1.985v.992a1.985 1.985 0 0 1-1.985 1.985h-.992a1.985 1.985 0 0 1-1.986-1.985v-.992Zm-69.481 4.963c0-1.097.889-1.986 1.985-1.986h.993c1.096 0 1.985.89 1.985 1.986v.992a1.985 1.985 0 0 1-1.985 1.985h-.993a1.985 1.985 0 0 1-1.985-1.985v-.992Zm44.667 0c0-1.097.888-1.986 1.985-1.986h5.955c1.097 0 1.986.89 1.986 1.986v.992c0 1.097.888 1.985 1.985 1.985h.992a1.985 1.985 0 0 0 1.986-1.985v-.992c0-1.097.888-1.986 1.985-1.986h5.955c1.097 0 1.985.89 1.985 1.986v.992a1.985 1.985 0 0 1-1.985 1.985h-.992a1.985 1.985 0 0 0-1.986 1.986v.992a1.985 1.985 0 0 1-1.985 1.985h-.992a1.985 1.985 0 0 0-1.985 1.986v.992a1.985 1.985 0 0 1-1.986 1.985h-5.955a1.985 1.985 0 0 0-1.985 1.986v.992a1.985 1.985 0 0 1-1.986 1.985h-.992a1.985 1.985 0 0 1-1.985-1.985v-.992a1.985 1.985 0 0 0-1.986-1.986h-.992a1.985 1.985 0 0 1-1.985-1.985v-.992c0-1.097.888-1.986 1.985-1.986h5.955a1.985 1.985 0 0 0 1.986-1.985v-.992a1.985 1.985 0 0 0-1.986-1.986h-.992a1.985 1.985 0 0 1-1.985-1.985v-.992ZM32.815 84.43c0-1.097.889-1.986 1.985-1.986h.993c1.096 0 1.985.89 1.985 1.986v.992c0 1.097.889 1.985 1.985 1.985h.993c1.096 0 1.985.89 1.985 1.986v.992c0 1.097.889 1.985 1.985 1.985h.993c1.096 0 1.985.89 1.985 1.986v.992a1.985 1.985 0 0 1-1.985 1.985h-30.77a1.985 1.985 0 0 1-1.986-1.985v-.992c0-1.097.889-1.986 1.985-1.986H30.83a1.985 1.985 0 0 0 1.985-1.985V84.43Zm9.926 0c0-1.097.889-1.986 1.985-1.986h.993c1.096 0 1.985.89 1.985 1.986v.992a1.985 1.985 0 0 1-1.985 1.985h-.993a1.985 1.985 0 0 1-1.985-1.985v-.992Zm29.778 9.926c0-1.097.888-1.986 1.985-1.986h.992c1.097 0 1.985.89 1.985 1.986v.992a1.985 1.985 0 0 1-1.985 1.985h-.992a1.985 1.985 0 0 1-1.985-1.985v-.992Zm-19.852 4.963c0-1.097.888-1.986 1.985-1.986h.992c1.097 0 1.986.89 1.986 1.986v.992a1.985 1.985 0 0 1-1.986 1.985h-.992a1.985 1.985 0 0 1-1.985-1.985v-.992Zm9.926 0c0-1.097.888-1.986 1.985-1.986h.992c1.097 0 1.986.89 1.986 1.986v5.955a1.985 1.985 0 0 1-1.986 1.985h-.992a1.985 1.985 0 0 0-1.985 1.985v.993a1.985 1.985 0 0 1-1.986 1.985h-.992a1.985 1.985 0 0 0-1.985 1.985v.993a1.985 1.985 0 0 1-1.986 1.985h-.992a1.985 1.985 0 0 1-1.985-1.985v-5.956c0-1.096.888-1.985 1.985-1.985h.992a1.985 1.985 0 0 0 1.986-1.985v-.993c0-1.096.888-1.985 1.985-1.985h.992a1.985 1.985 0 0 0 1.986-1.985v-.992Zm14.888 0c0-1.097.89-1.986 1.986-1.986h.992c1.097 0 1.985.89 1.985 1.986v.992c0 1.096.89 1.985 1.986 1.985h.992c1.097 0 1.985.89 1.985 1.985v.993a1.985 1.985 0 0 1-1.985 1.985h-5.955a1.985 1.985 0 0 1-1.986-1.985V99.32Zm24.815 4.962c0-1.096.89-1.985 1.985-1.985h.993c1.096 0 1.985.89 1.985 1.985v.993a1.985 1.985 0 0 1-1.985 1.985h-.993a1.985 1.985 0 0 1-1.985-1.985v-.993Zm-29.777 4.963c0-1.096.888-1.985 1.985-1.985h.992c1.097 0 1.985.89 1.985 1.985v.993c0 1.096.89 1.985 1.986 1.985h.992c1.097 0 1.985.889 1.985 1.985v10.919a1.985 1.985 0 0 1-1.985 1.985h-.992a1.985 1.985 0 0 1-1.986-1.985v-.993a1.985 1.985 0 0 0-1.985-1.985h-.992a1.985 1.985 0 0 1-1.985-1.985v-.993a1.985 1.985 0 0 0-1.986-1.985h-.992a1.985 1.985 0 0 1-1.985-1.985v-.993c0-1.096.888-1.985 1.985-1.985h.992a1.985 1.985 0 0 0 1.986-1.985v-.993Zm-9.926 9.926c0-1.096.888-1.985 1.985-1.985h.992c1.097 0 1.986.889 1.986 1.985v.993c0 1.096.888 1.985 1.985 1.985h.992c1.097 0 1.986.889 1.986 1.985v.993a1.985 1.985 0 0 1-1.986 1.985h-.992a1.985 1.985 0 0 0-1.985 1.985v.993a1.985 1.985 0 0 1-1.986 1.985h-.992a1.985 1.985 0 0 1-1.985-1.985v-.993a1.985 1.985 0 0 0-1.986-1.985h-.992a1.985 1.985 0 0 1-1.985-1.985v-.993c0-1.096.888-1.985 1.985-1.985h.992a1.985 1.985 0 0 0 1.986-1.985v-.993Zm24.814 0c0-1.096.89-1.985 1.986-1.985h.992c1.097 0 1.985.889 1.985 1.985v.993a1.985 1.985 0 0 1-1.985 1.985h-.992a1.985 1.985 0 0 1-1.986-1.985v-.993Zm-34.74 9.926c0-1.096.888-1.985 1.985-1.985h.992c1.097 0 1.986.889 1.986 1.985v5.956a1.985 1.985 0 0 1-1.986 1.985h-.992a1.985 1.985 0 0 1-1.985-1.985v-5.956Zm19.852 0c0-1.096.888-1.985 1.985-1.985h.992c1.097 0 1.985.889 1.985 1.985v.993a1.985 1.985 0 0 1-1.985 1.985h-.992a1.985 1.985 0 0 1-1.985-1.985v-.993Zm9.925 0c0-1.096.89-1.985 1.986-1.985h5.955c1.097 0 1.985.889 1.985 1.985v5.956a1.985 1.985 0 0 1-1.985 1.985h-.992a1.985 1.985 0 0 1-1.986-1.985v-.993a1.985 1.985 0 0 0-1.985-1.985h-.992a1.985 1.985 0 0 1-1.986-1.985v-.993Zm-4.963 4.963c0-1.096.89-1.985 1.986-1.985h.992c1.097 0 1.985.889 1.985 1.985v.993a1.985 1.985 0 0 1-1.985 1.985h-.992a1.985 1.985 0 0 1-1.986-1.985v-.993ZM42.493 12.963a5.211 5.211 0 0 1 5.21 5.211v24.319a5.211 5.211 0 0 1-5.21 5.21H18.174a5.211 5.211 0 0 1-5.211-5.21V18.174a5.211 5.211 0 0 1 5.211-5.211h24.319Zm-3.474 4.963h-17.37a3.722 3.722 0 0 0-3.723 3.722v17.37a3.722 3.722 0 0 0 3.722 3.723h17.37a3.722 3.722 0 0 0 3.723-3.722v-17.37a3.722 3.722 0 0 0-3.722-3.723Z" fill="#1B294C"/><path d="M25.122 22.889h10.422a2.233 2.233 0 0 1 2.234 2.233v10.422a2.233 2.233 0 0 1-2.234 2.234H25.122c-1.233 0-2.233-1-2.233-2.234V25.122c0-1.233 1-2.233 2.233-2.233Zm106.704-9.926a5.211 5.211 0 0 1 5.211 5.211v24.319a5.211 5.211 0 0 1-5.211 5.21h-24.319a5.211 5.211 0 0 1-5.21-5.21V18.174a5.211 5.211 0 0 1 5.21-5.211h24.319Zm-3.474 4.963h-17.37a3.722 3.722 0 0 0-3.723 3.722v17.37a3.722 3.722 0 0 0 3.722 3.723h17.37a3.722 3.722 0 0 0 3.723-3.722v-17.37a3.722 3.722 0 0 0-3.722-3.723Z" fill="#1B294C"/><path d="M114.456 22.889h10.422c1.233 0 2.233 1 2.233 2.233v10.422c0 1.234-1 2.234-2.233 2.234h-10.422c-1.234 0-2.234-1-2.234-2.234V25.122c0-1.233 1-2.233 2.234-2.233Zm-71.963 79.407a5.211 5.211 0 0 1 5.21 5.211v24.319a5.211 5.211 0 0 1-5.21 5.211H18.174a5.211 5.211 0 0 1-5.211-5.211v-24.319a5.211 5.211 0 0 1 5.211-5.21h24.319Zm-3.474 4.963h-17.37a3.722 3.722 0 0 0-3.723 3.722v17.37a3.722 3.722 0 0 0 3.722 3.723h17.37a3.722 3.722 0 0 0 3.723-3.722v-17.37a3.722 3.722 0 0 0-3.722-3.723Z" fill="#1B294C"/><path d="M25.122 112.222h10.422a2.233 2.233 0 0 1 2.234 2.234v10.422a2.233 2.233 0 0 1-2.234 2.233H25.122c-1.233 0-2.233-1-2.233-2.233v-10.422c0-1.234 1-2.234 2.233-2.234Z" fill="#1B294C"/></svg>