<svg viewBox="0 0 512 512" xmlns="http://www.w3.org/2000/svg" xmlns:xlink="http://www.w3.org/1999/xlink"><defs><linearGradient x1="50%" y1="0%" x2="50%" y2="100%" id="b"><stop stop-color="#2798F6" offset="0%"/><stop stop-color="#1080F3" offset="100%"/></linearGradient><linearGradient x1="50%" y1="0%" x2="50%" y2="100%" id="e"><stop stop-color="#FAFAFC" offset="0%"/><stop stop-color="#F5F5E1" offset="100%"/></linearGradient><linearGradient x1="50%" y1="0%" x2="50%" y2="100%" id="i"><stop stop-color="#FFEC11" offset="0%"/><stop stop-color="#EED300" offset="100%"/></linearGradient><linearGradient x1="50%" y1="0%" x2="50%" y2="100%" id="l"><stop stop-color="#C8C8C8" stop-opacity=".7" offset="0%"/><stop stop-color="#979797" stop-opacity=".5" offset="100%"/></linearGradient><filter x="-9.6%" y="-8.9%" width="119.1%" height="117.8%" filterUnits="objectBoundingBox" id="d"><feGaussianBlur stdDeviation="10" in="SourceGraphic"/></filter><filter x="-.7%" y="-.6%" width="101.4%" height="101.2%" filterUnits="objectBoundingBox" id="g"><feOffset dy="4" in="SourceAlpha" result="shadowOffsetInner1"/><feComposite in="shadowOffsetInner1" in2="SourceAlpha" operator="arithmetic" k2="-1" k3="1" result="shadowInnerInner1"/><feColorMatrix values="0 0 0 0 1 0 0 0 0 1 0 0 0 0 1 0 0 0 1 0" in="shadowInnerInner1"/></filter><filter x="-28.6%" y="-14.8%" width="157.1%" height="129.6%" filterUnits="objectBoundingBox" id="h"><feGaussianBlur stdDeviation="10" in="SourceGraphic"/></filter><filter x="-1.5%" y="-.8%" width="103%" height="101.6%" filterUnits="objectBoundingBox" id="k"><feOffset dx="1" dy="3" in="SourceAlpha" result="shadowOffsetInner1"/><feComposite in="shadowOffsetInner1" in2="SourceAlpha" operator="arithmetic" k2="-1" k3="1" result="shadowInnerInner1"/><feColorMatrix values="0 0 0 0 1 0 0 0 0 0.990940078 0 0 0 0 0.2140625 0 0 0 1 0" in="shadowInnerInner1"/></filter><path d="M153.833 0h204.334c53.491 0 72.888 5.57 92.444 16.028 19.555 10.458 34.903 25.806 45.361 45.361C506.43 80.945 512 100.342 512 153.833v204.334c0 53.491-5.57 72.888-16.028 92.444-10.458 19.555-25.806 34.903-45.361 45.361C431.055 506.43 411.658 512 358.167 512H153.833c-53.491 0-72.888-5.57-92.444-16.028-19.555-10.458-34.903-25.806-45.361-45.361C5.57 431.055 0 411.658 0 358.167V153.833c0-53.491 5.57-72.888 16.028-92.444 10.458-19.555 25.806-34.903 45.361-45.361C80.945 5.57 100.342 0 153.833 0Z" id="a"/><path d="M256 303.584c18.832 0 35.89 1.19 51.176 3.568a66.248 66.248 0 0 0 3.223 9.467 67.584 67.584 0 0 0 15.173 22.11l.6.576a66.292 66.292 0 0 0 10.469 8.1l.465.287v66.055c0 1.43.115 2.851.351 4.253h-204.7a26 26 0 0 1-3.373-.22c-14.238-1.862-24.27-14.915-22.408-29.153 7.417-56.695 57.092-85.043 149.024-85.043Zm117.106 96.015 4.843 4.763-4.841 4.834-.002-9.597Zm0-47.687 10.537 10.601-10.537 10.484v-21.085ZM255.184 96c47.774 0 88.135 38.785 88.135 86.63 0 47.844-40.36 86.629-88.135 86.629-47.774 0-88.135-38.785-88.135-86.63 0-47.844 40.36-86.629 88.135-86.629Z" id="f"/><path d="m375.858 431.888 24.824-24.788c.835-.834 1.24-1.772 1.214-2.815-.026-1.042-.43-1.98-1.214-2.815l-15.427-15.17 21.144-21.033c.783-.782 1.161-1.695 1.135-2.737-.026-1.043-.457-1.981-1.292-2.815l-20.908-21.034c12.111-4.796 21.417-11.469 27.917-20.018 6.5-8.55 9.749-18.167 9.749-28.853 0-6.882-1.292-13.333-3.876-19.353-2.584-6.021-6.16-11.313-10.729-15.874-4.568-4.561-9.88-8.132-15.935-10.712-6.056-2.58-12.53-3.871-19.42-3.871-6.996 0-13.51 1.277-19.539 3.832-6.03 2.554-11.328 6.112-15.896 10.673-4.568 4.561-8.145 9.852-10.729 15.873C324.292 276.4 323 282.876 323 289.81c0 6.985 1.318 13.566 3.955 19.744a49.585 49.585 0 0 0 11.159 16.264c4.802 4.665 10.467 8.25 16.993 10.752v77.177c0 .99.17 1.877.509 2.659.339.781.848 1.537 1.527 2.267l13.077 13.137c.679.677 1.58 1.068 2.702 1.173 1.122.104 2.101-.261 2.936-1.095Zm-2.819-146.066c-3.654 0-6.747-1.278-9.28-3.832-2.531-2.554-3.797-5.63-3.797-9.227 0-3.649 1.253-6.737 3.758-9.266 2.506-2.528 5.613-3.792 9.32-3.792 3.601 0 6.681 1.264 9.24 3.792 2.558 2.529 3.837 5.617 3.837 9.266 0 3.597-1.28 6.673-3.837 9.227-2.559 2.554-5.639 3.832-9.24 3.832Z" id="j"/></defs><g fill="none" fill-rule="evenodd"><mask id="c" fill="#fff"><use xlink:href="#a"/></mask><path stroke-opacity=".207" stroke="#979797" stroke-width="4" d="M153.833 2h204.334c52.925 0 72.145 5.44 91.5 15.792 19.202 10.269 34.272 25.339 44.541 44.54C504.56 81.688 510 100.908 510 153.833v204.334c0 52.925-5.44 72.145-15.792 91.5-10.269 19.202-25.339 34.272-44.54 44.541C430.312 504.56 411.092 510 358.167 510H153.833c-52.925 0-72.145-5.44-91.5-15.792-19.202-10.269-34.272-25.339-44.541-44.54C7.44 430.312 2 411.092 2 358.167V153.833c0-52.925 5.44-72.145 15.792-91.5C28.06 43.13 43.13 28.06 62.332 17.791 81.688 7.44 100.908 2 153.833 2Z"/><path fill="url(#b)" mask="url(#c)" d="M0 0h512v512H0z"/><path d="M255.605 312.898c14.721 0 28.41.693 41.066 2.079.353.96.731 1.91 1.133 2.853 3.285 7.7 7.943 14.491 13.932 20.31l.606.581a60.96 60.96 0 0 0 13.589 9.696l.613.317v74.552c0 2.357.436 4.635 1.358 6.76a17.54 17.54 0 0 0 1.64 2.953H126.304a27.3 27.3 0 0 1-3.542-.231c-14.95-1.956-25.484-15.662-23.527-30.612 7.787-59.505 59.91-89.258 156.37-89.258ZM412.997 419.37c-.044 7.436-6 13.46-13.396 13.625l-.313.004-17.553-.001 9.644-9.632c2.747-2.744 4.293-6.332 4.195-10.261-.087-3.475-1.41-6.668-3.703-9.237l-.405-.44-9.143-8.994 15.041-14.968c2.737-2.734 4.223-6.317 4.126-10.191l-.003-.16c7.79 14.1 11.626 30.852 11.51 50.255Zm-46.99-84.74-.046.02a84.67 84.67 0 0 1-1.4.568l-14.064 5.571 28.57 28.753-25.095 24.975 19.182 18.868-17.772 17.753-8.902-8.947.001-86.773-6.4-2.455c-5.6-2.148-10.393-5.182-14.453-9.128a42.622 42.622 0 0 1-4.435-5.037c17.418 3.612 32.355 8.89 44.815 15.832ZM254.749 95c50.13 0 92.48 40.712 92.48 90.934 0 18.161-5.538 35.08-14.98 49.279-.439.17-.875.35-1.308.533-7.501 3.179-14.134 7.634-19.836 13.33a62.384 62.384 0 0 0-11.762 16.31c-13.313 7.314-28.555 11.481-44.594 11.481-50.13 0-92.48-40.712-92.48-90.933 0-50.222 42.35-90.934 92.48-90.934Z" fill-opacity=".05" fill="#000" filter="url(#d)" mask="url(#c)"/><g mask="url(#c)"><use fill="url(#e)" xlink:href="#f"/><use fill="#000" filter="url(#g)" xlink:href="#f"/></g><path d="m376.501 441.83 26.065-26.072c.877-.877 1.302-1.864 1.275-2.96-.028-1.097-.453-2.084-1.275-2.961l-16.198-15.956 22.2-22.124c.823-.822 1.22-1.782 1.193-2.878-.028-1.097-.48-2.084-1.357-2.961l-21.954-22.124c12.718-5.045 22.489-12.063 29.313-21.055C422.588 313.747 426 303.63 426 292.39c0-7.237-1.357-14.023-4.07-20.355-2.713-6.333-6.468-11.899-11.265-16.696-4.796-4.798-10.374-8.554-16.732-11.268-6.359-2.714-13.156-4.071-20.392-4.071-7.345 0-14.184 1.343-20.515 4.03-6.331 2.687-11.895 6.429-16.691 11.227-4.797 4.797-8.552 10.362-11.265 16.695-2.713 6.333-4.07 13.146-4.07 20.438 0 7.348 1.384 14.27 4.152 20.767 2.769 6.498 6.674 12.2 11.717 17.107 5.043 4.908 10.99 8.677 17.843 11.31v81.175c0 1.042.178 1.974.534 2.797.357.822.891 1.617 1.604 2.385l13.731 13.817c.713.713 1.658 1.124 2.837 1.234 1.178.11 2.206-.274 3.083-1.152Z" fill-opacity=".05" fill="#000" filter="url(#h)" mask="url(#c)"/><g fill-rule="nonzero" mask="url(#c)"><use fill="url(#i)" xlink:href="#j"/><use fill="#000" filter="url(#k)" xlink:href="#j"/></g><g mask="url(#c)" stroke="url(#l)" stroke-width="4"><path d="M153.833 2h204.334c52.925 0 72.145 5.44 91.5 15.792 19.202 10.269 34.272 25.339 44.541 44.54C504.56 81.688 510 100.908 510 153.833v204.334c0 52.925-5.44 72.145-15.792 91.5-10.269 19.202-25.339 34.272-44.54 44.541C430.312 504.56 411.092 510 358.167 510H153.833c-52.925 0-72.145-5.44-91.5-15.792-19.202-10.269-34.272-25.339-44.541-44.54C7.44 430.312 2 411.092 2 358.167V153.833c0-52.925 5.44-72.145 15.792-91.5C28.06 43.13 43.13 28.06 62.332 17.791 81.688 7.44 100.908 2 153.833 2Z"/></g></g></svg>