<svg viewBox="0 0 120 40" xmlns="http://www.w3.org/2000/svg"><g fill="#CC2131"><path d="M102.84 6c9.068-.02 15.16 6.595 15.16 14.526S111.922 34.997 102.826 35H17.172C8.077 34.997 2 28.457 2 20.526S8.092 5.98 17.16 6h85.68Zm-.043 3.568H17.201C10 9.581 5.579 14.466 5.579 20.507c0 6.04 4.393 10.964 11.622 10.937h85.596c7.229.027 11.624-4.896 11.624-10.937 0-6.041-4.422-10.925-11.624-10.939Z"/><path d="M13.508 13.65h4.19l5.8 9.519-.003-9.52h4.157v13.654H23.5l-5.83-9.52v9.52h-4.163l.001-13.653Zm36.755 1.405h4.049v1.837h2.19v1.348h-2.19l.002 9.063h-4.051l.002-9.063h-2.2v-1.347h2.2l-.002-1.838Zm-20.295 3.17h4.046v9.078h-4.046v-9.079Zm-.008-4.578h4.054v2.791H29.96v-2.79Zm72.524 9.043-.002 1.923c0 1.446-.842 2.045-1.654 2.045-.81 0-1.657-.599-1.657-2.045l.002-1.957s.004-1.342.004-1.894c0-1.44.844-2.033 1.65-2.033.807 0 1.655.592 1.655 2.033 0 .552 0 1.568.002 1.935v-.007Zm-1.625-5.086c-3.264 0-5.91 2.283-5.91 5.099 0 2.815 2.647 5.097 5.91 5.097 3.268 0 5.913-2.282 5.913-5.097 0-2.816-2.645-5.1-5.913-5.1ZM89.64 13.65h3.992V27.3h-3.999l-.002-.522c-1.547.985-3.296.983-4.658.34a4.845 4.845 0 0 1-2.767-4.5c0-2.399 2.23-5.014 5.143-4.755.96.087 1.642.442 2.29.81V13.65Zm.029 9.067v-1.622c0-1.404-.955-1.762-1.585-1.762-.645 0-1.587.358-1.587 1.762l.002 1.619-.002 1.613c0 1.403.942 1.77 1.587 1.77.63 0 1.585-.367 1.585-1.77v-1.61Zm-46.184-4.913c1.512-.042 4.582.963 4.56 4.559-.005.636-.002 4.938-.002 4.938h-4.019v-5.962c0-.792-.746-1.673-1.847-1.673-1.103 0-1.921.88-1.921 1.673l.004 5.962h-4.017l-.003-9.078 4.02-.003s-.005.73 0 .954a4.845 4.845 0 0 1 3.225-1.37Zm32.878 0c1.51-.042 4.58.963 4.56 4.559-.006.636-.004 4.938-.004 4.938H76.9v-5.962c0-.792-.744-1.673-1.847-1.673-1.102 0-1.923.88-1.923 1.673l.006 5.962H69.12l.003-9.078 4.013-.003s-.006.73 0 .954a4.843 4.843 0 0 1 3.227-1.37Zm-16.09 3.584c-.008-.794.008-1.325.265-1.782.318-.559.9-.825 1.425-.828h-.002c.53.003 1.106.27 1.423.828.256.456.271.988.265 1.782h-3.377Zm3.359 2.738s.003.04.003.552c0 1.66-1.076 2.03-1.672 2.03-.598 0-1.694-.37-1.694-2.03 0-.499.006-1.875.006-1.875s7.619.003 7.619 0c0-2.816-2.678-5.149-5.968-5.149-3.289 0-5.957 2.283-5.957 5.096 0 2.817 2.668 5.1 5.957 5.1 2.73 0 5.034-1.582 5.74-3.727l-4.034.003Zm43.423-7.228h-.466V13.79h1.168c.722 0 1.082.271 1.082.884 0 .555-.344.798-.796.856l.87 1.37h-.518l-.809-1.35h-.531v1.35Zm.554-1.748c.394 0 .742-.027.742-.506 0-.384-.344-.456-.664-.456h-.633v.962h.555Z"/><path d="M104.916 15.335c0-1.546 1.238-2.687 2.698-2.687a2.666 2.666 0 0 1 2.683 2.687 2.669 2.669 0 0 1-2.683 2.703c-1.46 0-2.698-1.14-2.698-2.703Zm2.698 2.254c1.203 0 2.149-.956 2.149-2.254 0-1.275-.946-2.238-2.149-2.238-1.214 0-2.162.963-2.162 2.238 0 1.299.948 2.254 2.162 2.254Z"/></g></svg>