<svg xmlns="http://www.w3.org/2000/svg" viewBox="0 0 120 40"><path fill="#D5FF00" d="M26.166 8H2v24h24.166z"/><path d="M22.809 26.334H5.359v2.332h17.45v-2.332Zm-8.725-1.338 1.664-1.642 5.05-5.016-1.684-1.672-3.857 3.83V11H12.91v9.497l-3.858-3.831-1.684 1.67 5.05 5.018 1.666 1.642Zm19.444-12.132h6.112c3.88 0 6.378 3.108 6.378 7.364 0 2.34-.794 4.398-2.317 5.67-1.078.888-2.478 1.392-4.306 1.392h-5.867V12.864Zm5.663 11.902c2.763 0 3.84-1.674 3.84-4.54 0-2.867-1.257-4.862-3.758-4.862h-2.8v9.401h2.721-.003v.001Zm7.265-2.64c0-3.086 2.215-5.467 5.443-5.467 3.228 0 5.443 2.378 5.443 5.466s-2.215 5.468-5.443 5.468c-3.228 0-5.443-2.38-5.443-5.467Zm8.084 0c0-2.018-.954-3.39-2.641-3.39s-2.641 1.372-2.641 3.39c0 2.017.934 3.368 2.64 3.368 1.709 0 2.642-1.35 2.642-3.369Zm3.372 0c0-3.086 2.032-5.467 5.201-5.467 2.7 0 4.368 1.552 4.732 3.79h-2.7c-.184-.907-.895-1.594-1.91-1.594-1.665 0-2.52 1.272-2.52 3.269 0 1.994.792 3.266 2.478 3.266 1.117 0 1.91-.585 2.09-1.754h2.661c-.183 2.2-1.91 3.954-4.692 3.954-3.29 0-5.342-2.38-5.342-5.466l.002.001Zm17.34 5.162v-1.21h-.063c-.711.947-1.524 1.493-2.986 1.493-2.316 0-3.614-1.474-3.614-3.734V16.94h2.742v6.434c0 1.211.548 1.875 1.727 1.875 1.301 0 2.092-.969 2.092-2.34v-5.972h2.762v10.35h-2.66v.002Zm16.118-14.36h2.763v2.566H91.37v-2.566Zm0 4.013h2.763v10.35H91.37V16.94Zm6.653 10.65c.223.645.813 1.149 2.09 1.149 1.564 0 2.318-.746 2.318-2.159v-1.129h-.062c-.61.687-1.403 1.211-2.723 1.211-2.317 0-4.592-1.816-4.592-4.943 0-3.128 1.869-5.064 4.51-5.064 1.301 0 2.255.504 2.884 1.372h.04v-1.09h2.66V26.5c0 1.452-.467 2.441-1.238 3.147-.875.807-2.215 1.172-3.759 1.172-2.845 0-4.59-1.211-4.875-3.229h2.747v.001Zm4.549-5.93c0-1.513-.813-2.806-2.478-2.806-1.402 0-2.336 1.09-2.336 2.825s.934 2.782 2.356 2.782c1.747 0 2.458-1.27 2.458-2.804v.002Zm6.467-3.31h.061c.711-1.11 1.665-1.695 3.088-1.695 2.153 0 3.595 1.614 3.595 3.873v6.759h-2.763v-6.356c0-1.11-.65-1.896-1.809-1.896-1.219 0-2.113.968-2.113 2.378v5.871h-2.762V16.936h2.7v1.413l.003.002Zm-23.964.244c-2.153-.465-3.169-.807-3.169-1.976 0-1.029 1.035-1.695 2.62-1.695 1.448 0 2.551.673 2.779 2.017h2.834c-.288-2.802-2.381-4.337-5.59-4.337-3.208 0-5.564 1.473-5.564 4.318 0 3.006 2.376 3.69 4.977 4.275 2.216.505 3.596.788 3.596 2.2 0 1.332-1.32 1.856-2.825 1.856-2.071 0-3.068-.687-3.27-2.421h-2.885c.1 3.046 2.336 4.78 6.275 4.78 3.27 0 5.647-1.633 5.647-4.56 0-3.106-2.438-3.813-5.423-4.457h-.003Zm31.827.256c-.606 0-1.097-.49-1.097-1.09 0-.604.491-1.093 1.097-1.093.607 0 1.098.49 1.098 1.093a1.095 1.095 0 0 1-1.098 1.09Zm0-2.011a.925.925 0 0 0-.926.92c0 .51.415.924.926.924a.924.924 0 0 0 .927-.923.926.926 0 0 0-.927-.921Z" fill="#191823"/><path d="M116.526 17.2h.36c.148 0 .25 0 .348.08a.34.34 0 0 1 .124.276.31.31 0 0 1-.22.308l.25.453h-.24l-.223-.414h-.189v.413h-.207v-1.114l-.003-.002Zm.208.18v.349h.074c.072 0 .1 0 .14-.003.046 0 .197-.01.197-.172 0-.025 0-.106-.09-.15-.044-.023-.098-.024-.222-.024h-.1Z" fill="#191823"/></svg>